<svg xmlns="http://www.w3.org/2000/svg" xmlns:xlink="http://www.w3.org/1999/xlink" width="500" zoomAndPan="magnify" viewBox="0 0 375 187.499995" height="250" preserveAspectRatio="xMidYMid meet" version="1.0"><defs><g/><clipPath id="eb86e1cde2"><path d="M 0.5 0 L 374.5 0 L 374.5 187 L 0.5 187 Z M 0.5 0 " clip-rule="nonzero"/></clipPath><clipPath id="6e79d310f5"><path d="M 45 32 L 85 32 L 85 75 L 45 75 Z M 45 32 " clip-rule="nonzero"/></clipPath><clipPath id="d43dd0fe79"><path d="M 44.570312 64.796875 L 54.953125 31.207031 L 88.542969 41.589844 L 78.15625 75.179688 Z M 44.570312 64.796875 " clip-rule="nonzero"/></clipPath><clipPath id="b1b18af1bd"><path d="M 44.570312 64.796875 L 54.953125 31.207031 L 88.542969 41.589844 L 78.15625 75.179688 Z M 44.570312 64.796875 " clip-rule="nonzero"/></clipPath><clipPath id="147645e0db"><path d="M 44.570312 64.796875 L 54.953125 31.207031 L 88.542969 41.589844 L 78.15625 75.179688 Z M 44.570312 64.796875 " clip-rule="nonzero"/></clipPath><clipPath id="d00509007e"><path d="M 50 44 L 57 44 L 57 51 L 50 51 Z M 50 44 " clip-rule="nonzero"/></clipPath><clipPath id="d041619a9d"><path d="M 44.570312 64.796875 L 54.953125 31.207031 L 88.542969 41.589844 L 78.15625 75.179688 Z M 44.570312 64.796875 " clip-rule="nonzero"/></clipPath><clipPath id="b72447c6de"><path d="M 44.570312 64.796875 L 54.953125 31.207031 L 88.542969 41.589844 L 78.15625 75.179688 Z M 44.570312 64.796875 " clip-rule="nonzero"/></clipPath><clipPath id="4993622348"><path d="M 44.570312 64.796875 L 54.953125 31.207031 L 88.542969 41.589844 L 78.15625 75.179688 Z M 44.570312 64.796875 " clip-rule="nonzero"/></clipPath><clipPath id="04899d0305"><path d="M 55 51 L 61 51 L 61 58 L 55 58 Z M 55 51 " clip-rule="nonzero"/></clipPath><clipPath id="5ecf3a9656"><path d="M 44.570312 64.796875 L 54.953125 31.207031 L 88.542969 41.589844 L 78.15625 75.179688 Z M 44.570312 64.796875 " clip-rule="nonzero"/></clipPath><clipPath id="546d067e7c"><path d="M 44.570312 64.796875 L 54.953125 31.207031 L 88.542969 41.589844 L 78.15625 75.179688 Z M 44.570312 64.796875 " clip-rule="nonzero"/></clipPath><clipPath id="690215700b"><path d="M 44.570312 64.796875 L 54.953125 31.207031 L 88.542969 41.589844 L 78.15625 75.179688 Z M 44.570312 64.796875 " clip-rule="nonzero"/></clipPath><clipPath id="7d7fc0426b"><path d="M 64 65 L 70 65 L 70 71 L 64 71 Z M 64 65 " clip-rule="nonzero"/></clipPath><clipPath id="45ed828566"><path d="M 44.570312 64.796875 L 54.953125 31.207031 L 88.542969 41.589844 L 78.15625 75.179688 Z M 44.570312 64.796875 " clip-rule="nonzero"/></clipPath><clipPath id="2a184dcc87"><path d="M 44.570312 64.796875 L 54.953125 31.207031 L 88.542969 41.589844 L 78.15625 75.179688 Z M 44.570312 64.796875 " clip-rule="nonzero"/></clipPath><clipPath id="19be688122"><path d="M 44.570312 64.796875 L 54.953125 31.207031 L 88.542969 41.589844 L 78.15625 75.179688 Z M 44.570312 64.796875 " clip-rule="nonzero"/></clipPath><clipPath id="15a6b6f08e"><path d="M 57 65 L 61 65 L 61 70 L 57 70 Z M 57 65 " clip-rule="nonzero"/></clipPath><clipPath id="ed893e5ee7"><path d="M 44.570312 64.796875 L 54.953125 31.207031 L 88.542969 41.589844 L 78.15625 75.179688 Z M 44.570312 64.796875 " clip-rule="nonzero"/></clipPath><clipPath id="09cc354ad2"><path d="M 44.570312 64.796875 L 54.953125 31.207031 L 88.542969 41.589844 L 78.15625 75.179688 Z M 44.570312 64.796875 " clip-rule="nonzero"/></clipPath><clipPath id="8d9882d00b"><path d="M 44.570312 64.796875 L 54.953125 31.207031 L 88.542969 41.589844 L 78.15625 75.179688 Z M 44.570312 64.796875 " clip-rule="nonzero"/></clipPath><clipPath id="a90b4c0e77"><path d="M 65 41 L 73 41 L 73 49 L 65 49 Z M 65 41 " clip-rule="nonzero"/></clipPath><clipPath id="1245483eb2"><path d="M 44.570312 64.796875 L 54.953125 31.207031 L 88.542969 41.589844 L 78.15625 75.179688 Z M 44.570312 64.796875 " clip-rule="nonzero"/></clipPath><clipPath id="215851e238"><path d="M 44.570312 64.796875 L 54.953125 31.207031 L 88.542969 41.589844 L 78.15625 75.179688 Z M 44.570312 64.796875 " clip-rule="nonzero"/></clipPath><clipPath id="63ed99a170"><path d="M 44.570312 64.796875 L 54.953125 31.207031 L 88.542969 41.589844 L 78.15625 75.179688 Z M 44.570312 64.796875 " clip-rule="nonzero"/></clipPath><clipPath id="8e659876bd"><path d="M 76 53 L 84 53 L 84 61 L 76 61 Z M 76 53 " clip-rule="nonzero"/></clipPath><clipPath id="3e74d9ef45"><path d="M 44.570312 64.796875 L 54.953125 31.207031 L 88.542969 41.589844 L 78.15625 75.179688 Z M 44.570312 64.796875 " clip-rule="nonzero"/></clipPath><clipPath id="df26a8c9f7"><path d="M 44.570312 64.796875 L 54.953125 31.207031 L 88.542969 41.589844 L 78.15625 75.179688 Z M 44.570312 64.796875 " clip-rule="nonzero"/></clipPath><clipPath id="c865a840af"><path d="M 44.570312 64.796875 L 54.953125 31.207031 L 88.542969 41.589844 L 78.15625 75.179688 Z M 44.570312 64.796875 " clip-rule="nonzero"/></clipPath><clipPath id="ffce497e3b"><path d="M 64 35 L 70 35 L 70 40 L 64 40 Z M 64 35 " clip-rule="nonzero"/></clipPath><clipPath id="5a29b25eac"><path d="M 44.570312 64.796875 L 54.953125 31.207031 L 88.542969 41.589844 L 78.15625 75.179688 Z M 44.570312 64.796875 " clip-rule="nonzero"/></clipPath><clipPath id="7b63de4e39"><path d="M 44.570312 64.796875 L 54.953125 31.207031 L 88.542969 41.589844 L 78.15625 75.179688 Z M 44.570312 64.796875 " clip-rule="nonzero"/></clipPath><clipPath id="5b8ebc6008"><path d="M 44.570312 64.796875 L 54.953125 31.207031 L 88.542969 41.589844 L 78.15625 75.179688 Z M 44.570312 64.796875 " clip-rule="nonzero"/></clipPath><clipPath id="b6646372fd"><path d="M 117 86.527344 L 118 86.527344 L 118 100 L 117 100 Z M 117 86.527344 " clip-rule="nonzero"/></clipPath><clipPath id="fed073e91a"><path d="M 100.71875 99 L 118 99 L 118 100 L 100.71875 100 Z M 100.71875 99 " clip-rule="nonzero"/></clipPath><clipPath id="b946f95bea"><path d="M 102 86.527344 L 118 86.527344 L 118 100 L 102 100 Z M 102 86.527344 " clip-rule="nonzero"/></clipPath><clipPath id="7d77b0677a"><path d="M 117.464844 99.390625 L 134.355469 99.390625 L 134.355469 99.554688 L 117.464844 99.554688 Z M 117.464844 99.390625 " clip-rule="nonzero"/></clipPath><clipPath id="cf9bb1cea9"><path d="M 117 86.527344 L 133 86.527344 L 133 100 L 117 100 Z M 117 86.527344 " clip-rule="nonzero"/></clipPath><clipPath id="7014a9a8af"><path d="M 108 100 L 109 100 L 109 100.742188 L 108 100.742188 Z M 108 100 " clip-rule="nonzero"/></clipPath><clipPath id="6d7b8b4db6"><path d="M 111.511719 100.152344 L 111.894531 100.152344 L 111.894531 100.742188 L 111.511719 100.742188 Z M 111.511719 100.152344 " clip-rule="nonzero"/></clipPath><clipPath id="d5633b53cf"><path d="M 114 100 L 115 100 L 115 100.742188 L 114 100.742188 Z M 114 100 " clip-rule="nonzero"/></clipPath><clipPath id="7de4fe01a6"><path d="M 117 100 L 118 100 L 118 100.742188 L 117 100.742188 Z M 117 100 " clip-rule="nonzero"/></clipPath><clipPath id="f364b61e00"><path d="M 120.285156 100.152344 L 120.667969 100.152344 L 120.667969 100.742188 L 120.285156 100.742188 Z M 120.285156 100.152344 " clip-rule="nonzero"/></clipPath><clipPath id="708b38f03d"><path d="M 123 100 L 124 100 L 124 100.742188 L 123 100.742188 Z M 123 100 " clip-rule="nonzero"/></clipPath><clipPath id="b1305e4716"><path d="M 126.136719 100.152344 L 126.507812 100.152344 L 126.507812 100.742188 L 126.136719 100.742188 Z M 126.136719 100.152344 " clip-rule="nonzero"/></clipPath><clipPath id="b953d08f4e"><path d="M 129.050781 100.152344 L 129.433594 100.152344 L 129.433594 100.742188 L 129.050781 100.742188 Z M 129.050781 100.152344 " clip-rule="nonzero"/></clipPath><clipPath id="f0fd9879aa"><path d="M 131 100 L 133 100 L 133 100.742188 L 131 100.742188 Z M 131 100 " clip-rule="nonzero"/></clipPath><clipPath id="11547a2a04"><path d="M 132.1875 100.152344 L 132.558594 100.152344 L 132.558594 100.742188 L 132.1875 100.742188 Z M 132.1875 100.152344 " clip-rule="nonzero"/></clipPath><clipPath id="4f850d1954"><path d="M 105 100 L 106 100 L 106 100.742188 L 105 100.742188 Z M 105 100 " clip-rule="nonzero"/></clipPath><clipPath id="1c219be574"><path d="M 102.746094 100.152344 L 103.117188 100.152344 L 103.117188 100.742188 L 102.746094 100.742188 Z M 102.746094 100.152344 " clip-rule="nonzero"/></clipPath></defs><g clip-path="url(#eb86e1cde2)"><path fill="#ffffff" d="M 0.5 0 L 374.5 0 L 374.5 194.480469 L 0.5 194.480469 Z M 0.5 0 " fill-opacity="1" fill-rule="nonzero"/><path fill="#ffffff" d="M 0.5 0 L 374.5 0 L 374.5 187 L 0.5 187 Z M 0.5 0 " fill-opacity="1" fill-rule="nonzero"/><path fill="#ffffff" d="M 0.5 0 L 374.5 0 L 374.5 187 L 0.5 187 Z M 0.5 0 " fill-opacity="1" fill-rule="nonzero"/></g><g clip-path="url(#6e79d310f5)"><g clip-path="url(#d43dd0fe79)"><g clip-path="url(#b1b18af1bd)"><g clip-path="url(#147645e0db)"><path fill="#000000" d="M 53.394531 36.246094 C 52.535156 39.023438 54.097656 41.984375 56.875 42.84375 C 58.039062 43.203125 59.234375 43.132812 60.296875 42.730469 L 65.359375 52.195312 C 64.140625 52.988281 63.179688 54.191406 62.71875 55.6875 C 62.363281 56.835938 62.355469 58.003906 62.617188 59.09375 L 54.921875 60.367188 C 54.488281 58.917969 53.367188 57.703125 51.816406 57.222656 C 49.347656 56.460938 46.71875 57.847656 45.953125 60.316406 C 45.191406 62.789062 46.578125 65.417969 49.046875 66.179688 C 51.519531 66.945312 54.148438 65.554688 54.910156 63.085938 C 55.070312 62.566406 55.132812 62.039062 55.113281 61.523438 L 63 60.21875 C 63.734375 61.851562 65.132812 63.179688 66.972656 63.75 C 68.46875 64.210938 70.007812 64.097656 71.351562 63.539062 L 73.703125 67.992188 C 73.140625 68.421875 72.703125 69.019531 72.480469 69.742188 C 71.90625 71.597656 72.945312 73.570312 74.800781 74.140625 C 76.652344 74.714844 78.625 73.671875 79.195312 71.820312 C 79.769531 69.96875 78.726562 67.996094 76.875 67.421875 C 76.152344 67.199219 75.410156 67.226562 74.738281 67.445312 L 72.386719 62.992188 C 73.609375 62.199219 74.570312 60.992188 75.035156 59.496094 C 75.742188 57.199219 75.097656 54.804688 73.558594 53.167969 L 77.382812 49.171875 C 77.453125 49.195312 77.519531 49.222656 77.589844 49.246094 C 80.367188 50.105469 83.324219 48.542969 84.183594 45.765625 C 85.042969 42.988281 83.480469 40.027344 80.703125 39.167969 C 77.925781 38.308594 74.96875 39.871094 74.109375 42.648438 C 73.394531 44.953125 74.351562 47.375 76.28125 48.628906 L 72.675781 52.394531 C 72.113281 51.980469 71.480469 51.648438 70.78125 51.433594 C 69.28125 50.96875 67.742188 51.085938 66.398438 51.644531 L 61.339844 42.199219 C 62.324219 41.550781 63.097656 40.574219 63.472656 39.363281 C 64.332031 36.582031 62.769531 33.625 59.992188 32.765625 C 57.214844 31.90625 54.253906 33.46875 53.394531 36.246094 Z M 49.394531 65.0625 C 47.542969 64.488281 46.5 62.515625 47.074219 60.664062 C 47.648438 58.8125 49.617188 57.769531 51.472656 58.34375 C 53.324219 58.917969 54.363281 60.886719 53.792969 62.742188 C 53.21875 64.59375 51.246094 65.632812 49.394531 65.0625 Z M 75.226562 42.996094 C 75.894531 40.835938 78.199219 39.621094 80.359375 40.289062 C 82.519531 40.957031 83.734375 43.257812 83.066406 45.417969 C 82.398438 47.578125 80.09375 48.792969 77.933594 48.125 C 75.773438 47.457031 74.558594 45.15625 75.226562 42.996094 Z M 78.078125 71.472656 C 77.695312 72.710938 76.378906 73.402344 75.144531 73.023438 C 73.910156 72.640625 73.214844 71.324219 73.597656 70.089844 C 73.980469 68.855469 75.292969 68.160156 76.53125 68.542969 C 77.765625 68.925781 78.457031 70.238281 78.078125 71.472656 Z M 73.914062 59.148438 C 73.054688 61.925781 70.097656 63.488281 67.320312 62.628906 C 64.539062 61.769531 62.980469 58.8125 63.835938 56.035156 C 64.695312 53.257812 67.65625 51.695312 70.433594 52.554688 C 73.210938 53.410156 74.773438 56.371094 73.914062 59.148438 Z M 62.351562 39.015625 C 61.683594 41.175781 59.382812 42.390625 57.222656 41.722656 C 55.0625 41.054688 53.847656 38.753906 54.515625 36.59375 C 55.183594 34.433594 57.484375 33.21875 59.644531 33.886719 C 61.804688 34.554688 63.019531 36.855469 62.351562 39.015625 Z M 62.351562 39.015625 " fill-opacity="1" fill-rule="nonzero"/></g></g></g></g><g clip-path="url(#d00509007e)"><g clip-path="url(#d041619a9d)"><g clip-path="url(#b72447c6de)"><g clip-path="url(#4993622348)"><path fill="#000000" d="M 53.945312 44.390625 C 52.402344 43.914062 50.757812 44.78125 50.28125 46.324219 C 49.804688 47.867188 50.671875 49.511719 52.214844 49.988281 C 53.757812 50.464844 55.402344 49.597656 55.878906 48.054688 C 56.355469 46.511719 55.488281 44.867188 53.945312 44.390625 Z M 52.558594 48.867188 C 51.632812 48.582031 51.113281 47.59375 51.398438 46.667969 C 51.6875 45.742188 52.671875 45.222656 53.597656 45.507812 C 54.523438 45.796875 55.046875 46.78125 54.757812 47.707031 C 54.472656 48.632812 53.488281 49.152344 52.558594 48.867188 Z M 52.558594 48.867188 " fill-opacity="1" fill-rule="nonzero"/></g></g></g></g><g clip-path="url(#04899d0305)"><g clip-path="url(#5ecf3a9656)"><g clip-path="url(#546d067e7c)"><g clip-path="url(#690215700b)"><path fill="#000000" d="M 58.933594 52.0625 C 57.386719 51.585938 55.746094 52.453125 55.269531 53.996094 C 54.789062 55.539062 55.65625 57.183594 57.203125 57.660156 C 58.746094 58.140625 60.386719 57.273438 60.867188 55.726562 C 61.34375 54.183594 60.476562 52.539062 58.933594 52.0625 Z M 57.546875 56.542969 C 56.621094 56.257812 56.101562 55.269531 56.386719 54.34375 C 56.671875 53.417969 57.660156 52.898438 58.585938 53.183594 C 59.511719 53.46875 60.03125 54.457031 59.746094 55.382812 C 59.460938 56.308594 58.472656 56.828125 57.546875 56.542969 Z M 57.546875 56.542969 " fill-opacity="1" fill-rule="nonzero"/></g></g></g></g><g clip-path="url(#7d7fc0426b)"><g clip-path="url(#45ed828566)"><g clip-path="url(#2a184dcc87)"><g clip-path="url(#19be688122)"><path fill="#000000" d="M 66.46875 70.339844 C 67.855469 70.769531 69.335938 69.988281 69.765625 68.597656 C 70.195312 67.210938 69.414062 65.730469 68.027344 65.300781 C 66.636719 64.871094 65.15625 65.652344 64.726562 67.042969 C 64.296875 68.429688 65.078125 69.910156 66.46875 70.339844 Z M 65.847656 67.386719 C 66.085938 66.617188 66.90625 66.183594 67.679688 66.421875 C 68.453125 66.660156 68.886719 67.480469 68.648438 68.253906 C 68.40625 69.023438 67.585938 69.457031 66.816406 69.21875 C 66.042969 68.980469 65.609375 68.160156 65.847656 67.386719 Z M 65.847656 67.386719 " fill-opacity="1" fill-rule="nonzero"/></g></g></g></g><g clip-path="url(#15a6b6f08e)"><g clip-path="url(#ed893e5ee7)"><g clip-path="url(#09cc354ad2)"><g clip-path="url(#8d9882d00b)"><path fill="#000000" d="M 57.40625 66.925781 C 57.117188 67.851562 57.640625 68.835938 58.566406 69.121094 C 59.492188 69.410156 60.476562 68.886719 60.761719 67.960938 C 61.050781 67.035156 60.527344 66.050781 59.601562 65.765625 C 58.675781 65.476562 57.691406 66 57.40625 66.925781 Z M 59.644531 67.617188 C 59.546875 67.925781 59.21875 68.097656 58.910156 68.003906 C 58.601562 67.90625 58.429688 67.578125 58.523438 67.269531 C 58.621094 66.960938 58.949219 66.789062 59.257812 66.882812 C 59.566406 66.980469 59.738281 67.308594 59.644531 67.617188 Z M 59.644531 67.617188 " fill-opacity="1" fill-rule="nonzero"/></g></g></g></g><g clip-path="url(#a90b4c0e77)"><g clip-path="url(#1245483eb2)"><g clip-path="url(#215851e238)"><g clip-path="url(#63ed99a170)"><path fill="#000000" d="M 68.113281 48.15625 C 69.964844 48.726562 71.9375 47.6875 72.511719 45.835938 C 73.082031 43.984375 72.042969 42.011719 70.191406 41.4375 C 68.335938 40.867188 66.363281 41.90625 65.792969 43.757812 C 65.21875 45.609375 66.261719 47.582031 68.113281 48.15625 Z M 69.84375 42.558594 C 71.078125 42.941406 71.773438 44.253906 71.390625 45.488281 C 71.007812 46.722656 69.695312 47.417969 68.460938 47.035156 C 67.222656 46.65625 66.53125 45.339844 66.910156 44.105469 C 67.292969 42.871094 68.609375 42.175781 69.84375 42.558594 Z M 69.84375 42.558594 " fill-opacity="1" fill-rule="nonzero"/></g></g></g></g><g clip-path="url(#8e659876bd)"><g clip-path="url(#3e74d9ef45)"><g clip-path="url(#df26a8c9f7)"><g clip-path="url(#c865a840af)"><path fill="#000000" d="M 76.804688 55.75 C 76.230469 57.601562 77.273438 59.574219 79.125 60.144531 C 80.976562 60.71875 82.949219 59.679688 83.523438 57.824219 C 84.09375 55.972656 83.054688 54 81.203125 53.429688 C 79.351562 52.855469 77.378906 53.898438 76.804688 55.75 Z M 82.402344 57.480469 C 82.019531 58.714844 80.707031 59.410156 79.472656 59.027344 C 78.238281 58.644531 77.542969 57.332031 77.925781 56.09375 C 78.304688 54.859375 79.621094 54.167969 80.855469 54.546875 C 82.089844 54.929688 82.785156 56.246094 82.402344 57.480469 Z M 82.402344 57.480469 " fill-opacity="1" fill-rule="nonzero"/></g></g></g></g><g clip-path="url(#ffce497e3b)"><g clip-path="url(#5a29b25eac)"><g clip-path="url(#7b63de4e39)"><g clip-path="url(#5b8ebc6008)"><path fill="#000000" d="M 66.445312 39.667969 C 67.679688 40.046875 68.992188 39.355469 69.375 38.121094 C 69.757812 36.886719 69.0625 35.570312 67.828125 35.1875 C 66.59375 34.808594 65.277344 35.5 64.898438 36.734375 C 64.515625 37.96875 65.210938 39.285156 66.445312 39.667969 Z M 67.480469 36.308594 C 68.101562 36.5 68.445312 37.15625 68.253906 37.773438 C 68.066406 38.390625 67.40625 38.738281 66.789062 38.546875 C 66.171875 38.355469 65.824219 37.699219 66.015625 37.082031 C 66.207031 36.464844 66.863281 36.117188 67.480469 36.308594 Z M 67.480469 36.308594 " fill-opacity="1" fill-rule="nonzero"/></g></g></g></g><g fill="#ffffff" fill-opacity="1"><g transform="translate(146.318374, 171.245185)"><g><path d="M 1.910156 -54.40625 C 1.910156 -76.933594 -12.601562 -99.078125 -36.460938 -99.078125 C -58.035156 -99.078125 -66.433594 -79.226562 -74.835938 -58.035156 C -81.515625 -41.808594 -88.769531 -22.144531 -106.714844 -22.144531 C -122.941406 -22.144531 -131.914062 -35.316406 -131.914062 -50.78125 C -131.914062 -72.542969 -120.078125 -85.90625 -103.46875 -92.96875 L -104.042969 -94.878906 L -126.1875 -94.117188 C -130.195312 -86.671875 -134.96875 -74.261719 -134.96875 -56.890625 C -134.96875 -28.828125 -120.84375 -10.308594 -98.507812 -10.308594 C -78.269531 -10.308594 -70.253906 -24.625 -61.28125 -47.152344 C -54.789062 -63.1875 -46.007812 -86.671875 -26.917969 -86.671875 C -11.453125 -86.671875 -1.527344 -73.5 -1.527344 -58.226562 C -1.527344 -31.691406 -18.519531 -17.179688 -38.5625 -9.734375 L -38.179688 -7.636719 L -11.644531 -8.589844 C -5.15625 -17.5625 1.910156 -34.363281 1.910156 -54.40625 Z M 1.910156 -54.40625 "/></g></g></g><g fill="#000000" fill-opacity="1"><g transform="translate(144.749947, 168.295414)"><g><path d="M 1.910156 -54.40625 C 1.910156 -76.933594 -12.601562 -99.078125 -36.460938 -99.078125 C -58.035156 -99.078125 -66.433594 -79.226562 -74.835938 -58.035156 C -81.515625 -41.808594 -88.769531 -22.144531 -106.714844 -22.144531 C -122.941406 -22.144531 -131.914062 -35.316406 -131.914062 -50.78125 C -131.914062 -72.542969 -120.078125 -85.90625 -103.46875 -92.96875 L -104.042969 -94.878906 L -126.1875 -94.117188 C -130.195312 -86.671875 -134.96875 -74.261719 -134.96875 -56.890625 C -134.96875 -28.828125 -120.84375 -10.308594 -98.507812 -10.308594 C -78.269531 -10.308594 -70.253906 -24.625 -61.28125 -47.152344 C -54.789062 -63.1875 -46.007812 -86.671875 -26.917969 -86.671875 C -11.453125 -86.671875 -1.527344 -73.5 -1.527344 -58.226562 C -1.527344 -31.691406 -18.519531 -17.179688 -38.5625 -9.734375 L -38.179688 -7.636719 L -11.644531 -8.589844 C -5.15625 -17.5625 1.910156 -34.363281 1.910156 -54.40625 Z M 1.910156 -54.40625 "/></g></g></g><path stroke-linecap="round" transform="matrix(0.000952728, 0, 0, -0.00097866, 100.746334, 100.741546)" fill="none" stroke-linejoin="round" d="M 14567.288028 1296.557874 L 14567.288028 11989.590652 " stroke="#b2b2b2" stroke-width="163.682007" stroke-opacity="1" stroke-miterlimit="10"/><path stroke-linecap="round" transform="matrix(0.000952728, 0, 0, -0.00097866, 100.746334, 100.741546)" fill="none" stroke-linejoin="round" d="M 11500.43742 1296.557874 L 11500.43742 7120.049782 " stroke="#b2b2b2" stroke-width="163.682007" stroke-opacity="1" stroke-miterlimit="10"/><path stroke-linecap="round" transform="matrix(0.000952728, 0, 0, -0.00097866, 100.746334, 100.741546)" fill="none" stroke-linejoin="round" d="M 8429.486745 1296.557874 L 8429.486745 3188.494245 " stroke="#b2b2b2" stroke-width="163.682007" stroke-opacity="1" stroke-miterlimit="10"/><path stroke-linecap="round" transform="matrix(0.000952728, 0, 0, -0.00097866, 100.746334, 100.741546)" fill="none" stroke-linejoin="round" d="M 5362.636137 1296.557874 L 5362.636137 2003.040443 " stroke="#b2b2b2" stroke-width="163.682007" stroke-opacity="1" stroke-miterlimit="10"/><path stroke-linecap="round" transform="matrix(0.000952728, 0, 0, -0.00097866, 100.746334, 100.741546)" fill="none" stroke-linejoin="round" d="M 2291.685461 1296.557874 L 2291.685461 1675.743433 " stroke="#b2b2b2" stroke-width="163.682007" stroke-opacity="1" stroke-miterlimit="10"/><g clip-path="url(#b6646372fd)"><path stroke-linecap="round" transform="matrix(0.000952728, 0, 0, -0.00097866, 100.746334, 100.741546)" fill="none" stroke-linejoin="round" d="M 17638.238703 1296.557874 L 17638.238703 14344.532547 " stroke="#b2b2b2" stroke-width="163.682007" stroke-opacity="1" stroke-miterlimit="10"/></g><g clip-path="url(#fed073e91a)"><path stroke-linecap="round" transform="matrix(0.000952728, 0, 0, -0.00097866, 100.746334, 100.741546)" fill="none" stroke-linejoin="round" d="M 81.748994 1296.557874 L 17638.238703 1296.557874 " stroke="#b2b2b2" stroke-width="163.682007" stroke-opacity="1" stroke-miterlimit="10"/></g><g clip-path="url(#b946f95bea)"><path stroke-linecap="round" transform="matrix(0.000952728, 0, 0, -0.00097866, 100.746334, 100.741546)" fill="none" stroke-linejoin="round" d="M 17638.238703 14332.558266 C 15169.997973 14332.558266 12902.660559 9043.917568 10426.219694 5471.590455 C 8921.494863 3308.237053 7839.077002 2505.960237 5702.941752 2074.886128 C 4341.71929 1803.469096 3255.201361 1699.691995 1824.277749 1703.683422 " stroke="#3c3c3b" stroke-width="380" stroke-opacity="1" stroke-miterlimit="10"/></g><path stroke-linecap="round" transform="matrix(0.000952728, 0, 0, -0.00097866, 100.746334, 100.741546)" fill="none" stroke-linejoin="round" d="M 20705.089311 1296.557874 L 20705.089311 11989.590652 " stroke="#b2b2b2" stroke-width="163.682007" stroke-opacity="1" stroke-miterlimit="10"/><path stroke-linecap="round" transform="matrix(0.000952728, 0, 0, -0.00097866, 100.746334, 100.741546)" fill="none" stroke-linejoin="round" d="M 23776.039986 1296.557874 L 23776.039986 7120.049782 " stroke="#b2b2b2" stroke-width="163.682007" stroke-opacity="1" stroke-miterlimit="10"/><path stroke-linecap="round" transform="matrix(0.000952728, 0, 0, -0.00097866, 100.746334, 100.741546)" fill="none" stroke-linejoin="round" d="M 26842.890594 1296.557874 L 26842.890594 3188.494245 " stroke="#b2b2b2" stroke-width="163.682007" stroke-opacity="1" stroke-miterlimit="10"/><path stroke-linecap="round" transform="matrix(0.000952728, 0, 0, -0.00097866, 100.746334, 100.741546)" fill="none" stroke-linejoin="round" d="M 29913.841269 1296.557874 L 29913.841269 2003.040443 " stroke="#b2b2b2" stroke-width="163.682007" stroke-opacity="1" stroke-miterlimit="10"/><path stroke-linecap="round" transform="matrix(0.000952728, 0, 0, -0.00097866, 100.746334, 100.741546)" fill="none" stroke-linejoin="round" d="M 32984.791945 1296.557874 L 32984.791945 1675.743433 " stroke="#b2b2b2" stroke-width="163.682007" stroke-opacity="1" stroke-miterlimit="10"/><g clip-path="url(#7d77b0677a)"><path stroke-linecap="round" transform="matrix(0.000952728, 0, 0, -0.00097866, 100.746334, 100.741546)" fill="none" stroke-linejoin="round" d="M 35194.723991 1296.557874 L 17638.236487 1296.557874 " stroke="#b2b2b2" stroke-width="163.682007" stroke-opacity="1" stroke-miterlimit="10"/></g><g clip-path="url(#cf9bb1cea9)"><path stroke-linecap="round" transform="matrix(0.000952728, 0, 0, -0.00097866, 100.746334, 100.741546)" fill="none" stroke-linejoin="round" d="M 17638.238703 14332.558266 C 20106.479433 14332.558266 22373.816847 9043.917568 24850.257712 5471.590455 C 26354.982543 3308.237053 27433.300336 2505.960237 29573.535654 2074.886128 C 30930.658048 1803.469096 32021.276045 1699.691995 33448.09959 1703.683422 " stroke="#3c3c3b" stroke-width="380" stroke-opacity="1" stroke-miterlimit="10"/></g><g clip-path="url(#7014a9a8af)"><path fill="#000000" d="M 108.964844 100.632812 L 108.964844 100.738281 L 108.589844 100.738281 C 108.59375 100.699219 108.605469 100.660156 108.628906 100.625 C 108.648438 100.59375 108.6875 100.546875 108.746094 100.488281 C 108.796875 100.441406 108.824219 100.410156 108.835938 100.394531 C 108.851562 100.371094 108.859375 100.351562 108.859375 100.328125 C 108.859375 100.304688 108.851562 100.285156 108.839844 100.273438 C 108.828125 100.257812 108.808594 100.25 108.785156 100.25 C 108.765625 100.25 108.746094 100.257812 108.734375 100.273438 C 108.71875 100.285156 108.710938 100.308594 108.710938 100.339844 L 108.601562 100.332031 C 108.609375 100.269531 108.628906 100.226562 108.664062 100.199219 C 108.695312 100.175781 108.738281 100.160156 108.789062 100.160156 C 108.84375 100.160156 108.886719 100.175781 108.917969 100.207031 C 108.949219 100.238281 108.964844 100.273438 108.964844 100.320312 C 108.964844 100.347656 108.960938 100.371094 108.953125 100.394531 C 108.941406 100.417969 108.929688 100.441406 108.910156 100.46875 C 108.898438 100.484375 108.875 100.507812 108.839844 100.539062 C 108.804688 100.574219 108.785156 100.59375 108.773438 100.605469 C 108.765625 100.613281 108.757812 100.625 108.753906 100.632812 L 108.964844 100.632812 " fill-opacity="1" fill-rule="nonzero"/></g><g clip-path="url(#6d7b8b4db6)"><path fill="#000000" d="M 111.515625 100.578125 L 111.621094 100.566406 C 111.625 100.59375 111.632812 100.613281 111.648438 100.628906 C 111.660156 100.644531 111.679688 100.648438 111.699219 100.648438 C 111.722656 100.648438 111.742188 100.640625 111.753906 100.625 C 111.769531 100.605469 111.777344 100.585938 111.777344 100.554688 C 111.777344 100.527344 111.769531 100.503906 111.757812 100.488281 C 111.742188 100.472656 111.722656 100.464844 111.703125 100.464844 C 111.691406 100.464844 111.671875 100.46875 111.65625 100.472656 L 111.667969 100.382812 C 111.695312 100.382812 111.71875 100.378906 111.730469 100.363281 C 111.746094 100.351562 111.753906 100.332031 111.753906 100.308594 C 111.753906 100.289062 111.75 100.273438 111.738281 100.261719 C 111.726562 100.253906 111.710938 100.246094 111.695312 100.246094 C 111.675781 100.246094 111.660156 100.253906 111.648438 100.265625 C 111.632812 100.277344 111.625 100.296875 111.625 100.324219 L 111.523438 100.304688 C 111.53125 100.269531 111.542969 100.242188 111.554688 100.222656 C 111.570312 100.203125 111.589844 100.1875 111.613281 100.171875 C 111.636719 100.160156 111.667969 100.15625 111.695312 100.15625 C 111.75 100.15625 111.792969 100.171875 111.824219 100.207031 C 111.847656 100.234375 111.863281 100.265625 111.863281 100.304688 C 111.863281 100.351562 111.835938 100.394531 111.78125 100.421875 C 111.8125 100.429688 111.839844 100.445312 111.859375 100.472656 C 111.878906 100.496094 111.886719 100.523438 111.886719 100.558594 C 111.886719 100.609375 111.871094 100.652344 111.835938 100.6875 C 111.796875 100.722656 111.753906 100.742188 111.699219 100.742188 C 111.648438 100.742188 111.609375 100.726562 111.574219 100.695312 C 111.542969 100.667969 111.523438 100.628906 111.515625 100.578125 " fill-opacity="1" fill-rule="nonzero"/></g><g clip-path="url(#d5633b53cf)"><path fill="#000000" d="M 114.652344 100.523438 L 114.652344 100.328125 L 114.527344 100.523438 Z M 114.652344 100.738281 L 114.652344 100.621094 L 114.425781 100.621094 L 114.425781 100.523438 L 114.667969 100.160156 L 114.757812 100.160156 L 114.757812 100.523438 L 114.828125 100.523438 L 114.828125 100.621094 L 114.757812 100.621094 L 114.757812 100.738281 L 114.652344 100.738281 " fill-opacity="1" fill-rule="nonzero"/></g><g clip-path="url(#7de4fe01a6)"><path fill="#000000" d="M 117.363281 100.578125 L 117.46875 100.566406 C 117.472656 100.59375 117.480469 100.613281 117.496094 100.625 C 117.511719 100.640625 117.527344 100.648438 117.546875 100.648438 C 117.570312 100.648438 117.589844 100.640625 117.605469 100.621094 C 117.621094 100.601562 117.628906 100.574219 117.628906 100.535156 C 117.628906 100.5 117.621094 100.472656 117.605469 100.457031 C 117.589844 100.4375 117.570312 100.429688 117.542969 100.429688 C 117.515625 100.429688 117.488281 100.445312 117.460938 100.472656 L 117.375 100.460938 L 117.429688 100.160156 L 117.714844 100.160156 L 117.714844 100.265625 L 117.511719 100.265625 L 117.496094 100.359375 C 117.519531 100.347656 117.542969 100.34375 117.566406 100.34375 C 117.613281 100.34375 117.65625 100.359375 117.6875 100.394531 C 117.722656 100.429688 117.738281 100.476562 117.738281 100.535156 C 117.738281 100.582031 117.722656 100.625 117.699219 100.660156 C 117.660156 100.710938 117.609375 100.734375 117.546875 100.734375 C 117.496094 100.734375 117.453125 100.722656 117.421875 100.695312 C 117.386719 100.664062 117.367188 100.628906 117.363281 100.578125 " fill-opacity="1" fill-rule="nonzero"/></g><g clip-path="url(#f364b61e00)"><path fill="#000000" d="M 120.40625 100.539062 C 120.40625 100.574219 120.414062 100.601562 120.433594 100.621094 C 120.449219 100.640625 120.464844 100.648438 120.488281 100.648438 C 120.507812 100.648438 120.523438 100.640625 120.535156 100.625 C 120.550781 100.609375 120.554688 100.585938 120.554688 100.546875 C 120.554688 100.511719 120.546875 100.484375 120.535156 100.464844 C 120.519531 100.449219 120.503906 100.441406 120.480469 100.441406 C 120.460938 100.441406 120.441406 100.449219 120.429688 100.464844 C 120.414062 100.480469 120.40625 100.507812 120.40625 100.539062 Z M 120.648438 100.296875 L 120.546875 100.308594 C 120.542969 100.289062 120.539062 100.273438 120.527344 100.261719 C 120.515625 100.25 120.503906 100.246094 120.484375 100.246094 C 120.460938 100.246094 120.445312 100.257812 120.429688 100.277344 C 120.414062 100.296875 120.402344 100.34375 120.398438 100.40625 C 120.425781 100.375 120.457031 100.359375 120.496094 100.359375 C 120.542969 100.359375 120.582031 100.375 120.613281 100.410156 C 120.644531 100.445312 120.660156 100.492188 120.660156 100.546875 C 120.660156 100.605469 120.644531 100.652344 120.609375 100.6875 C 120.578125 100.722656 120.535156 100.742188 120.480469 100.742188 C 120.425781 100.742188 120.378906 100.71875 120.34375 100.675781 C 120.304688 100.628906 120.289062 100.554688 120.289062 100.453125 C 120.289062 100.347656 120.308594 100.273438 120.34375 100.226562 C 120.382812 100.179688 120.429688 100.15625 120.492188 100.15625 C 120.535156 100.15625 120.570312 100.167969 120.597656 100.191406 C 120.625 100.21875 120.640625 100.253906 120.648438 100.296875 " fill-opacity="1" fill-rule="nonzero"/></g><g clip-path="url(#708b38f03d)"><path fill="#000000" d="M 123.214844 100.269531 L 123.214844 100.164062 L 123.582031 100.164062 L 123.582031 100.246094 C 123.550781 100.277344 123.519531 100.320312 123.488281 100.378906 C 123.457031 100.433594 123.433594 100.496094 123.417969 100.558594 C 123.402344 100.625 123.394531 100.679688 123.394531 100.730469 L 123.289062 100.730469 C 123.292969 100.652344 123.308594 100.570312 123.339844 100.488281 C 123.367188 100.40625 123.40625 100.332031 123.457031 100.269531 L 123.214844 100.269531 " fill-opacity="1" fill-rule="nonzero"/></g><g clip-path="url(#b1305e4716)"><path fill="#000000" d="M 126.253906 100.3125 C 126.253906 100.332031 126.261719 100.351562 126.273438 100.363281 C 126.285156 100.375 126.300781 100.382812 126.320312 100.382812 C 126.339844 100.382812 126.355469 100.375 126.367188 100.363281 C 126.382812 100.351562 126.386719 100.332031 126.386719 100.3125 C 126.386719 100.289062 126.382812 100.273438 126.367188 100.261719 C 126.355469 100.25 126.339844 100.242188 126.320312 100.242188 C 126.300781 100.242188 126.285156 100.25 126.273438 100.261719 C 126.261719 100.273438 126.253906 100.289062 126.253906 100.3125 Z M 126.242188 100.558594 C 126.242188 100.585938 126.25 100.609375 126.265625 100.628906 C 126.28125 100.644531 126.300781 100.652344 126.324219 100.652344 C 126.34375 100.652344 126.363281 100.644531 126.378906 100.628906 C 126.390625 100.613281 126.398438 100.589844 126.398438 100.558594 C 126.398438 100.53125 126.390625 100.511719 126.378906 100.492188 C 126.363281 100.476562 126.34375 100.46875 126.320312 100.46875 C 126.296875 100.46875 126.277344 100.476562 126.261719 100.496094 C 126.25 100.515625 126.242188 100.535156 126.242188 100.558594 Z M 126.230469 100.421875 C 126.203125 100.410156 126.183594 100.394531 126.171875 100.371094 C 126.160156 100.351562 126.152344 100.328125 126.152344 100.304688 C 126.152344 100.261719 126.167969 100.226562 126.195312 100.199219 C 126.226562 100.167969 126.265625 100.15625 126.320312 100.15625 C 126.375 100.15625 126.414062 100.167969 126.445312 100.199219 C 126.472656 100.226562 126.488281 100.261719 126.488281 100.304688 C 126.488281 100.332031 126.480469 100.355469 126.46875 100.375 C 126.453125 100.394531 126.433594 100.410156 126.410156 100.421875 C 126.441406 100.433594 126.464844 100.453125 126.480469 100.476562 C 126.496094 100.503906 126.503906 100.53125 126.503906 100.5625 C 126.503906 100.617188 126.488281 100.660156 126.457031 100.691406 C 126.421875 100.726562 126.378906 100.742188 126.324219 100.742188 C 126.273438 100.742188 126.230469 100.726562 126.199219 100.699219 C 126.160156 100.667969 126.136719 100.625 126.136719 100.566406 C 126.136719 100.535156 126.144531 100.507812 126.160156 100.480469 C 126.175781 100.457031 126.199219 100.4375 126.230469 100.421875 " fill-opacity="1" fill-rule="nonzero"/></g><g clip-path="url(#b953d08f4e)"><path fill="#000000" d="M 129.3125 100.359375 C 129.3125 100.324219 129.304688 100.296875 129.289062 100.277344 C 129.273438 100.257812 129.253906 100.246094 129.234375 100.246094 C 129.214844 100.246094 129.199219 100.253906 129.183594 100.269531 C 129.171875 100.285156 129.164062 100.3125 129.164062 100.351562 C 129.164062 100.386719 129.171875 100.414062 129.1875 100.429688 C 129.199219 100.449219 129.21875 100.457031 129.238281 100.457031 C 129.261719 100.457031 129.277344 100.449219 129.292969 100.433594 C 129.304688 100.414062 129.3125 100.390625 129.3125 100.359375 Z M 129.070312 100.597656 L 129.175781 100.585938 C 129.175781 100.609375 129.183594 100.625 129.195312 100.636719 C 129.203125 100.644531 129.21875 100.652344 129.234375 100.652344 C 129.257812 100.652344 129.277344 100.640625 129.292969 100.621094 C 129.308594 100.597656 129.316406 100.554688 129.320312 100.488281 C 129.296875 100.523438 129.261719 100.539062 129.222656 100.539062 C 129.175781 100.539062 129.140625 100.519531 129.105469 100.484375 C 129.074219 100.449219 129.058594 100.40625 129.058594 100.351562 C 129.058594 100.292969 129.078125 100.246094 129.109375 100.210938 C 129.144531 100.171875 129.1875 100.15625 129.238281 100.15625 C 129.296875 100.15625 129.339844 100.179688 129.378906 100.222656 C 129.414062 100.269531 129.433594 100.34375 129.433594 100.445312 C 129.433594 100.550781 129.414062 100.625 129.375 100.671875 C 129.335938 100.71875 129.289062 100.742188 129.226562 100.742188 C 129.183594 100.742188 129.148438 100.730469 129.121094 100.707031 C 129.09375 100.683594 129.078125 100.644531 129.070312 100.597656 " fill-opacity="1" fill-rule="nonzero"/></g><g clip-path="url(#f0fd9879aa)"><path fill="#000000" d="M 132.03125 100.730469 L 131.925781 100.730469 L 131.925781 100.316406 C 131.886719 100.355469 131.839844 100.382812 131.785156 100.402344 L 131.785156 100.300781 C 131.8125 100.292969 131.84375 100.273438 131.878906 100.246094 C 131.910156 100.222656 131.933594 100.191406 131.945312 100.15625 L 132.03125 100.15625 L 132.03125 100.730469 " fill-opacity="1" fill-rule="nonzero"/></g><g clip-path="url(#11547a2a04)"><path fill="#000000" d="M 132.371094 100.246094 C 132.359375 100.246094 132.347656 100.25 132.335938 100.257812 C 132.328125 100.269531 132.320312 100.285156 132.3125 100.304688 C 132.308594 100.332031 132.304688 100.382812 132.304688 100.449219 C 132.304688 100.515625 132.304688 100.5625 132.3125 100.585938 C 132.320312 100.613281 132.328125 100.628906 132.335938 100.636719 C 132.347656 100.644531 132.359375 100.648438 132.371094 100.648438 C 132.386719 100.648438 132.398438 100.644531 132.40625 100.636719 C 132.417969 100.628906 132.425781 100.613281 132.429688 100.59375 C 132.4375 100.5625 132.441406 100.515625 132.441406 100.449219 C 132.441406 100.382812 132.4375 100.335938 132.433594 100.308594 C 132.425781 100.285156 132.417969 100.269531 132.40625 100.257812 C 132.398438 100.25 132.386719 100.246094 132.371094 100.246094 Z M 132.371094 100.15625 C 132.425781 100.15625 132.46875 100.175781 132.5 100.214844 C 132.535156 100.261719 132.554688 100.339844 132.554688 100.449219 C 132.554688 100.558594 132.535156 100.636719 132.5 100.683594 C 132.46875 100.722656 132.425781 100.742188 132.371094 100.742188 C 132.316406 100.742188 132.273438 100.71875 132.242188 100.675781 C 132.207031 100.632812 132.191406 100.558594 132.191406 100.449219 C 132.191406 100.339844 132.210938 100.261719 132.246094 100.214844 C 132.277344 100.175781 132.316406 100.15625 132.371094 100.15625 " fill-opacity="1" fill-rule="nonzero"/></g><g clip-path="url(#4f850d1954)"><path fill="#000000" d="M 105.976562 100.738281 L 105.871094 100.738281 L 105.871094 100.324219 C 105.832031 100.359375 105.785156 100.386719 105.730469 100.40625 L 105.730469 100.304688 C 105.757812 100.296875 105.789062 100.277344 105.824219 100.253906 C 105.855469 100.226562 105.878906 100.195312 105.890625 100.160156 L 105.976562 100.160156 L 105.976562 100.738281 " fill-opacity="1" fill-rule="nonzero"/></g><g clip-path="url(#1c219be574)"><path fill="#000000" d="M 102.929688 100.246094 C 102.917969 100.246094 102.90625 100.25 102.894531 100.257812 C 102.886719 100.269531 102.878906 100.285156 102.871094 100.304688 C 102.863281 100.332031 102.859375 100.382812 102.859375 100.449219 C 102.859375 100.515625 102.863281 100.5625 102.871094 100.585938 C 102.878906 100.613281 102.886719 100.628906 102.894531 100.636719 C 102.90625 100.644531 102.917969 100.648438 102.929688 100.648438 C 102.941406 100.648438 102.953125 100.644531 102.964844 100.636719 C 102.976562 100.628906 102.984375 100.613281 102.988281 100.59375 C 102.996094 100.5625 103 100.515625 103 100.449219 C 103 100.382812 102.996094 100.335938 102.988281 100.308594 C 102.984375 100.285156 102.976562 100.269531 102.964844 100.257812 C 102.953125 100.25 102.941406 100.246094 102.929688 100.246094 Z M 102.929688 100.15625 C 102.984375 100.15625 103.027344 100.175781 103.058594 100.214844 C 103.09375 100.261719 103.113281 100.339844 103.113281 100.449219 C 103.113281 100.558594 103.09375 100.636719 103.058594 100.683594 C 103.027344 100.722656 102.984375 100.742188 102.929688 100.742188 C 102.875 100.742188 102.832031 100.71875 102.800781 100.675781 C 102.765625 100.632812 102.75 100.558594 102.75 100.449219 C 102.75 100.339844 102.765625 100.261719 102.804688 100.214844 C 102.835938 100.175781 102.875 100.15625 102.929688 100.15625 " fill-opacity="1" fill-rule="nonzero"/></g><g fill="#000000" fill-opacity="1"><g transform="translate(135.063807, 140.392402)"><g><path d="M 0 -2.644531 L 0 -9.3125 L -0.6875 -9.3125 C -1.324219 -6.984375 -2.804688 -5.714844 -8.835938 -5.714844 L -32.324219 -5.714844 L -10.050781 -19.257812 L -10.050781 -20.261719 L -32.746094 -33.699219 L -6.71875 -33.699219 C -2.378906 -33.699219 -1.164062 -33.171875 -0.6875 -31.585938 L 0 -31.585938 L 0 -40.15625 L -0.6875 -40.15625 C -1.164062 -38.515625 -2.378906 -38.039062 -6.71875 -38.039062 L -28.199219 -38.039062 C -34.230469 -38.039062 -35.710938 -39.148438 -36.34375 -41.265625 L -37.035156 -41.265625 L -37.035156 -35.289062 L -14.230469 -21.742188 L -37.035156 -7.9375 L -37.035156 -1.535156 L -36.34375 -1.535156 C -35.710938 -3.652344 -34.230469 -4.761719 -28.199219 -4.761719 L -6.71875 -4.761719 C -2.378906 -4.761719 -1.164062 -4.285156 -0.6875 -2.644531 Z M 0 -2.644531 "/></g></g></g><g fill="#ffffff" fill-opacity="1"><g transform="translate(30.711242, 116.239496)"><g><path d="M 6.292969 0 L 26.273438 0 L 26.273438 -1.605469 C 22.449219 -2.714844 21.339844 -5.550781 21.339844 -15.667969 L 21.339844 -34.167969 L 30.097656 -34.167969 C 53.042969 -34.167969 65.007812 -45.640625 65.007812 -62.046875 C 65.007812 -74.011719 56.867188 -86.347656 31.332031 -86.347656 L 6.292969 -86.347656 L 6.292969 -84.746094 C 9.992188 -83.636719 11.226562 -80.796875 11.226562 -70.683594 L 11.226562 -15.667969 C 11.226562 -5.550781 9.992188 -2.714844 6.292969 -1.605469 Z M 21.339844 -36.019531 L 21.339844 -84.253906 C 22.820312 -84.375 24.792969 -84.5 26.523438 -84.5 C 46.382812 -84.5 54.152344 -72.410156 54.152344 -59.210938 C 54.152344 -44.65625 45.640625 -36.019531 29.851562 -36.019531 Z M 21.339844 -36.019531 "/></g></g></g><g fill="#000000" fill-opacity="1"><g transform="translate(32.617284, 115.226035)"><g><path d="M 6.292969 0 L 26.273438 0 L 26.273438 -1.605469 C 22.449219 -2.714844 21.339844 -5.550781 21.339844 -15.667969 L 21.339844 -34.167969 L 30.097656 -34.167969 C 53.042969 -34.167969 65.007812 -45.640625 65.007812 -62.046875 C 65.007812 -74.011719 56.867188 -86.347656 31.332031 -86.347656 L 6.292969 -86.347656 L 6.292969 -84.746094 C 9.992188 -83.636719 11.226562 -80.796875 11.226562 -70.683594 L 11.226562 -15.667969 C 11.226562 -5.550781 9.992188 -2.714844 6.292969 -1.605469 Z M 21.339844 -36.019531 L 21.339844 -84.253906 C 22.820312 -84.375 24.792969 -84.5 26.523438 -84.5 C 46.382812 -84.5 54.152344 -72.410156 54.152344 -59.210938 C 54.152344 -44.65625 45.640625 -36.019531 29.851562 -36.019531 Z M 21.339844 -36.019531 "/></g></g></g><g fill="#000000" fill-opacity="1"><g transform="translate(150.627569, 121.632734)"><g><path d="M 7.421875 -13.703125 C 8.867188 -13.703125 9.773438 -13.015625 10.140625 -11.640625 C 10.234375 -11.265625 10.28125 -10.859375 10.28125 -10.421875 C 10.28125 -8.359375 9.382812 -7.234375 7.59375 -7.046875 C 7.414062 -7.023438 7.25 -7.015625 7.09375 -7.015625 L 5.0625 -7.015625 L 5.0625 -13.703125 Z M 7.46875 0 C 7.46875 -0.351562 7.34375 -0.550781 7.09375 -0.59375 C 7.007812 -0.613281 6.925781 -0.625 6.84375 -0.625 L 5.0625 -0.625 L 5.0625 -6.328125 L 7.15625 -6.328125 C 9.75 -6.328125 11.46875 -7.070312 12.3125 -8.5625 C 12.632812 -9.132812 12.796875 -9.78125 12.796875 -10.5 C 12.796875 -12.0625 12.109375 -13.164062 10.734375 -13.8125 C 10.003906 -14.144531 9.128906 -14.3125 8.109375 -14.3125 L 0.859375 -14.3125 L 0.859375 -13.703125 L 2.765625 -13.703125 L 2.765625 -0.625 L 0.859375 -0.625 L 0.859375 0 Z M 7.46875 0 "/></g></g></g><g fill="#000000" fill-opacity="1"><g transform="translate(164.033819, 121.632734)"><g><path d="M 5.65625 -0.59375 L 4.53125 -0.59375 L 4.53125 -10.171875 L 0.6875 -10.171875 L 0.6875 -9.5625 L 2.5 -9.5625 L 2.5 -2 C 2.5 -1.269531 2.253906 -0.832031 1.765625 -0.6875 C 1.523438 -0.625 1.164062 -0.59375 0.6875 -0.59375 L 0.6875 0 L 6.25 0 C 6.25 -0.351562 6.128906 -0.546875 5.890625 -0.578125 C 5.828125 -0.585938 5.75 -0.59375 5.65625 -0.59375 Z M 4.796875 -13.578125 C 4.796875 -14.148438 4.539062 -14.570312 4.03125 -14.84375 C 3.820312 -14.9375 3.613281 -14.984375 3.40625 -14.984375 C 2.820312 -14.984375 2.398438 -14.722656 2.140625 -14.203125 C 2.046875 -13.992188 2 -13.785156 2 -13.578125 C 2 -12.972656 2.269531 -12.546875 2.8125 -12.296875 C 3.007812 -12.210938 3.207031 -12.171875 3.40625 -12.171875 C 3.976562 -12.171875 4.394531 -12.429688 4.65625 -12.953125 C 4.75 -13.160156 4.796875 -13.367188 4.796875 -13.578125 Z M 4.796875 -13.578125 "/></g></g></g><g fill="#000000" fill-opacity="1"><g transform="translate(170.951635, 121.632734)"><g><path d="M 5.96875 -9.828125 C 7.050781 -9.828125 7.75 -9.335938 8.0625 -8.359375 C 8.15625 -8.054688 8.203125 -7.734375 8.203125 -7.390625 C 8.203125 -6.617188 7.851562 -6.144531 7.15625 -5.96875 C 6.757812 -5.875 6.210938 -5.832031 5.515625 -5.84375 L 3.171875 -5.921875 C 3.234375 -7.796875 3.804688 -9.007812 4.890625 -9.5625 C 5.222656 -9.738281 5.582031 -9.828125 5.96875 -9.828125 Z M 10.1875 -2.3125 L 9.59375 -2.53125 C 9.082031 -1.414062 8.269531 -0.738281 7.15625 -0.5 C 6.90625 -0.445312 6.660156 -0.421875 6.421875 -0.421875 C 4.734375 -0.421875 3.695312 -1.488281 3.3125 -3.625 C 3.238281 -4.125 3.191406 -4.664062 3.171875 -5.25 L 5.921875 -5.203125 C 7.953125 -5.171875 9.25 -5.378906 9.8125 -5.828125 C 10.175781 -6.140625 10.359375 -6.566406 10.359375 -7.109375 C 10.359375 -8.242188 9.785156 -9.132812 8.640625 -9.78125 C 7.847656 -10.207031 6.941406 -10.421875 5.921875 -10.421875 C 3.992188 -10.421875 2.578125 -9.648438 1.671875 -8.109375 C 1.160156 -7.222656 0.90625 -6.195312 0.90625 -5.03125 C 0.90625 -3 1.644531 -1.503906 3.125 -0.546875 C 3.96875 -0.0234375 4.921875 0.234375 5.984375 0.234375 C 7.765625 0.234375 9.0625 -0.40625 9.875 -1.6875 C 9.988281 -1.894531 10.09375 -2.101562 10.1875 -2.3125 Z M 10.1875 -2.3125 "/></g></g></g><g fill="#000000" fill-opacity="1"><g transform="translate(182.06785, 121.632734)"><g><path d="M 0.453125 -9.546875 L 2.125 -9.546875 L 2.125 -2.953125 C 2.238281 -0.867188 3.203125 0.203125 5.015625 0.265625 C 6.503906 0.265625 7.429688 -0.632812 7.796875 -2.4375 C 7.796875 -2.445312 7.796875 -2.460938 7.796875 -2.484375 L 7.15625 -2.59375 C 6.820312 -1.1875 6.25 -0.472656 5.4375 -0.453125 C 4.59375 -0.484375 4.164062 -1.097656 4.15625 -2.296875 L 4.15625 -9.546875 L 7.75 -9.546875 L 7.75 -10.140625 L 4.15625 -10.140625 L 4.15625 -12.90625 L 2.125 -12.40625 L 2.125 -10.140625 L 0.453125 -10.140625 Z M 0.453125 -9.546875 "/></g></g></g><g fill="#000000" fill-opacity="1"><g transform="translate(189.987556, 121.632734)"><g><path d="M 6.1875 -0.59375 L 4.46875 -0.59375 L 4.46875 -5.84375 C 4.570312 -7.21875 5.03125 -8.242188 5.84375 -8.921875 C 6.113281 -9.148438 6.34375 -9.265625 6.53125 -9.265625 C 6.769531 -9.265625 7.003906 -9.0625 7.234375 -8.65625 C 7.484375 -8.21875 7.738281 -7.957031 8 -7.875 C 8.101562 -7.84375 8.210938 -7.828125 8.328125 -7.828125 C 8.847656 -7.828125 9.191406 -8.070312 9.359375 -8.5625 C 9.390625 -8.695312 9.40625 -8.816406 9.40625 -8.921875 C 9.40625 -9.648438 9.039062 -10.097656 8.3125 -10.265625 C 8.144531 -10.296875 7.972656 -10.3125 7.796875 -10.3125 C 6.816406 -10.3125 5.941406 -9.894531 5.171875 -9.0625 C 4.859375 -8.71875 4.609375 -8.320312 4.421875 -7.875 L 4.3125 -10.171875 L 0.71875 -10.171875 L 0.71875 -9.5625 L 2.40625 -9.5625 L 2.40625 -2 C 2.40625 -1.269531 2.191406 -0.832031 1.765625 -0.6875 C 1.546875 -0.625 1.195312 -0.59375 0.71875 -0.59375 L 0.71875 0 L 6.78125 0 C 6.78125 -0.351562 6.660156 -0.546875 6.421875 -0.578125 C 6.359375 -0.585938 6.28125 -0.59375 6.1875 -0.59375 Z M 6.1875 -0.59375 "/></g></g></g><g fill="#000000" fill-opacity="1"><g transform="translate(199.505517, 121.632734)"><g><path d="M 3.171875 -5.109375 C 3.191406 -8.242188 4.179688 -9.816406 6.140625 -9.828125 C 8.085938 -9.796875 9.070312 -8.253906 9.09375 -5.203125 C 9.070312 -1.984375 8.101562 -0.367188 6.1875 -0.359375 C 4.195312 -0.390625 3.191406 -1.972656 3.171875 -5.109375 Z M 6.203125 -10.421875 C 4.597656 -10.421875 3.28125 -9.875 2.25 -8.78125 C 1.351562 -7.8125 0.90625 -6.617188 0.90625 -5.203125 C 0.90625 -3.265625 1.601562 -1.785156 3 -0.765625 C 3.925781 -0.0976562 4.960938 0.234375 6.109375 0.234375 C 7.679688 0.234375 8.976562 -0.320312 10 -1.4375 C 10.925781 -2.4375 11.390625 -3.664062 11.390625 -5.125 C 11.390625 -7.070312 10.671875 -8.535156 9.234375 -9.515625 C 8.347656 -10.117188 7.335938 -10.421875 6.203125 -10.421875 Z M 6.203125 -10.421875 "/></g></g></g><g fill="#000000" fill-opacity="1"><g transform="translate(211.790604, 121.632734)"><g/></g></g><g fill="#000000" fill-opacity="1"><g transform="translate(216.442239, 121.632734)"><g><path d="M 18.6875 -14.3125 L 14.609375 -14.3125 L 9.640625 -2.9375 L 4.203125 -14.3125 L 0.625 -14.3125 L 0.625 -13.703125 L 2.53125 -13.703125 L 2.53125 -0.625 L 0.625 -0.625 L 0.625 0 L 5.390625 0 C 5.390625 -0.351562 5.265625 -0.550781 5.015625 -0.59375 C 4.929688 -0.613281 4.847656 -0.625 4.765625 -0.625 L 3.484375 -0.625 L 3.484375 -10.640625 L 8.6875 0.140625 L 9.1875 0.140625 L 14.609375 -12.09375 L 14.609375 -0.625 L 12.703125 -0.625 L 12.703125 0 L 18.6875 0 C 18.6875 -0.351562 18.554688 -0.550781 18.296875 -0.59375 C 18.222656 -0.613281 18.144531 -0.625 18.0625 -0.625 L 16.78125 -0.625 L 16.78125 -13.703125 L 18.6875 -13.703125 Z M 18.6875 -14.3125 "/></g></g></g><g fill="#000000" fill-opacity="1"><g transform="translate(235.74056, 121.632734)"><g><path d="M 9.3125 0.234375 C 10.457031 0.234375 11.140625 -0.335938 11.359375 -1.484375 C 11.390625 -1.722656 11.414062 -1.976562 11.4375 -2.25 L 10.8125 -2.265625 C 10.695312 -1.117188 10.394531 -0.539062 9.90625 -0.53125 C 9.507812 -0.5625 9.300781 -0.960938 9.28125 -1.734375 L 9.28125 -6.78125 C 9.25 -9.195312 7.9375 -10.410156 5.34375 -10.421875 C 3.5 -10.421875 2.273438 -10.003906 1.671875 -9.171875 C 1.484375 -8.898438 1.390625 -8.628906 1.390625 -8.359375 C 1.390625 -7.847656 1.625 -7.535156 2.09375 -7.421875 C 2.207031 -7.398438 2.3125 -7.390625 2.40625 -7.390625 C 2.84375 -7.390625 3.15625 -7.644531 3.34375 -8.15625 C 3.5625 -8.78125 3.695312 -9.132812 3.75 -9.21875 C 4.050781 -9.625 4.503906 -9.828125 5.109375 -9.828125 C 6.523438 -9.796875 7.238281 -8.96875 7.25 -7.34375 L 7.25 -5.84375 C 3.289062 -5.832031 1.144531 -4.921875 0.8125 -3.109375 C 0.78125 -2.929688 0.765625 -2.738281 0.765625 -2.53125 C 0.765625 -1.269531 1.3125 -0.425781 2.40625 0 C 2.820312 0.15625 3.269531 0.234375 3.75 0.234375 C 4.90625 0.234375 5.867188 -0.160156 6.640625 -0.953125 C 6.921875 -1.253906 7.132812 -1.582031 7.28125 -1.9375 C 7.488281 -0.5 8.164062 0.222656 9.3125 0.234375 Z M 4.625 -0.734375 C 3.625 -0.734375 3.050781 -1.289062 2.90625 -2.40625 C 2.894531 -2.570312 2.890625 -2.738281 2.890625 -2.90625 C 2.890625 -3.976562 3.476562 -4.65625 4.65625 -4.9375 C 5.269531 -5.082031 6.132812 -5.160156 7.25 -5.171875 L 7.25 -3.203125 C 6.976562 -2.097656 6.40625 -1.34375 5.53125 -0.9375 C 5.21875 -0.800781 4.914062 -0.734375 4.625 -0.734375 Z M 4.625 -0.734375 "/></g></g></g><g fill="#000000" fill-opacity="1"><g transform="translate(247.286157, 121.632734)"><g><path d="M 6.1875 -0.59375 L 4.46875 -0.59375 L 4.46875 -5.84375 C 4.570312 -7.21875 5.03125 -8.242188 5.84375 -8.921875 C 6.113281 -9.148438 6.34375 -9.265625 6.53125 -9.265625 C 6.769531 -9.265625 7.003906 -9.0625 7.234375 -8.65625 C 7.484375 -8.21875 7.738281 -7.957031 8 -7.875 C 8.101562 -7.84375 8.210938 -7.828125 8.328125 -7.828125 C 8.847656 -7.828125 9.191406 -8.070312 9.359375 -8.5625 C 9.390625 -8.695312 9.40625 -8.816406 9.40625 -8.921875 C 9.40625 -9.648438 9.039062 -10.097656 8.3125 -10.265625 C 8.144531 -10.296875 7.972656 -10.3125 7.796875 -10.3125 C 6.816406 -10.3125 5.941406 -9.894531 5.171875 -9.0625 C 4.859375 -8.71875 4.609375 -8.320312 4.421875 -7.875 L 4.3125 -10.171875 L 0.71875 -10.171875 L 0.71875 -9.5625 L 2.40625 -9.5625 L 2.40625 -2 C 2.40625 -1.269531 2.191406 -0.832031 1.765625 -0.6875 C 1.546875 -0.625 1.195312 -0.59375 0.71875 -0.59375 L 0.71875 0 L 6.78125 0 C 6.78125 -0.351562 6.660156 -0.546875 6.421875 -0.578125 C 6.359375 -0.585938 6.28125 -0.59375 6.1875 -0.59375 Z M 6.1875 -0.59375 "/></g></g></g><g fill="#000000" fill-opacity="1"><g transform="translate(256.804117, 121.632734)"><g><path d="M 5.65625 -0.59375 L 4.53125 -0.59375 L 4.53125 -10.171875 L 0.6875 -10.171875 L 0.6875 -9.5625 L 2.5 -9.5625 L 2.5 -2 C 2.5 -1.269531 2.253906 -0.832031 1.765625 -0.6875 C 1.523438 -0.625 1.164062 -0.59375 0.6875 -0.59375 L 0.6875 0 L 6.25 0 C 6.25 -0.351562 6.128906 -0.546875 5.890625 -0.578125 C 5.828125 -0.585938 5.75 -0.59375 5.65625 -0.59375 Z M 4.796875 -13.578125 C 4.796875 -14.148438 4.539062 -14.570312 4.03125 -14.84375 C 3.820312 -14.9375 3.613281 -14.984375 3.40625 -14.984375 C 2.820312 -14.984375 2.398438 -14.722656 2.140625 -14.203125 C 2.046875 -13.992188 2 -13.785156 2 -13.578125 C 2 -12.972656 2.269531 -12.546875 2.8125 -12.296875 C 3.007812 -12.210938 3.207031 -12.171875 3.40625 -12.171875 C 3.976562 -12.171875 4.394531 -12.429688 4.65625 -12.953125 C 4.75 -13.160156 4.796875 -13.367188 4.796875 -13.578125 Z M 4.796875 -13.578125 "/></g></g></g><g fill="#000000" fill-opacity="1"><g transform="translate(263.721934, 121.632734)"><g><path d="M 9.3125 0.234375 C 10.457031 0.234375 11.140625 -0.335938 11.359375 -1.484375 C 11.390625 -1.722656 11.414062 -1.976562 11.4375 -2.25 L 10.8125 -2.265625 C 10.695312 -1.117188 10.394531 -0.539062 9.90625 -0.53125 C 9.507812 -0.5625 9.300781 -0.960938 9.28125 -1.734375 L 9.28125 -6.78125 C 9.25 -9.195312 7.9375 -10.410156 5.34375 -10.421875 C 3.5 -10.421875 2.273438 -10.003906 1.671875 -9.171875 C 1.484375 -8.898438 1.390625 -8.628906 1.390625 -8.359375 C 1.390625 -7.847656 1.625 -7.535156 2.09375 -7.421875 C 2.207031 -7.398438 2.3125 -7.390625 2.40625 -7.390625 C 2.84375 -7.390625 3.15625 -7.644531 3.34375 -8.15625 C 3.5625 -8.78125 3.695312 -9.132812 3.75 -9.21875 C 4.050781 -9.625 4.503906 -9.828125 5.109375 -9.828125 C 6.523438 -9.796875 7.238281 -8.96875 7.25 -7.34375 L 7.25 -5.84375 C 3.289062 -5.832031 1.144531 -4.921875 0.8125 -3.109375 C 0.78125 -2.929688 0.765625 -2.738281 0.765625 -2.53125 C 0.765625 -1.269531 1.3125 -0.425781 2.40625 0 C 2.820312 0.15625 3.269531 0.234375 3.75 0.234375 C 4.90625 0.234375 5.867188 -0.160156 6.640625 -0.953125 C 6.921875 -1.253906 7.132812 -1.582031 7.28125 -1.9375 C 7.488281 -0.5 8.164062 0.222656 9.3125 0.234375 Z M 4.625 -0.734375 C 3.625 -0.734375 3.050781 -1.289062 2.90625 -2.40625 C 2.894531 -2.570312 2.890625 -2.738281 2.890625 -2.90625 C 2.890625 -3.976562 3.476562 -4.65625 4.65625 -4.9375 C 5.269531 -5.082031 6.132812 -5.160156 7.25 -5.171875 L 7.25 -3.203125 C 6.976562 -2.097656 6.40625 -1.34375 5.53125 -0.9375 C 5.21875 -0.800781 4.914062 -0.734375 4.625 -0.734375 Z M 4.625 -0.734375 "/></g></g></g><g fill="#000000" fill-opacity="1"><g transform="translate(275.26753, 121.632734)"><g/></g></g><g fill="#000000" fill-opacity="1"><g transform="translate(279.919165, 121.632734)"><g><path d="M 11.734375 -3.796875 C 11.734375 -5.191406 10.972656 -6.328125 9.453125 -7.203125 C 9.191406 -7.367188 8.285156 -7.800781 6.734375 -8.5 C 5.328125 -9.113281 4.441406 -9.75 4.078125 -10.40625 C 3.898438 -10.757812 3.8125 -11.125 3.8125 -11.5 C 3.8125 -12.519531 4.304688 -13.226562 5.296875 -13.625 C 5.722656 -13.800781 6.191406 -13.890625 6.703125 -13.890625 C 8.023438 -13.890625 9.03125 -13.4375 9.71875 -12.53125 C 10.1875 -11.90625 10.414062 -11.140625 10.40625 -10.234375 L 11.171875 -10.234375 L 11.171875 -14.4375 C 10.753906 -14.4375 10.523438 -14.300781 10.484375 -14.03125 C 10.441406 -13.914062 10.421875 -13.78125 10.421875 -13.625 C 9.242188 -14.25 7.945312 -14.5625 6.53125 -14.5625 C 4.800781 -14.5625 3.453125 -14.082031 2.484375 -13.125 C 1.828125 -12.46875 1.5 -11.6875 1.5 -10.78125 C 1.5 -9.445312 2.238281 -8.359375 3.71875 -7.515625 C 3.988281 -7.359375 4.894531 -6.929688 6.4375 -6.234375 C 7.851562 -5.597656 8.753906 -4.941406 9.140625 -4.265625 C 9.328125 -3.921875 9.421875 -3.539062 9.421875 -3.125 C 9.421875 -2.007812 8.894531 -1.210938 7.84375 -0.734375 C 7.351562 -0.523438 6.816406 -0.421875 6.234375 -0.421875 C 3.921875 -0.421875 2.582031 -1.753906 2.21875 -4.421875 C 2.207031 -4.585938 2.191406 -4.753906 2.171875 -4.921875 L 1.40625 -4.921875 L 1.40625 0.046875 C 1.789062 0.046875 2.019531 -0.0625 2.09375 -0.28125 C 2.125 -0.425781 2.140625 -0.660156 2.140625 -0.984375 C 3.367188 -0.171875 4.78125 0.234375 6.375 0.234375 C 8.21875 0.234375 9.648438 -0.253906 10.671875 -1.234375 C 11.378906 -1.953125 11.734375 -2.804688 11.734375 -3.796875 Z M 11.734375 -3.796875 "/></g></g></g><g fill="#000000" fill-opacity="1"><g transform="translate(292.800615, 121.632734)"><g><path d="M 9.3125 0.234375 C 10.457031 0.234375 11.140625 -0.335938 11.359375 -1.484375 C 11.390625 -1.722656 11.414062 -1.976562 11.4375 -2.25 L 10.8125 -2.265625 C 10.695312 -1.117188 10.394531 -0.539062 9.90625 -0.53125 C 9.507812 -0.5625 9.300781 -0.960938 9.28125 -1.734375 L 9.28125 -6.78125 C 9.25 -9.195312 7.9375 -10.410156 5.34375 -10.421875 C 3.5 -10.421875 2.273438 -10.003906 1.671875 -9.171875 C 1.484375 -8.898438 1.390625 -8.628906 1.390625 -8.359375 C 1.390625 -7.847656 1.625 -7.535156 2.09375 -7.421875 C 2.207031 -7.398438 2.3125 -7.390625 2.40625 -7.390625 C 2.84375 -7.390625 3.15625 -7.644531 3.34375 -8.15625 C 3.5625 -8.78125 3.695312 -9.132812 3.75 -9.21875 C 4.050781 -9.625 4.503906 -9.828125 5.109375 -9.828125 C 6.523438 -9.796875 7.238281 -8.96875 7.25 -7.34375 L 7.25 -5.84375 C 3.289062 -5.832031 1.144531 -4.921875 0.8125 -3.109375 C 0.78125 -2.929688 0.765625 -2.738281 0.765625 -2.53125 C 0.765625 -1.269531 1.3125 -0.425781 2.40625 0 C 2.820312 0.15625 3.269531 0.234375 3.75 0.234375 C 4.90625 0.234375 5.867188 -0.160156 6.640625 -0.953125 C 6.921875 -1.253906 7.132812 -1.582031 7.28125 -1.9375 C 7.488281 -0.5 8.164062 0.222656 9.3125 0.234375 Z M 4.625 -0.734375 C 3.625 -0.734375 3.050781 -1.289062 2.90625 -2.40625 C 2.894531 -2.570312 2.890625 -2.738281 2.890625 -2.90625 C 2.890625 -3.976562 3.476562 -4.65625 4.65625 -4.9375 C 5.269531 -5.082031 6.132812 -5.160156 7.25 -5.171875 L 7.25 -3.203125 C 6.976562 -2.097656 6.40625 -1.34375 5.53125 -0.9375 C 5.21875 -0.800781 4.914062 -0.734375 4.625 -0.734375 Z M 4.625 -0.734375 "/></g></g></g><g fill="#000000" fill-opacity="1"><g transform="translate(304.346212, 121.632734)"><g><path d="M 5.390625 -0.59375 L 4.421875 -0.59375 L 4.421875 -5.84375 C 4.453125 -7.289062 4.941406 -8.332031 5.890625 -8.96875 C 6.304688 -9.226562 6.722656 -9.359375 7.140625 -9.359375 C 8.109375 -9.359375 8.75 -8.894531 9.0625 -7.96875 C 9.175781 -7.625 9.234375 -7.242188 9.234375 -6.828125 L 9.234375 -2 C 9.234375 -1.289062 9.023438 -0.863281 8.609375 -0.71875 C 8.390625 -0.632812 8.050781 -0.59375 7.59375 -0.59375 L 7.59375 0 L 12.984375 0 C 12.984375 -0.351562 12.863281 -0.546875 12.625 -0.578125 C 12.5625 -0.585938 12.484375 -0.59375 12.390625 -0.59375 L 11.265625 -0.59375 L 11.265625 -6.5625 C 11.265625 -8.226562 10.691406 -9.378906 9.546875 -10.015625 C 9.054688 -10.285156 8.53125 -10.421875 7.96875 -10.421875 C 6.789062 -10.421875 5.8125 -9.945312 5.03125 -9 C 4.757812 -8.675781 4.546875 -8.316406 4.390625 -7.921875 L 4.296875 -10.171875 L 0.671875 -10.171875 L 0.671875 -9.5625 L 2.390625 -9.5625 L 2.390625 -2 C 2.390625 -1.269531 2.164062 -0.832031 1.71875 -0.6875 C 1.476562 -0.625 1.128906 -0.59375 0.671875 -0.59375 L 0.671875 0 L 5.984375 0 C 5.984375 -0.351562 5.863281 -0.546875 5.625 -0.578125 C 5.5625 -0.585938 5.484375 -0.59375 5.390625 -0.59375 Z M 5.390625 -0.59375 "/></g></g></g><g fill="#000000" fill-opacity="1"><g transform="translate(317.871735, 121.632734)"><g><path d="M 3.296875 -6.609375 C 3.296875 -8.597656 3.929688 -9.664062 5.203125 -9.8125 C 5.316406 -9.820312 5.425781 -9.828125 5.53125 -9.828125 C 6.84375 -9.828125 7.578125 -9.015625 7.734375 -7.390625 C 7.742188 -7.160156 7.75 -6.898438 7.75 -6.609375 C 7.613281 -4.503906 6.875 -3.40625 5.53125 -3.3125 C 4.132812 -3.3125 3.390625 -4.269531 3.296875 -6.1875 C 3.296875 -6.320312 3.296875 -6.460938 3.296875 -6.609375 Z M 5.5625 -10.421875 C 4.03125 -10.421875 2.84375 -9.929688 2 -8.953125 C 1.445312 -8.285156 1.171875 -7.503906 1.171875 -6.609375 C 1.171875 -5.421875 1.742188 -4.421875 2.890625 -3.609375 C 3.035156 -3.503906 3.171875 -3.414062 3.296875 -3.34375 C 2.304688 -3.34375 1.671875 -2.910156 1.390625 -2.046875 C 1.316406 -1.828125 1.28125 -1.597656 1.28125 -1.359375 C 1.300781 -0.515625 1.640625 0.113281 2.296875 0.53125 C 1.785156 1.082031 1.53125 1.628906 1.53125 2.171875 C 1.53125 3.046875 2.054688 3.695312 3.109375 4.125 C 3.785156 4.414062 4.609375 4.5625 5.578125 4.5625 C 8.035156 4.5625 9.648438 3.972656 10.421875 2.796875 C 10.679688 2.398438 10.8125 1.976562 10.8125 1.53125 C 10.8125 0.113281 10.007812 -0.695312 8.40625 -0.90625 C 8.195312 -0.9375 7.976562 -0.953125 7.75 -0.953125 L 3.296875 -1.046875 C 2.609375 -1.097656 2.257812 -1.398438 2.25 -1.953125 C 2.25 -2.347656 2.484375 -2.597656 2.953125 -2.703125 C 3.066406 -2.734375 3.1875 -2.75 3.3125 -2.75 L 5.4375 -2.71875 L 5.515625 -2.71875 C 6.972656 -2.71875 8.132812 -3.210938 9 -4.203125 C 9.582031 -4.898438 9.875 -5.710938 9.875 -6.640625 C 9.863281 -7.828125 9.410156 -8.769531 8.515625 -9.46875 C 8.753906 -10.03125 9.085938 -10.332031 9.515625 -10.375 C 9.742188 -10.375 9.992188 -10.25 10.265625 -10 C 10.441406 -9.84375 10.609375 -9.765625 10.765625 -9.765625 C 11.160156 -9.765625 11.398438 -9.960938 11.484375 -10.359375 C 11.492188 -10.441406 11.5 -10.503906 11.5 -10.546875 C 11.5 -11.066406 11.242188 -11.425781 10.734375 -11.625 C 10.566406 -11.6875 10.382812 -11.71875 10.1875 -11.71875 C 9.4375 -11.71875 8.832031 -11.359375 8.375 -10.640625 C 8.195312 -10.390625 8.070312 -10.117188 8 -9.828125 C 7.257812 -10.222656 6.445312 -10.421875 5.5625 -10.421875 Z M 5.578125 3.9375 C 3.960938 3.9375 2.9375 3.53125 2.5 2.71875 C 2.394531 2.5 2.34375 2.273438 2.34375 2.046875 C 2.351562 1.640625 2.523438 1.226562 2.859375 0.8125 C 3.148438 0.894531 3.429688 0.9375 3.703125 0.9375 L 7.609375 0.984375 C 8.722656 0.992188 9.375 1.222656 9.5625 1.671875 C 9.632812 1.828125 9.671875 1.992188 9.671875 2.171875 C 9.671875 2.890625 9.007812 3.40625 7.6875 3.71875 C 7.050781 3.863281 6.347656 3.9375 5.578125 3.9375 Z M 5.578125 3.9375 "/></g></g></g><g fill="#000000" fill-opacity="1"><g transform="translate(329.46504, 121.632734)"><g><path d="M 12.3125 -0.59375 L 11.1875 -0.59375 L 11.1875 -10.171875 L 7.34375 -10.171875 L 7.34375 -9.5625 L 9.140625 -9.5625 L 9.140625 -4.25 C 9.117188 -2.84375 8.625 -1.832031 7.65625 -1.21875 C 7.257812 -0.957031 6.847656 -0.828125 6.421875 -0.828125 C 5.179688 -0.828125 4.472656 -1.5 4.296875 -2.84375 C 4.265625 -3.050781 4.25 -3.253906 4.25 -3.453125 L 4.25 -10.171875 L 0.453125 -10.171875 L 0.453125 -9.5625 L 2.203125 -9.5625 L 2.203125 -3.8125 C 2.210938 -1.125 3.347656 0.222656 5.609375 0.234375 C 6.816406 0.234375 7.800781 -0.253906 8.5625 -1.234375 C 8.820312 -1.566406 9.03125 -1.9375 9.1875 -2.34375 L 9.359375 0 L 12.890625 0 C 12.890625 -0.332031 12.785156 -0.523438 12.578125 -0.578125 C 12.492188 -0.585938 12.40625 -0.59375 12.3125 -0.59375 Z M 12.3125 -0.59375 "/></g></g></g><g fill="#000000" fill-opacity="1"><g transform="translate(342.966709, 121.632734)"><g><path d="M 5.65625 -0.59375 L 4.53125 -0.59375 L 4.53125 -10.171875 L 0.6875 -10.171875 L 0.6875 -9.5625 L 2.5 -9.5625 L 2.5 -2 C 2.5 -1.269531 2.253906 -0.832031 1.765625 -0.6875 C 1.523438 -0.625 1.164062 -0.59375 0.6875 -0.59375 L 0.6875 0 L 6.25 0 C 6.25 -0.351562 6.128906 -0.546875 5.890625 -0.578125 C 5.828125 -0.585938 5.75 -0.59375 5.65625 -0.59375 Z M 4.796875 -13.578125 C 4.796875 -14.148438 4.539062 -14.570312 4.03125 -14.84375 C 3.820312 -14.9375 3.613281 -14.984375 3.40625 -14.984375 C 2.820312 -14.984375 2.398438 -14.722656 2.140625 -14.203125 C 2.046875 -13.992188 2 -13.785156 2 -13.578125 C 2 -12.972656 2.269531 -12.546875 2.8125 -12.296875 C 3.007812 -12.210938 3.207031 -12.171875 3.40625 -12.171875 C 3.976562 -12.171875 4.394531 -12.429688 4.65625 -12.953125 C 4.75 -13.160156 4.796875 -13.367188 4.796875 -13.578125 Z M 4.796875 -13.578125 "/></g></g></g><g fill="#000000" fill-opacity="1"><g transform="translate(349.884525, 121.632734)"><g><path d="M 5.390625 -0.59375 L 4.421875 -0.59375 L 4.421875 -5.84375 C 4.453125 -7.289062 4.941406 -8.332031 5.890625 -8.96875 C 6.304688 -9.226562 6.722656 -9.359375 7.140625 -9.359375 C 8.109375 -9.359375 8.75 -8.894531 9.0625 -7.96875 C 9.175781 -7.625 9.234375 -7.242188 9.234375 -6.828125 L 9.234375 -2 C 9.234375 -1.289062 9.023438 -0.863281 8.609375 -0.71875 C 8.390625 -0.632812 8.050781 -0.59375 7.59375 -0.59375 L 7.59375 0 L 12.984375 0 C 12.984375 -0.351562 12.863281 -0.546875 12.625 -0.578125 C 12.5625 -0.585938 12.484375 -0.59375 12.390625 -0.59375 L 11.265625 -0.59375 L 11.265625 -6.5625 C 11.265625 -8.226562 10.691406 -9.378906 9.546875 -10.015625 C 9.054688 -10.285156 8.53125 -10.421875 7.96875 -10.421875 C 6.789062 -10.421875 5.8125 -9.945312 5.03125 -9 C 4.757812 -8.675781 4.546875 -8.316406 4.390625 -7.921875 L 4.296875 -10.171875 L 0.671875 -10.171875 L 0.671875 -9.5625 L 2.390625 -9.5625 L 2.390625 -2 C 2.390625 -1.269531 2.164062 -0.832031 1.71875 -0.6875 C 1.476562 -0.625 1.128906 -0.59375 0.671875 -0.59375 L 0.671875 0 L 5.984375 0 C 5.984375 -0.351562 5.863281 -0.546875 5.625 -0.578125 C 5.5625 -0.585938 5.484375 -0.59375 5.390625 -0.59375 Z M 5.390625 -0.59375 "/></g></g></g><g fill="#000000" fill-opacity="1"><g transform="translate(187.822058, 152.942811)"><g><path d="M 0.859375 -14.3125 L 0.859375 -13.703125 L 2.765625 -13.703125 L 2.765625 -0.625 L 0.859375 -0.625 L 0.859375 0 L 7.546875 0 C 9.722656 0 11.507812 -0.675781 12.90625 -2.03125 C 14.257812 -3.351562 14.9375 -5.0625 14.9375 -7.15625 C 14.9375 -9.875 13.9375 -11.875 11.9375 -13.15625 C 10.695312 -13.925781 9.25 -14.3125 7.59375 -14.3125 Z M 7.546875 -13.703125 C 9.910156 -13.703125 11.40625 -12.585938 12.03125 -10.359375 C 12.269531 -9.484375 12.390625 -8.445312 12.390625 -7.25 C 12.367188 -2.84375 10.769531 -0.632812 7.59375 -0.625 L 5.0625 -0.625 L 5.0625 -13.703125 Z M 7.546875 -13.703125 "/></g></g></g><g fill="#000000" fill-opacity="1"><g transform="translate(203.97158, 152.942811)"><g><path d="M 9.3125 0.234375 C 10.457031 0.234375 11.140625 -0.335938 11.359375 -1.484375 C 11.390625 -1.722656 11.414062 -1.976562 11.4375 -2.25 L 10.8125 -2.265625 C 10.695312 -1.117188 10.394531 -0.539062 9.90625 -0.53125 C 9.507812 -0.5625 9.300781 -0.960938 9.28125 -1.734375 L 9.28125 -6.78125 C 9.25 -9.195312 7.9375 -10.410156 5.34375 -10.421875 C 3.5 -10.421875 2.273438 -10.003906 1.671875 -9.171875 C 1.484375 -8.898438 1.390625 -8.628906 1.390625 -8.359375 C 1.390625 -7.847656 1.625 -7.535156 2.09375 -7.421875 C 2.207031 -7.398438 2.3125 -7.390625 2.40625 -7.390625 C 2.84375 -7.390625 3.15625 -7.644531 3.34375 -8.15625 C 3.5625 -8.78125 3.695312 -9.132812 3.75 -9.21875 C 4.050781 -9.625 4.503906 -9.828125 5.109375 -9.828125 C 6.523438 -9.796875 7.238281 -8.96875 7.25 -7.34375 L 7.25 -5.84375 C 3.289062 -5.832031 1.144531 -4.921875 0.8125 -3.109375 C 0.78125 -2.929688 0.765625 -2.738281 0.765625 -2.53125 C 0.765625 -1.269531 1.3125 -0.425781 2.40625 0 C 2.820312 0.15625 3.269531 0.234375 3.75 0.234375 C 4.90625 0.234375 5.867188 -0.160156 6.640625 -0.953125 C 6.921875 -1.253906 7.132812 -1.582031 7.28125 -1.9375 C 7.488281 -0.5 8.164062 0.222656 9.3125 0.234375 Z M 4.625 -0.734375 C 3.625 -0.734375 3.050781 -1.289062 2.90625 -2.40625 C 2.894531 -2.570312 2.890625 -2.738281 2.890625 -2.90625 C 2.890625 -3.976562 3.476562 -4.65625 4.65625 -4.9375 C 5.269531 -5.082031 6.132812 -5.160156 7.25 -5.171875 L 7.25 -3.203125 C 6.976562 -2.097656 6.40625 -1.34375 5.53125 -0.9375 C 5.21875 -0.800781 4.914062 -0.734375 4.625 -0.734375 Z M 4.625 -0.734375 "/></g></g></g><g fill="#000000" fill-opacity="1"><g transform="translate(215.517177, 152.942811)"><g><path d="M 0.453125 -9.546875 L 2.125 -9.546875 L 2.125 -2.953125 C 2.238281 -0.867188 3.203125 0.203125 5.015625 0.265625 C 6.503906 0.265625 7.429688 -0.632812 7.796875 -2.4375 C 7.796875 -2.445312 7.796875 -2.460938 7.796875 -2.484375 L 7.15625 -2.59375 C 6.820312 -1.1875 6.25 -0.472656 5.4375 -0.453125 C 4.59375 -0.484375 4.164062 -1.097656 4.15625 -2.296875 L 4.15625 -9.546875 L 7.75 -9.546875 L 7.75 -10.140625 L 4.15625 -10.140625 L 4.15625 -12.90625 L 2.125 -12.40625 L 2.125 -10.140625 L 0.453125 -10.140625 Z M 0.453125 -9.546875 "/></g></g></g><g fill="#000000" fill-opacity="1"><g transform="translate(223.436883, 152.942811)"><g><path d="M 9.3125 0.234375 C 10.457031 0.234375 11.140625 -0.335938 11.359375 -1.484375 C 11.390625 -1.722656 11.414062 -1.976562 11.4375 -2.25 L 10.8125 -2.265625 C 10.695312 -1.117188 10.394531 -0.539062 9.90625 -0.53125 C 9.507812 -0.5625 9.300781 -0.960938 9.28125 -1.734375 L 9.28125 -6.78125 C 9.25 -9.195312 7.9375 -10.410156 5.34375 -10.421875 C 3.5 -10.421875 2.273438 -10.003906 1.671875 -9.171875 C 1.484375 -8.898438 1.390625 -8.628906 1.390625 -8.359375 C 1.390625 -7.847656 1.625 -7.535156 2.09375 -7.421875 C 2.207031 -7.398438 2.3125 -7.390625 2.40625 -7.390625 C 2.84375 -7.390625 3.15625 -7.644531 3.34375 -8.15625 C 3.5625 -8.78125 3.695312 -9.132812 3.75 -9.21875 C 4.050781 -9.625 4.503906 -9.828125 5.109375 -9.828125 C 6.523438 -9.796875 7.238281 -8.96875 7.25 -7.34375 L 7.25 -5.84375 C 3.289062 -5.832031 1.144531 -4.921875 0.8125 -3.109375 C 0.78125 -2.929688 0.765625 -2.738281 0.765625 -2.53125 C 0.765625 -1.269531 1.3125 -0.425781 2.40625 0 C 2.820312 0.15625 3.269531 0.234375 3.75 0.234375 C 4.90625 0.234375 5.867188 -0.160156 6.640625 -0.953125 C 6.921875 -1.253906 7.132812 -1.582031 7.28125 -1.9375 C 7.488281 -0.5 8.164062 0.222656 9.3125 0.234375 Z M 4.625 -0.734375 C 3.625 -0.734375 3.050781 -1.289062 2.90625 -2.40625 C 2.894531 -2.570312 2.890625 -2.738281 2.890625 -2.90625 C 2.890625 -3.976562 3.476562 -4.65625 4.65625 -4.9375 C 5.269531 -5.082031 6.132812 -5.160156 7.25 -5.171875 L 7.25 -3.203125 C 6.976562 -2.097656 6.40625 -1.34375 5.53125 -0.9375 C 5.21875 -0.800781 4.914062 -0.734375 4.625 -0.734375 Z M 4.625 -0.734375 "/></g></g></g><g fill="#000000" fill-opacity="1"><g transform="translate(234.98248, 152.942811)"><g/></g></g><g fill="#000000" fill-opacity="1"><g transform="translate(239.634115, 152.942811)"><g><path d="M 4.5625 -0.40625 C 5.65625 -0.40625 6.367188 -0.75 6.703125 -1.4375 C 6.816406 -1.65625 6.875 -1.882812 6.875 -2.125 C 6.875 -2.820312 6.378906 -3.414062 5.390625 -3.90625 C 5.179688 -4.019531 4.84375 -4.179688 4.375 -4.390625 C 3.09375 -4.929688 2.238281 -5.441406 1.8125 -5.921875 C 1.363281 -6.429688 1.140625 -7.023438 1.140625 -7.703125 C 1.140625 -8.835938 1.757812 -9.644531 3 -10.125 C 3.59375 -10.320312 4.234375 -10.421875 4.921875 -10.421875 C 5.992188 -10.421875 6.90625 -10.203125 7.65625 -9.765625 C 7.65625 -10.222656 7.769531 -10.484375 8 -10.546875 C 8.070312 -10.566406 8.175781 -10.578125 8.3125 -10.578125 L 8.3125 -7.59375 L 7.65625 -7.59375 C 7.625 -9.050781 6.8125 -9.789062 5.21875 -9.8125 C 4.082031 -9.8125 3.367188 -9.460938 3.078125 -8.765625 C 3.015625 -8.566406 2.984375 -8.375 2.984375 -8.1875 C 2.984375 -7.5 3.46875 -6.914062 4.4375 -6.4375 C 4.65625 -6.332031 5 -6.179688 5.46875 -5.984375 C 6.75 -5.460938 7.609375 -4.972656 8.046875 -4.515625 C 8.503906 -3.984375 8.734375 -3.363281 8.734375 -2.65625 C 8.734375 -1.332031 8.039062 -0.457031 6.65625 -0.03125 C 6.113281 0.144531 5.523438 0.234375 4.890625 0.234375 C 3.703125 0.222656 2.671875 -0.0507812 1.796875 -0.59375 C 1.796875 -0.175781 1.691406 0.0625 1.484375 0.125 C 1.390625 0.132812 1.273438 0.140625 1.140625 0.140625 L 1.140625 -3.484375 L 1.84375 -3.484375 C 1.875 -1.441406 2.78125 -0.414062 4.5625 -0.40625 Z M 4.5625 -0.40625 "/></g></g></g><g fill="#000000" fill-opacity="1"><g transform="translate(249.271348, 152.942811)"><g><path d="M 0.90625 -5.015625 C 0.90625 -2.992188 1.644531 -1.515625 3.125 -0.578125 C 3.988281 -0.0351562 4.972656 0.234375 6.078125 0.234375 C 7.753906 0.234375 9.015625 -0.335938 9.859375 -1.484375 C 10.066406 -1.753906 10.234375 -2.039062 10.359375 -2.34375 L 9.734375 -2.53125 C 9.179688 -1.363281 8.273438 -0.679688 7.015625 -0.484375 C 6.804688 -0.441406 6.597656 -0.421875 6.390625 -0.421875 C 5.210938 -0.421875 4.332031 -1.03125 3.75 -2.25 C 3.363281 -3.039062 3.171875 -4.007812 3.171875 -5.15625 C 3.171875 -7.625 3.832031 -9.117188 5.15625 -9.640625 C 5.46875 -9.765625 5.800781 -9.828125 6.15625 -9.828125 C 6.976562 -9.828125 7.476562 -9.488281 7.65625 -8.8125 C 7.6875 -8.695312 7.71875 -8.503906 7.75 -8.234375 C 7.851562 -7.566406 8.039062 -7.15625 8.3125 -7 C 8.46875 -6.894531 8.664062 -6.835938 8.90625 -6.828125 C 9.507812 -6.804688 9.878906 -7.050781 10.015625 -7.5625 C 10.054688 -7.675781 10.078125 -7.78125 10.078125 -7.875 C 10.078125 -8.65625 9.582031 -9.304688 8.59375 -9.828125 C 7.832031 -10.222656 6.988281 -10.421875 6.0625 -10.421875 C 4.0625 -10.421875 2.601562 -9.648438 1.6875 -8.109375 C 1.164062 -7.203125 0.90625 -6.171875 0.90625 -5.015625 Z M 0.90625 -5.015625 "/></g></g></g><g fill="#000000" fill-opacity="1"><g transform="translate(259.74349, 152.942811)"><g><path d="M 5.65625 -0.59375 L 4.53125 -0.59375 L 4.53125 -10.171875 L 0.6875 -10.171875 L 0.6875 -9.5625 L 2.5 -9.5625 L 2.5 -2 C 2.5 -1.269531 2.253906 -0.832031 1.765625 -0.6875 C 1.523438 -0.625 1.164062 -0.59375 0.6875 -0.59375 L 0.6875 0 L 6.25 0 C 6.25 -0.351562 6.128906 -0.546875 5.890625 -0.578125 C 5.828125 -0.585938 5.75 -0.59375 5.65625 -0.59375 Z M 4.796875 -13.578125 C 4.796875 -14.148438 4.539062 -14.570312 4.03125 -14.84375 C 3.820312 -14.9375 3.613281 -14.984375 3.40625 -14.984375 C 2.820312 -14.984375 2.398438 -14.722656 2.140625 -14.203125 C 2.046875 -13.992188 2 -13.785156 2 -13.578125 C 2 -12.972656 2.269531 -12.546875 2.8125 -12.296875 C 3.007812 -12.210938 3.207031 -12.171875 3.40625 -12.171875 C 3.976562 -12.171875 4.394531 -12.429688 4.65625 -12.953125 C 4.75 -13.160156 4.796875 -13.367188 4.796875 -13.578125 Z M 4.796875 -13.578125 "/></g></g></g><g fill="#000000" fill-opacity="1"><g transform="translate(266.661306, 152.942811)"><g><path d="M 5.96875 -9.828125 C 7.050781 -9.828125 7.75 -9.335938 8.0625 -8.359375 C 8.15625 -8.054688 8.203125 -7.734375 8.203125 -7.390625 C 8.203125 -6.617188 7.851562 -6.144531 7.15625 -5.96875 C 6.757812 -5.875 6.210938 -5.832031 5.515625 -5.84375 L 3.171875 -5.921875 C 3.234375 -7.796875 3.804688 -9.007812 4.890625 -9.5625 C 5.222656 -9.738281 5.582031 -9.828125 5.96875 -9.828125 Z M 10.1875 -2.3125 L 9.59375 -2.53125 C 9.082031 -1.414062 8.269531 -0.738281 7.15625 -0.5 C 6.90625 -0.445312 6.660156 -0.421875 6.421875 -0.421875 C 4.734375 -0.421875 3.695312 -1.488281 3.3125 -3.625 C 3.238281 -4.125 3.191406 -4.664062 3.171875 -5.25 L 5.921875 -5.203125 C 7.953125 -5.171875 9.25 -5.378906 9.8125 -5.828125 C 10.175781 -6.140625 10.359375 -6.566406 10.359375 -7.109375 C 10.359375 -8.242188 9.785156 -9.132812 8.640625 -9.78125 C 7.847656 -10.207031 6.941406 -10.421875 5.921875 -10.421875 C 3.992188 -10.421875 2.578125 -9.648438 1.671875 -8.109375 C 1.160156 -7.222656 0.90625 -6.195312 0.90625 -5.03125 C 0.90625 -3 1.644531 -1.503906 3.125 -0.546875 C 3.96875 -0.0234375 4.921875 0.234375 5.984375 0.234375 C 7.765625 0.234375 9.0625 -0.40625 9.875 -1.6875 C 9.988281 -1.894531 10.09375 -2.101562 10.1875 -2.3125 Z M 10.1875 -2.3125 "/></g></g></g><g fill="#000000" fill-opacity="1"><g transform="translate(277.777521, 152.942811)"><g><path d="M 5.390625 -0.59375 L 4.421875 -0.59375 L 4.421875 -5.84375 C 4.453125 -7.289062 4.941406 -8.332031 5.890625 -8.96875 C 6.304688 -9.226562 6.722656 -9.359375 7.140625 -9.359375 C 8.109375 -9.359375 8.75 -8.894531 9.0625 -7.96875 C 9.175781 -7.625 9.234375 -7.242188 9.234375 -6.828125 L 9.234375 -2 C 9.234375 -1.289062 9.023438 -0.863281 8.609375 -0.71875 C 8.390625 -0.632812 8.050781 -0.59375 7.59375 -0.59375 L 7.59375 0 L 12.984375 0 C 12.984375 -0.351562 12.863281 -0.546875 12.625 -0.578125 C 12.5625 -0.585938 12.484375 -0.59375 12.390625 -0.59375 L 11.265625 -0.59375 L 11.265625 -6.5625 C 11.265625 -8.226562 10.691406 -9.378906 9.546875 -10.015625 C 9.054688 -10.285156 8.53125 -10.421875 7.96875 -10.421875 C 6.789062 -10.421875 5.8125 -9.945312 5.03125 -9 C 4.757812 -8.675781 4.546875 -8.316406 4.390625 -7.921875 L 4.296875 -10.171875 L 0.671875 -10.171875 L 0.671875 -9.5625 L 2.390625 -9.5625 L 2.390625 -2 C 2.390625 -1.269531 2.164062 -0.832031 1.71875 -0.6875 C 1.476562 -0.625 1.128906 -0.59375 0.671875 -0.59375 L 0.671875 0 L 5.984375 0 C 5.984375 -0.351562 5.863281 -0.546875 5.625 -0.578125 C 5.5625 -0.585938 5.484375 -0.59375 5.390625 -0.59375 Z M 5.390625 -0.59375 "/></g></g></g><g fill="#000000" fill-opacity="1"><g transform="translate(291.303044, 152.942811)"><g><path d="M 0.453125 -9.546875 L 2.125 -9.546875 L 2.125 -2.953125 C 2.238281 -0.867188 3.203125 0.203125 5.015625 0.265625 C 6.503906 0.265625 7.429688 -0.632812 7.796875 -2.4375 C 7.796875 -2.445312 7.796875 -2.460938 7.796875 -2.484375 L 7.15625 -2.59375 C 6.820312 -1.1875 6.25 -0.472656 5.4375 -0.453125 C 4.59375 -0.484375 4.164062 -1.097656 4.15625 -2.296875 L 4.15625 -9.546875 L 7.75 -9.546875 L 7.75 -10.140625 L 4.15625 -10.140625 L 4.15625 -12.90625 L 2.125 -12.40625 L 2.125 -10.140625 L 0.453125 -10.140625 Z M 0.453125 -9.546875 "/></g></g></g><g fill="#000000" fill-opacity="1"><g transform="translate(299.222751, 152.942811)"><g><path d="M 5.65625 -0.59375 L 4.53125 -0.59375 L 4.53125 -10.171875 L 0.6875 -10.171875 L 0.6875 -9.5625 L 2.5 -9.5625 L 2.5 -2 C 2.5 -1.269531 2.253906 -0.832031 1.765625 -0.6875 C 1.523438 -0.625 1.164062 -0.59375 0.6875 -0.59375 L 0.6875 0 L 6.25 0 C 6.25 -0.351562 6.128906 -0.546875 5.890625 -0.578125 C 5.828125 -0.585938 5.75 -0.59375 5.65625 -0.59375 Z M 4.796875 -13.578125 C 4.796875 -14.148438 4.539062 -14.570312 4.03125 -14.84375 C 3.820312 -14.9375 3.613281 -14.984375 3.40625 -14.984375 C 2.820312 -14.984375 2.398438 -14.722656 2.140625 -14.203125 C 2.046875 -13.992188 2 -13.785156 2 -13.578125 C 2 -12.972656 2.269531 -12.546875 2.8125 -12.296875 C 3.007812 -12.210938 3.207031 -12.171875 3.40625 -12.171875 C 3.976562 -12.171875 4.394531 -12.429688 4.65625 -12.953125 C 4.75 -13.160156 4.796875 -13.367188 4.796875 -13.578125 Z M 4.796875 -13.578125 "/></g></g></g><g fill="#000000" fill-opacity="1"><g transform="translate(306.140567, 152.942811)"><g><path d="M 4.5625 -0.40625 C 5.65625 -0.40625 6.367188 -0.75 6.703125 -1.4375 C 6.816406 -1.65625 6.875 -1.882812 6.875 -2.125 C 6.875 -2.820312 6.378906 -3.414062 5.390625 -3.90625 C 5.179688 -4.019531 4.84375 -4.179688 4.375 -4.390625 C 3.09375 -4.929688 2.238281 -5.441406 1.8125 -5.921875 C 1.363281 -6.429688 1.140625 -7.023438 1.140625 -7.703125 C 1.140625 -8.835938 1.757812 -9.644531 3 -10.125 C 3.59375 -10.320312 4.234375 -10.421875 4.921875 -10.421875 C 5.992188 -10.421875 6.90625 -10.203125 7.65625 -9.765625 C 7.65625 -10.222656 7.769531 -10.484375 8 -10.546875 C 8.070312 -10.566406 8.175781 -10.578125 8.3125 -10.578125 L 8.3125 -7.59375 L 7.65625 -7.59375 C 7.625 -9.050781 6.8125 -9.789062 5.21875 -9.8125 C 4.082031 -9.8125 3.367188 -9.460938 3.078125 -8.765625 C 3.015625 -8.566406 2.984375 -8.375 2.984375 -8.1875 C 2.984375 -7.5 3.46875 -6.914062 4.4375 -6.4375 C 4.65625 -6.332031 5 -6.179688 5.46875 -5.984375 C 6.75 -5.460938 7.609375 -4.972656 8.046875 -4.515625 C 8.503906 -3.984375 8.734375 -3.363281 8.734375 -2.65625 C 8.734375 -1.332031 8.039062 -0.457031 6.65625 -0.03125 C 6.113281 0.144531 5.523438 0.234375 4.890625 0.234375 C 3.703125 0.222656 2.671875 -0.0507812 1.796875 -0.59375 C 1.796875 -0.175781 1.691406 0.0625 1.484375 0.125 C 1.390625 0.132812 1.273438 0.140625 1.140625 0.140625 L 1.140625 -3.484375 L 1.84375 -3.484375 C 1.875 -1.441406 2.78125 -0.414062 4.5625 -0.40625 Z M 4.5625 -0.40625 "/></g></g></g><g fill="#000000" fill-opacity="1"><g transform="translate(315.7778, 152.942811)"><g><path d="M 0.453125 -9.546875 L 2.125 -9.546875 L 2.125 -2.953125 C 2.238281 -0.867188 3.203125 0.203125 5.015625 0.265625 C 6.503906 0.265625 7.429688 -0.632812 7.796875 -2.4375 C 7.796875 -2.445312 7.796875 -2.460938 7.796875 -2.484375 L 7.15625 -2.59375 C 6.820312 -1.1875 6.25 -0.472656 5.4375 -0.453125 C 4.59375 -0.484375 4.164062 -1.097656 4.15625 -2.296875 L 4.15625 -9.546875 L 7.75 -9.546875 L 7.75 -10.140625 L 4.15625 -10.140625 L 4.15625 -12.90625 L 2.125 -12.40625 L 2.125 -10.140625 L 0.453125 -10.140625 Z M 0.453125 -9.546875 "/></g></g></g></svg>