<svg xmlns="http://www.w3.org/2000/svg" xmlns:xlink="http://www.w3.org/1999/xlink" width="500" zoomAndPan="magnify" viewBox="0 0 375 187.499995" height="250" preserveAspectRatio="xMidYMid meet" version="1.0"><defs><g/><clipPath id="625191c552"><path d="M 0.5 0 L 374.5 0 L 374.5 187 L 0.5 187 Z M 0.5 0 " clip-rule="nonzero"/></clipPath><clipPath id="5d47a6d503"><path d="M 26 50 L 48 50 L 48 74 L 26 74 Z M 26 50 " clip-rule="nonzero"/></clipPath><clipPath id="f08ff9577e"><path d="M 26.222656 68.101562 L 31.746094 50.238281 L 49.609375 55.761719 L 44.085938 73.625 Z M 26.222656 68.101562 " clip-rule="nonzero"/></clipPath><clipPath id="c22e591c15"><path d="M 26.222656 68.101562 L 31.746094 50.238281 L 49.609375 55.761719 L 44.085938 73.625 Z M 26.222656 68.101562 " clip-rule="nonzero"/></clipPath><clipPath id="0703c72636"><path d="M 26.222656 68.101562 L 31.746094 50.238281 L 49.609375 55.761719 L 44.085938 73.625 Z M 26.222656 68.101562 " clip-rule="nonzero"/></clipPath><clipPath id="395d4e1682"><path d="M 29 57 L 33 57 L 33 61 L 29 61 Z M 29 57 " clip-rule="nonzero"/></clipPath><clipPath id="c328afda85"><path d="M 26.222656 68.101562 L 31.746094 50.238281 L 49.609375 55.761719 L 44.085938 73.625 Z M 26.222656 68.101562 " clip-rule="nonzero"/></clipPath><clipPath id="4066e9ee47"><path d="M 26.222656 68.101562 L 31.746094 50.238281 L 49.609375 55.761719 L 44.085938 73.625 Z M 26.222656 68.101562 " clip-rule="nonzero"/></clipPath><clipPath id="33eab2f787"><path d="M 26.222656 68.101562 L 31.746094 50.238281 L 49.609375 55.761719 L 44.085938 73.625 Z M 26.222656 68.101562 " clip-rule="nonzero"/></clipPath><clipPath id="c2368af42b"><path d="M 31 61 L 35 61 L 35 65 L 31 65 Z M 31 61 " clip-rule="nonzero"/></clipPath><clipPath id="2c5347c0bc"><path d="M 26.222656 68.101562 L 31.746094 50.238281 L 49.609375 55.761719 L 44.085938 73.625 Z M 26.222656 68.101562 " clip-rule="nonzero"/></clipPath><clipPath id="d561d0a3be"><path d="M 26.222656 68.101562 L 31.746094 50.238281 L 49.609375 55.761719 L 44.085938 73.625 Z M 26.222656 68.101562 " clip-rule="nonzero"/></clipPath><clipPath id="1f116198c3"><path d="M 26.222656 68.101562 L 31.746094 50.238281 L 49.609375 55.761719 L 44.085938 73.625 Z M 26.222656 68.101562 " clip-rule="nonzero"/></clipPath><clipPath id="225fac0103"><path d="M 36 68 L 40 68 L 40 72 L 36 72 Z M 36 68 " clip-rule="nonzero"/></clipPath><clipPath id="fad2b26953"><path d="M 26.222656 68.101562 L 31.746094 50.238281 L 49.609375 55.761719 L 44.085938 73.625 Z M 26.222656 68.101562 " clip-rule="nonzero"/></clipPath><clipPath id="e45a2d72e5"><path d="M 26.222656 68.101562 L 31.746094 50.238281 L 49.609375 55.761719 L 44.085938 73.625 Z M 26.222656 68.101562 " clip-rule="nonzero"/></clipPath><clipPath id="2808d7bd88"><path d="M 26.222656 68.101562 L 31.746094 50.238281 L 49.609375 55.761719 L 44.085938 73.625 Z M 26.222656 68.101562 " clip-rule="nonzero"/></clipPath><clipPath id="66ea676fcb"><path d="M 33 68 L 35 68 L 35 71 L 33 71 Z M 33 68 " clip-rule="nonzero"/></clipPath><clipPath id="bc9fc13d91"><path d="M 26.222656 68.101562 L 31.746094 50.238281 L 49.609375 55.761719 L 44.085938 73.625 Z M 26.222656 68.101562 " clip-rule="nonzero"/></clipPath><clipPath id="b1ab201e7f"><path d="M 26.222656 68.101562 L 31.746094 50.238281 L 49.609375 55.761719 L 44.085938 73.625 Z M 26.222656 68.101562 " clip-rule="nonzero"/></clipPath><clipPath id="1467420449"><path d="M 26.222656 68.101562 L 31.746094 50.238281 L 49.609375 55.761719 L 44.085938 73.625 Z M 26.222656 68.101562 " clip-rule="nonzero"/></clipPath><clipPath id="f57390a892"><path d="M 37 55 L 42 55 L 42 60 L 37 60 Z M 37 55 " clip-rule="nonzero"/></clipPath><clipPath id="ab1b55379c"><path d="M 26.222656 68.101562 L 31.746094 50.238281 L 49.609375 55.761719 L 44.085938 73.625 Z M 26.222656 68.101562 " clip-rule="nonzero"/></clipPath><clipPath id="9c41b72d38"><path d="M 26.222656 68.101562 L 31.746094 50.238281 L 49.609375 55.761719 L 44.085938 73.625 Z M 26.222656 68.101562 " clip-rule="nonzero"/></clipPath><clipPath id="44d755a6a3"><path d="M 26.222656 68.101562 L 31.746094 50.238281 L 49.609375 55.761719 L 44.085938 73.625 Z M 26.222656 68.101562 " clip-rule="nonzero"/></clipPath><clipPath id="7469c97473"><path d="M 43 61 L 48 61 L 48 66 L 43 66 Z M 43 61 " clip-rule="nonzero"/></clipPath><clipPath id="a94fdcde90"><path d="M 26.222656 68.101562 L 31.746094 50.238281 L 49.609375 55.761719 L 44.085938 73.625 Z M 26.222656 68.101562 " clip-rule="nonzero"/></clipPath><clipPath id="0f178a8f5e"><path d="M 26.222656 68.101562 L 31.746094 50.238281 L 49.609375 55.761719 L 44.085938 73.625 Z M 26.222656 68.101562 " clip-rule="nonzero"/></clipPath><clipPath id="f2bf0dcd43"><path d="M 26.222656 68.101562 L 31.746094 50.238281 L 49.609375 55.761719 L 44.085938 73.625 Z M 26.222656 68.101562 " clip-rule="nonzero"/></clipPath><clipPath id="6e27620d3e"><path d="M 36 52 L 40 52 L 40 55 L 36 55 Z M 36 52 " clip-rule="nonzero"/></clipPath><clipPath id="8b9fa1ab02"><path d="M 26.222656 68.101562 L 31.746094 50.238281 L 49.609375 55.761719 L 44.085938 73.625 Z M 26.222656 68.101562 " clip-rule="nonzero"/></clipPath><clipPath id="2491ce48d4"><path d="M 26.222656 68.101562 L 31.746094 50.238281 L 49.609375 55.761719 L 44.085938 73.625 Z M 26.222656 68.101562 " clip-rule="nonzero"/></clipPath><clipPath id="e1b10cd0f1"><path d="M 26.222656 68.101562 L 31.746094 50.238281 L 49.609375 55.761719 L 44.085938 73.625 Z M 26.222656 68.101562 " clip-rule="nonzero"/></clipPath><clipPath id="4a1a29cdf4"><path d="M 62 80 L 64 80 L 64 86.957031 L 62 86.957031 Z M 62 80 " clip-rule="nonzero"/></clipPath><clipPath id="5fc0807704"><path d="M 61 83 L 62 83 L 62 86.957031 L 61 86.957031 Z M 61 83 " clip-rule="nonzero"/></clipPath><clipPath id="0b86738630"><path d="M 59 85 L 60 85 L 60 86.957031 L 59 86.957031 Z M 59 85 " clip-rule="nonzero"/></clipPath><clipPath id="21894c8577"><path d="M 58 85 L 59 85 L 59 86.957031 L 58 86.957031 Z M 58 85 " clip-rule="nonzero"/></clipPath><clipPath id="41399091dc"><path d="M 56 86 L 57 86 L 57 86.957031 L 56 86.957031 Z M 56 86 " clip-rule="nonzero"/></clipPath><clipPath id="fe2ed39a08"><path d="M 64 79.476562 L 65 79.476562 L 65 86.957031 L 64 86.957031 Z M 64 79.476562 " clip-rule="nonzero"/></clipPath><clipPath id="d21eea307c"><path d="M 55.609375 86 L 65 86 L 65 86.957031 L 55.609375 86.957031 Z M 55.609375 86 " clip-rule="nonzero"/></clipPath><clipPath id="709d325811"><path d="M 56 79.476562 L 65 79.476562 L 65 86.957031 L 56 86.957031 Z M 56 79.476562 " clip-rule="nonzero"/></clipPath><clipPath id="a7e3fe845f"><path d="M 66 80 L 67 80 L 67 86.957031 L 66 86.957031 Z M 66 80 " clip-rule="nonzero"/></clipPath><clipPath id="f609371baf"><path d="M 67 83 L 68 83 L 68 86.957031 L 67 86.957031 Z M 67 83 " clip-rule="nonzero"/></clipPath><clipPath id="873f2fef3d"><path d="M 69 85 L 70 85 L 70 86.957031 L 69 86.957031 Z M 69 85 " clip-rule="nonzero"/></clipPath><clipPath id="18200d1abe"><path d="M 70 85 L 71 85 L 71 86.957031 L 70 86.957031 Z M 70 85 " clip-rule="nonzero"/></clipPath><clipPath id="e28ff8a034"><path d="M 72 86 L 73 86 L 73 86.957031 L 72 86.957031 Z M 72 86 " clip-rule="nonzero"/></clipPath><clipPath id="5281cf8f70"><path d="M 64.539062 86.246094 L 73.546875 86.246094 L 73.546875 86.332031 L 64.539062 86.332031 Z M 64.539062 86.246094 " clip-rule="nonzero"/></clipPath><clipPath id="66ef22f474"><path d="M 64 79.476562 L 73 79.476562 L 73 86.957031 L 64 86.957031 Z M 64 79.476562 " clip-rule="nonzero"/></clipPath><clipPath id="a9ac0630a1"><path d="M 59 86 L 61 86 L 61 86.957031 L 59 86.957031 Z M 59 86 " clip-rule="nonzero"/></clipPath><clipPath id="f12fe3ec65"><path d="M 61.363281 86.648438 L 61.566406 86.648438 L 61.566406 86.957031 L 61.363281 86.957031 Z M 61.363281 86.648438 " clip-rule="nonzero"/></clipPath><clipPath id="89a3f6eff3"><path d="M 62 86 L 64 86 L 64 86.957031 L 62 86.957031 Z M 62 86 " clip-rule="nonzero"/></clipPath><clipPath id="00bf536f5b"><path d="M 64 86 L 65 86 L 65 86.957031 L 64 86.957031 Z M 64 86 " clip-rule="nonzero"/></clipPath><clipPath id="2a838cbb39"><path d="M 66.042969 86.648438 L 66.246094 86.648438 L 66.246094 86.957031 L 66.042969 86.957031 Z M 66.042969 86.648438 " clip-rule="nonzero"/></clipPath><clipPath id="c4c95b6f45"><path d="M 67 86 L 68 86 L 68 86.957031 L 67 86.957031 Z M 67 86 " clip-rule="nonzero"/></clipPath><clipPath id="e6617742de"><path d="M 69.164062 86.648438 L 69.363281 86.648438 L 69.363281 86.957031 L 69.164062 86.957031 Z M 69.164062 86.648438 " clip-rule="nonzero"/></clipPath><clipPath id="c935b0ecef"><path d="M 70.71875 86.648438 L 70.921875 86.648438 L 70.921875 86.957031 L 70.71875 86.957031 Z M 70.71875 86.648438 " clip-rule="nonzero"/></clipPath><clipPath id="8d475c53f6"><path d="M 72 86 L 73 86 L 73 86.957031 L 72 86.957031 Z M 72 86 " clip-rule="nonzero"/></clipPath><clipPath id="641a549df4"><path d="M 72.390625 86.648438 L 72.589844 86.648438 L 72.589844 86.957031 L 72.390625 86.957031 Z M 72.390625 86.648438 " clip-rule="nonzero"/></clipPath><clipPath id="907f80aff7"><path d="M 58 86 L 59 86 L 59 86.957031 L 58 86.957031 Z M 58 86 " clip-rule="nonzero"/></clipPath><clipPath id="b6ddbf43b3"><path d="M 56.6875 86.648438 L 56.886719 86.648438 L 56.886719 86.957031 L 56.6875 86.957031 Z M 56.6875 86.648438 " clip-rule="nonzero"/></clipPath></defs><g clip-path="url(#625191c552)"><path fill="#ffffff" d="M 0.5 0 L 374.5 0 L 374.5 194.480469 L 0.5 194.480469 Z M 0.5 0 " fill-opacity="1" fill-rule="nonzero"/><path fill="#ffffff" d="M 0.5 0 L 374.5 0 L 374.5 187 L 0.5 187 Z M 0.5 0 " fill-opacity="1" fill-rule="nonzero"/><path fill="#ffffff" d="M 0.5 0 L 374.5 0 L 374.5 187 L 0.5 187 Z M 0.5 0 " fill-opacity="1" fill-rule="nonzero"/></g><g clip-path="url(#5d47a6d503)"><g clip-path="url(#f08ff9577e)"><g clip-path="url(#c22e591c15)"><g clip-path="url(#0703c72636)"><path fill="#000000" d="M 30.914062 52.917969 C 30.460938 54.394531 31.289062 55.96875 32.765625 56.425781 C 33.386719 56.617188 34.023438 56.578125 34.585938 56.367188 L 37.28125 61.398438 C 36.632812 61.820312 36.121094 62.460938 35.875 63.257812 C 35.6875 63.867188 35.679688 64.488281 35.820312 65.070312 L 31.730469 65.746094 C 31.5 64.976562 30.902344 64.328125 30.078125 64.074219 C 28.761719 63.667969 27.363281 64.40625 26.957031 65.722656 C 26.550781 67.035156 27.289062 68.433594 28.605469 68.839844 C 29.917969 69.246094 31.316406 68.507812 31.722656 67.195312 C 31.808594 66.917969 31.839844 66.636719 31.828125 66.363281 L 36.023438 65.667969 C 36.414062 66.535156 37.160156 67.242188 38.136719 67.546875 C 38.933594 67.792969 39.753906 67.730469 40.46875 67.433594 L 41.71875 69.804688 C 41.417969 70.03125 41.1875 70.347656 41.066406 70.734375 C 40.761719 71.71875 41.316406 72.769531 42.300781 73.074219 C 43.285156 73.378906 44.335938 72.824219 44.640625 71.839844 C 44.945312 70.855469 44.390625 69.804688 43.40625 69.5 C 43.019531 69.382812 42.625 69.394531 42.269531 69.511719 L 41.019531 67.140625 C 41.667969 66.71875 42.179688 66.078125 42.425781 65.28125 C 42.804688 64.0625 42.460938 62.789062 41.640625 61.917969 L 43.675781 59.792969 C 43.710938 59.804688 43.746094 59.820312 43.785156 59.832031 C 45.261719 60.289062 46.835938 59.457031 47.292969 57.980469 C 47.75 56.503906 46.917969 54.929688 45.441406 54.472656 C 43.964844 54.015625 42.390625 54.84375 41.933594 56.324219 C 41.554688 57.546875 42.0625 58.835938 43.089844 59.503906 L 41.171875 61.503906 C 40.875 61.285156 40.535156 61.109375 40.164062 60.996094 C 39.367188 60.75 38.546875 60.808594 37.832031 61.109375 L 35.140625 56.082031 C 35.664062 55.738281 36.078125 55.21875 36.277344 54.574219 C 36.734375 53.097656 35.902344 51.523438 34.425781 51.066406 C 32.945312 50.609375 31.371094 51.4375 30.914062 52.917969 Z M 28.789062 68.242188 C 27.800781 67.9375 27.25 66.890625 27.554688 65.90625 C 27.859375 64.917969 28.90625 64.367188 29.890625 64.671875 C 30.878906 64.976562 31.429688 66.023438 31.125 67.007812 C 30.820312 67.996094 29.773438 68.546875 28.789062 68.242188 Z M 42.527344 56.507812 C 42.882812 55.355469 44.109375 54.710938 45.257812 55.066406 C 46.40625 55.421875 47.054688 56.644531 46.699219 57.796875 C 46.34375 58.945312 45.117188 59.589844 43.96875 59.234375 C 42.820312 58.878906 42.171875 57.65625 42.527344 56.507812 Z M 44.042969 71.65625 C 43.839844 72.3125 43.140625 72.679688 42.484375 72.476562 C 41.828125 72.273438 41.460938 71.574219 41.660156 70.917969 C 41.863281 70.261719 42.5625 69.894531 43.222656 70.097656 C 43.878906 70.300781 44.246094 71 44.042969 71.65625 Z M 41.832031 65.097656 C 41.375 66.578125 39.800781 67.40625 38.320312 66.949219 C 36.84375 66.492188 36.011719 64.917969 36.46875 63.441406 C 36.925781 61.964844 38.5 61.132812 39.980469 61.589844 C 41.457031 62.046875 42.285156 63.621094 41.832031 65.097656 Z M 35.679688 54.390625 C 35.324219 55.539062 34.101562 56.183594 32.953125 55.828125 C 31.800781 55.472656 31.15625 54.25 31.511719 53.101562 C 31.867188 51.953125 33.089844 51.304688 34.238281 51.660156 C 35.390625 52.015625 36.035156 53.242188 35.679688 54.390625 Z M 35.679688 54.390625 " fill-opacity="1" fill-rule="nonzero"/></g></g></g></g><g clip-path="url(#395d4e1682)"><g clip-path="url(#c328afda85)"><g clip-path="url(#4066e9ee47)"><g clip-path="url(#33eab2f787)"><path fill="#000000" d="M 31.207031 57.25 C 30.386719 56.996094 29.511719 57.457031 29.257812 58.277344 C 29.003906 59.097656 29.464844 59.972656 30.289062 60.226562 C 31.109375 60.480469 31.984375 60.019531 32.238281 59.195312 C 32.492188 58.375 32.027344 57.5 31.207031 57.25 Z M 30.472656 59.628906 C 29.980469 59.476562 29.703125 58.953125 29.855469 58.460938 C 30.007812 57.96875 30.53125 57.691406 31.023438 57.84375 C 31.515625 57.996094 31.792969 58.519531 31.640625 59.011719 C 31.488281 59.503906 30.964844 59.78125 30.472656 59.628906 Z M 30.472656 59.628906 " fill-opacity="1" fill-rule="nonzero"/></g></g></g></g><g clip-path="url(#c2368af42b)"><g clip-path="url(#2c5347c0bc)"><g clip-path="url(#d561d0a3be)"><g clip-path="url(#1f116198c3)"><path fill="#000000" d="M 33.859375 61.332031 C 33.039062 61.078125 32.164062 61.539062 31.910156 62.359375 C 31.65625 63.179688 32.121094 64.054688 32.941406 64.308594 C 33.761719 64.5625 34.636719 64.101562 34.890625 63.28125 C 35.144531 62.457031 34.683594 61.585938 33.859375 61.332031 Z M 33.125 63.710938 C 32.632812 63.558594 32.355469 63.035156 32.507812 62.542969 C 32.660156 62.050781 33.183594 61.773438 33.675781 61.925781 C 34.167969 62.078125 34.445312 62.601562 34.292969 63.09375 C 34.140625 63.585938 33.617188 63.863281 33.125 63.710938 Z M 33.125 63.710938 " fill-opacity="1" fill-rule="nonzero"/></g></g></g></g><g clip-path="url(#225fac0103)"><g clip-path="url(#fad2b26953)"><g clip-path="url(#e45a2d72e5)"><g clip-path="url(#2808d7bd88)"><path fill="#000000" d="M 37.871094 71.050781 C 38.609375 71.28125 39.394531 70.863281 39.625 70.125 C 39.851562 69.386719 39.4375 68.601562 38.699219 68.371094 C 37.960938 68.144531 37.171875 68.558594 36.945312 69.296875 C 36.714844 70.035156 37.128906 70.824219 37.871094 71.050781 Z M 37.539062 69.480469 C 37.667969 69.070312 38.101562 68.839844 38.515625 68.96875 C 38.925781 69.09375 39.15625 69.53125 39.027344 69.941406 C 38.902344 70.351562 38.464844 70.582031 38.054688 70.457031 C 37.644531 70.328125 37.414062 69.890625 37.539062 69.480469 Z M 37.539062 69.480469 " fill-opacity="1" fill-rule="nonzero"/></g></g></g></g><g clip-path="url(#66ea676fcb)"><g clip-path="url(#bc9fc13d91)"><g clip-path="url(#b1ab201e7f)"><g clip-path="url(#1467420449)"><path fill="#000000" d="M 33.046875 69.234375 C 32.894531 69.726562 33.171875 70.25 33.664062 70.402344 C 34.15625 70.554688 34.683594 70.28125 34.835938 69.785156 C 34.988281 69.292969 34.710938 68.769531 34.21875 68.617188 C 33.726562 68.464844 33.199219 68.742188 33.046875 69.234375 Z M 34.238281 69.601562 C 34.1875 69.765625 34.015625 69.859375 33.851562 69.808594 C 33.683594 69.757812 33.59375 69.582031 33.644531 69.417969 C 33.695312 69.253906 33.871094 69.164062 34.035156 69.214844 C 34.199219 69.265625 34.289062 69.4375 34.238281 69.601562 Z M 34.238281 69.601562 " fill-opacity="1" fill-rule="nonzero"/></g></g></g></g><g clip-path="url(#f57390a892)"><g clip-path="url(#ab1b55379c)"><g clip-path="url(#9c41b72d38)"><g clip-path="url(#44d755a6a3)"><path fill="#000000" d="M 38.746094 59.25 C 39.730469 59.554688 40.777344 59.003906 41.082031 58.015625 C 41.386719 57.03125 40.835938 55.984375 39.847656 55.679688 C 38.863281 55.375 37.816406 55.925781 37.511719 56.914062 C 37.207031 57.898438 37.757812 58.945312 38.746094 59.25 Z M 39.664062 56.273438 C 40.320312 56.476562 40.691406 57.175781 40.488281 57.832031 C 40.285156 58.488281 39.585938 58.859375 38.929688 58.65625 C 38.273438 58.453125 37.902344 57.753906 38.105469 57.097656 C 38.308594 56.441406 39.007812 56.070312 39.664062 56.273438 Z M 39.664062 56.273438 " fill-opacity="1" fill-rule="nonzero"/></g></g></g></g><g clip-path="url(#7469c97473)"><g clip-path="url(#a94fdcde90)"><g clip-path="url(#0f178a8f5e)"><g clip-path="url(#f2bf0dcd43)"><path fill="#000000" d="M 43.367188 63.289062 C 43.0625 64.277344 43.617188 65.324219 44.601562 65.628906 C 45.585938 65.933594 46.636719 65.378906 46.941406 64.394531 C 47.246094 63.410156 46.691406 62.359375 45.707031 62.054688 C 44.722656 61.75 43.671875 62.304688 43.367188 63.289062 Z M 46.34375 64.210938 C 46.140625 64.867188 45.441406 65.238281 44.785156 65.035156 C 44.128906 64.832031 43.761719 64.132812 43.964844 63.476562 C 44.167969 62.816406 44.867188 62.449219 45.523438 62.652344 C 46.179688 62.855469 46.546875 63.554688 46.34375 64.210938 Z M 46.34375 64.210938 " fill-opacity="1" fill-rule="nonzero"/></g></g></g></g><g clip-path="url(#6e27620d3e)"><g clip-path="url(#8b9fa1ab02)"><g clip-path="url(#2491ce48d4)"><g clip-path="url(#e1b10cd0f1)"><path fill="#000000" d="M 37.855469 54.734375 C 38.511719 54.9375 39.210938 54.570312 39.414062 53.914062 C 39.617188 53.257812 39.25 52.558594 38.59375 52.355469 C 37.9375 52.152344 37.238281 52.519531 37.035156 53.175781 C 36.832031 53.832031 37.199219 54.53125 37.855469 54.734375 Z M 38.410156 52.949219 C 38.738281 53.050781 38.921875 53.402344 38.820312 53.730469 C 38.71875 54.058594 38.371094 54.242188 38.039062 54.140625 C 37.710938 54.039062 37.527344 53.691406 37.628906 53.359375 C 37.730469 53.03125 38.082031 52.847656 38.410156 52.949219 Z M 38.410156 52.949219 " fill-opacity="1" fill-rule="nonzero"/></g></g></g></g><g fill="#ffffff" fill-opacity="1"><g transform="translate(79.472772, 123.811775)"><g><path d="M 1 -28.476562 C 1 -40.265625 -6.59375 -51.855469 -19.082031 -51.855469 C -30.375 -51.855469 -34.769531 -41.464844 -39.164062 -30.375 C -42.664062 -21.878906 -46.457031 -11.589844 -55.851562 -11.589844 C -64.34375 -11.589844 -69.039062 -18.484375 -69.039062 -26.578125 C -69.039062 -37.964844 -62.84375 -44.960938 -54.152344 -48.65625 L -54.453125 -49.65625 L -66.042969 -49.257812 C -68.140625 -45.359375 -70.636719 -38.867188 -70.636719 -29.773438 C -70.636719 -15.085938 -63.242188 -5.394531 -51.554688 -5.394531 C -40.964844 -5.394531 -36.765625 -12.886719 -32.070312 -24.679688 C -28.675781 -33.070312 -24.078125 -45.359375 -14.085938 -45.359375 C -5.996094 -45.359375 -0.800781 -38.464844 -0.800781 -30.472656 C -0.800781 -16.585938 -9.691406 -8.992188 -20.183594 -5.09375 L -19.980469 -3.996094 L -6.09375 -4.496094 C -2.699219 -9.191406 1 -17.984375 1 -28.476562 Z M 1 -28.476562 "/></g></g></g><g fill="#000000" fill-opacity="1"><g transform="translate(78.651922, 122.267976)"><g><path d="M 1 -28.476562 C 1 -40.265625 -6.59375 -51.855469 -19.082031 -51.855469 C -30.375 -51.855469 -34.769531 -41.464844 -39.164062 -30.375 C -42.664062 -21.878906 -46.457031 -11.589844 -55.851562 -11.589844 C -64.34375 -11.589844 -69.039062 -18.484375 -69.039062 -26.578125 C -69.039062 -37.964844 -62.84375 -44.960938 -54.152344 -48.65625 L -54.453125 -49.65625 L -66.042969 -49.257812 C -68.140625 -45.359375 -70.636719 -38.867188 -70.636719 -29.773438 C -70.636719 -15.085938 -63.242188 -5.394531 -51.554688 -5.394531 C -40.964844 -5.394531 -36.765625 -12.886719 -32.070312 -24.679688 C -28.675781 -33.070312 -24.078125 -45.359375 -14.085938 -45.359375 C -5.996094 -45.359375 -0.800781 -38.464844 -0.800781 -30.472656 C -0.800781 -16.585938 -9.691406 -8.992188 -20.183594 -5.09375 L -19.980469 -3.996094 L -6.09375 -4.496094 C -2.699219 -9.191406 1 -17.984375 1 -28.476562 Z M 1 -28.476562 "/></g></g></g><g clip-path="url(#4a1a29cdf4)"><path stroke-linecap="round" transform="matrix(0.000508162, 0, 0, -0.000515084, 55.621273, 86.958272)" fill="none" stroke-linejoin="round" d="M 14566.539858 1299.222551 L 14566.539858 11984.671016 " stroke="#b2b2b2" stroke-width="163.682007" stroke-opacity="1" stroke-miterlimit="10"/></g><g clip-path="url(#5fc0807704)"><path stroke-linecap="round" transform="matrix(0.000508162, 0, 0, -0.000515084, 55.621273, 86.958272)" fill="none" stroke-linejoin="round" d="M 11499.420948 1299.222551 L 11499.420948 7115.928706 " stroke="#b2b2b2" stroke-width="163.682007" stroke-opacity="1" stroke-miterlimit="10"/></g><g clip-path="url(#0b86738630)"><path stroke-linecap="round" transform="matrix(0.000508162, 0, 0, -0.000515084, 55.621273, 86.958272)" fill="none" stroke-linejoin="round" d="M 8432.302037 1299.222551 L 8432.302037 3187.566531 " stroke="#b2b2b2" stroke-width="163.682007" stroke-opacity="1" stroke-miterlimit="10"/></g><g clip-path="url(#21894c8577)"><path stroke-linecap="round" transform="matrix(0.000508162, 0, 0, -0.000515084, 55.621273, 86.958272)" fill="none" stroke-linejoin="round" d="M 5365.183127 1299.222551 L 5365.183127 2004.507652 " stroke="#b2b2b2" stroke-width="163.682007" stroke-opacity="1" stroke-miterlimit="10"/></g><g clip-path="url(#41399091dc)"><path stroke-linecap="round" transform="matrix(0.000508162, 0, 0, -0.000515084, 55.621273, 86.958272)" fill="none" stroke-linejoin="round" d="M 2290.377201 1299.222551 L 2290.377201 1678.408089 " stroke="#b2b2b2" stroke-width="163.682007" stroke-opacity="1" stroke-miterlimit="10"/></g><g clip-path="url(#fe2ed39a08)"><path stroke-linecap="round" transform="matrix(0.000508162, 0, 0, -0.000515084, 55.621273, 86.958272)" fill="none" stroke-linejoin="round" d="M 17641.345784 1299.222551 L 17641.345784 14343.205064 " stroke="#b2b2b2" stroke-width="163.682007" stroke-opacity="1" stroke-miterlimit="10"/></g><g clip-path="url(#d21eea307c)"><path stroke-linecap="round" transform="matrix(0.000508162, 0, 0, -0.000515084, 55.621273, 86.958272)" fill="none" stroke-linejoin="round" d="M 84.20395 1299.222551 L 17641.345784 1299.222551 " stroke="#b2b2b2" stroke-width="163.682007" stroke-opacity="1" stroke-miterlimit="10"/></g><g clip-path="url(#709d325811)"><path stroke-linecap="round" transform="matrix(0.000508162, 0, 0, -0.000515084, 55.621273, 86.958272)" fill="none" stroke-linejoin="round" d="M 17641.345784 14335.621353 C 15166.127014 14335.621353 12898.457644 9042.19124 10423.238874 5470.263471 C 8916.583971 3308.905903 7840.401897 2505.032562 5703.411779 2072.761049 C 4342.810157 1799.747461 3251.254053 1701.159221 1829.156313 1708.742932 " stroke="#3c3c3b" stroke-width="380" stroke-opacity="1" stroke-miterlimit="10"/></g><g clip-path="url(#a7e3fe845f)"><path stroke-linecap="round" transform="matrix(0.000508162, 0, 0, -0.000515084, 55.621273, 86.958272)" fill="none" stroke-linejoin="round" d="M 20708.464694 1299.222551 L 20708.464694 11984.671016 " stroke="#b2b2b2" stroke-width="163.682007" stroke-opacity="1" stroke-miterlimit="10"/></g><g clip-path="url(#f609371baf)"><path stroke-linecap="round" transform="matrix(0.000508162, 0, 0, -0.000515084, 55.621273, 86.958272)" fill="none" stroke-linejoin="round" d="M 23775.583605 1299.222551 L 23775.583605 7115.928706 " stroke="#b2b2b2" stroke-width="163.682007" stroke-opacity="1" stroke-miterlimit="10"/></g><g clip-path="url(#873f2fef3d)"><path stroke-linecap="round" transform="matrix(0.000508162, 0, 0, -0.000515084, 55.621273, 86.958272)" fill="none" stroke-linejoin="round" d="M 26842.702516 1299.222551 L 26842.702516 3187.566531 " stroke="#b2b2b2" stroke-width="163.682007" stroke-opacity="1" stroke-miterlimit="10"/></g><g clip-path="url(#18200d1abe)"><path stroke-linecap="round" transform="matrix(0.000508162, 0, 0, -0.000515084, 55.621273, 86.958272)" fill="none" stroke-linejoin="round" d="M 29917.508441 1299.222551 L 29917.508441 2004.507652 " stroke="#b2b2b2" stroke-width="163.682007" stroke-opacity="1" stroke-miterlimit="10"/></g><g clip-path="url(#e28ff8a034)"><path stroke-linecap="round" transform="matrix(0.000508162, 0, 0, -0.000515084, 55.621273, 86.958272)" fill="none" stroke-linejoin="round" d="M 32984.627352 1299.222551 L 32984.627352 1678.408089 " stroke="#b2b2b2" stroke-width="163.682007" stroke-opacity="1" stroke-miterlimit="10"/></g><g clip-path="url(#5281cf8f70)"><path stroke-linecap="round" transform="matrix(0.000508162, 0, 0, -0.000515084, 55.621273, 86.958272)" fill="none" stroke-linejoin="round" d="M 35190.800603 1299.222551 L 17641.345784 1299.222551 " stroke="#b2b2b2" stroke-width="163.682007" stroke-opacity="1" stroke-miterlimit="10"/></g><g clip-path="url(#66ef22f474)"><path stroke-linecap="round" transform="matrix(0.000508162, 0, 0, -0.000515084, 55.621273, 86.958272)" fill="none" stroke-linejoin="round" d="M 17641.345784 14335.621353 C 20108.877539 14335.621353 22376.546909 9042.19124 24851.765679 5470.263471 C 26358.420582 3308.905903 27434.602656 2505.032562 29571.592774 2072.761049 C 30932.194396 1799.747461 32023.7505 1701.159221 33445.84824 1708.742932 " stroke="#3c3c3b" stroke-width="380" stroke-opacity="1" stroke-miterlimit="10"/></g><g clip-path="url(#a9ac0630a1)"><path fill="#000000" d="M 60.003906 86.902344 L 60.003906 86.957031 L 59.804688 86.957031 C 59.808594 86.933594 59.8125 86.917969 59.824219 86.898438 C 59.835938 86.878906 59.855469 86.855469 59.890625 86.824219 C 59.914062 86.800781 59.929688 86.785156 59.9375 86.777344 C 59.945312 86.765625 59.949219 86.753906 59.949219 86.742188 C 59.949219 86.726562 59.945312 86.71875 59.9375 86.710938 C 59.929688 86.703125 59.921875 86.699219 59.910156 86.699219 C 59.898438 86.699219 59.886719 86.703125 59.882812 86.710938 C 59.875 86.71875 59.871094 86.730469 59.867188 86.746094 L 59.8125 86.742188 C 59.816406 86.710938 59.824219 86.6875 59.84375 86.671875 C 59.863281 86.660156 59.882812 86.652344 59.910156 86.652344 C 59.941406 86.652344 59.964844 86.660156 59.980469 86.675781 C 59.996094 86.691406 60.003906 86.710938 60.003906 86.738281 C 60.003906 86.75 60.003906 86.761719 60 86.777344 C 59.992188 86.789062 59.984375 86.800781 59.976562 86.8125 C 59.96875 86.824219 59.957031 86.835938 59.9375 86.851562 C 59.917969 86.871094 59.910156 86.878906 59.902344 86.886719 C 59.898438 86.890625 59.894531 86.898438 59.890625 86.902344 L 60.003906 86.902344 " fill-opacity="1" fill-rule="nonzero"/></g><g clip-path="url(#f12fe3ec65)"><path fill="#000000" d="M 61.367188 86.871094 L 61.421875 86.867188 C 61.421875 86.878906 61.429688 86.890625 61.433594 86.898438 C 61.441406 86.90625 61.453125 86.910156 61.464844 86.910156 C 61.476562 86.910156 61.484375 86.90625 61.492188 86.898438 C 61.5 86.886719 61.503906 86.875 61.503906 86.859375 C 61.503906 86.84375 61.5 86.832031 61.492188 86.824219 C 61.484375 86.816406 61.476562 86.8125 61.464844 86.8125 C 61.457031 86.8125 61.449219 86.8125 61.4375 86.816406 L 61.445312 86.769531 C 61.460938 86.769531 61.472656 86.765625 61.480469 86.757812 C 61.488281 86.753906 61.492188 86.742188 61.492188 86.730469 C 61.492188 86.722656 61.488281 86.710938 61.484375 86.707031 C 61.476562 86.699219 61.46875 86.699219 61.460938 86.699219 C 61.449219 86.699219 61.441406 86.699219 61.433594 86.707031 C 61.429688 86.714844 61.425781 86.726562 61.421875 86.738281 L 61.371094 86.730469 C 61.375 86.710938 61.378906 86.695312 61.386719 86.683594 C 61.394531 86.675781 61.40625 86.664062 61.417969 86.660156 C 61.429688 86.652344 61.445312 86.648438 61.460938 86.648438 C 61.488281 86.648438 61.511719 86.660156 61.53125 86.675781 C 61.542969 86.691406 61.550781 86.707031 61.550781 86.726562 C 61.550781 86.753906 61.535156 86.773438 61.507812 86.789062 C 61.523438 86.792969 61.539062 86.804688 61.546875 86.816406 C 61.558594 86.828125 61.5625 86.84375 61.5625 86.863281 C 61.5625 86.890625 61.554688 86.910156 61.535156 86.929688 C 61.515625 86.949219 61.492188 86.957031 61.464844 86.957031 C 61.4375 86.957031 61.414062 86.949219 61.398438 86.933594 C 61.378906 86.917969 61.367188 86.898438 61.367188 86.871094 " fill-opacity="1" fill-rule="nonzero"/></g><g clip-path="url(#89a3f6eff3)"><path fill="#000000" d="M 63.039062 86.84375 L 63.039062 86.742188 L 62.972656 86.84375 Z M 63.039062 86.957031 L 63.039062 86.894531 L 62.917969 86.894531 L 62.917969 86.84375 L 63.046875 86.652344 L 63.09375 86.652344 L 63.09375 86.84375 L 63.132812 86.84375 L 63.132812 86.894531 L 63.09375 86.894531 L 63.09375 86.957031 L 63.039062 86.957031 " fill-opacity="1" fill-rule="nonzero"/></g><g clip-path="url(#00bf536f5b)"><path fill="#000000" d="M 64.484375 86.871094 L 64.539062 86.867188 C 64.542969 86.878906 64.546875 86.890625 64.554688 86.898438 C 64.5625 86.90625 64.574219 86.910156 64.582031 86.910156 C 64.59375 86.910156 64.605469 86.902344 64.613281 86.894531 C 64.621094 86.882812 64.625 86.871094 64.625 86.851562 C 64.625 86.832031 64.621094 86.816406 64.613281 86.808594 C 64.605469 86.800781 64.59375 86.792969 64.582031 86.792969 C 64.566406 86.792969 64.550781 86.800781 64.539062 86.816406 L 64.492188 86.808594 L 64.519531 86.652344 L 64.671875 86.652344 L 64.671875 86.707031 L 64.5625 86.707031 L 64.554688 86.757812 C 64.566406 86.75 64.582031 86.75 64.59375 86.75 C 64.617188 86.75 64.640625 86.757812 64.65625 86.777344 C 64.675781 86.796875 64.683594 86.820312 64.683594 86.847656 C 64.683594 86.875 64.675781 86.894531 64.664062 86.914062 C 64.644531 86.941406 64.617188 86.957031 64.582031 86.957031 C 64.554688 86.957031 64.53125 86.949219 64.515625 86.933594 C 64.496094 86.917969 64.488281 86.898438 64.484375 86.871094 " fill-opacity="1" fill-rule="nonzero"/></g><g clip-path="url(#2a838cbb39)"><path fill="#000000" d="M 66.109375 86.851562 C 66.109375 86.871094 66.113281 86.882812 66.121094 86.894531 C 66.128906 86.90625 66.140625 86.910156 66.148438 86.910156 C 66.160156 86.910156 66.167969 86.90625 66.175781 86.898438 C 66.183594 86.890625 66.1875 86.875 66.1875 86.855469 C 66.1875 86.835938 66.183594 86.824219 66.175781 86.8125 C 66.167969 86.804688 66.160156 86.800781 66.148438 86.800781 C 66.136719 86.800781 66.128906 86.804688 66.121094 86.8125 C 66.113281 86.820312 66.109375 86.835938 66.109375 86.851562 Z M 66.238281 86.726562 L 66.183594 86.730469 C 66.179688 86.71875 66.175781 86.710938 66.171875 86.707031 C 66.167969 86.699219 66.160156 86.699219 66.148438 86.699219 C 66.136719 86.699219 66.128906 86.703125 66.117188 86.714844 C 66.109375 86.726562 66.105469 86.746094 66.101562 86.78125 C 66.117188 86.765625 66.136719 86.757812 66.15625 86.757812 C 66.179688 86.757812 66.199219 86.765625 66.21875 86.785156 C 66.234375 86.804688 66.242188 86.828125 66.242188 86.855469 C 66.242188 86.886719 66.234375 86.910156 66.214844 86.929688 C 66.199219 86.949219 66.175781 86.957031 66.148438 86.957031 C 66.117188 86.957031 66.09375 86.945312 66.074219 86.921875 C 66.054688 86.898438 66.042969 86.859375 66.042969 86.804688 C 66.042969 86.75 66.054688 86.710938 66.074219 86.6875 C 66.09375 86.664062 66.121094 86.648438 66.152344 86.648438 C 66.175781 86.648438 66.195312 86.65625 66.210938 86.667969 C 66.222656 86.683594 66.234375 86.699219 66.238281 86.726562 " fill-opacity="1" fill-rule="nonzero"/></g><g clip-path="url(#c4c95b6f45)"><path fill="#000000" d="M 67.605469 86.710938 L 67.605469 86.65625 L 67.800781 86.65625 L 67.800781 86.699219 C 67.785156 86.714844 67.769531 86.738281 67.75 86.765625 C 67.734375 86.796875 67.722656 86.828125 67.714844 86.863281 C 67.703125 86.894531 67.699219 86.925781 67.699219 86.953125 L 67.644531 86.953125 C 67.648438 86.910156 67.65625 86.867188 67.671875 86.824219 C 67.6875 86.78125 67.707031 86.742188 67.734375 86.710938 L 67.605469 86.710938 " fill-opacity="1" fill-rule="nonzero"/></g><g clip-path="url(#e6617742de)"><path fill="#000000" d="M 69.226562 86.730469 C 69.226562 86.742188 69.230469 86.753906 69.234375 86.757812 C 69.242188 86.765625 69.25 86.769531 69.261719 86.769531 C 69.273438 86.769531 69.28125 86.765625 69.289062 86.757812 C 69.292969 86.753906 69.296875 86.742188 69.296875 86.730469 C 69.296875 86.722656 69.292969 86.710938 69.289062 86.707031 C 69.28125 86.699219 69.273438 86.695312 69.261719 86.695312 C 69.25 86.695312 69.242188 86.699219 69.234375 86.707031 C 69.230469 86.710938 69.226562 86.722656 69.226562 86.730469 Z M 69.222656 86.859375 C 69.222656 86.878906 69.226562 86.890625 69.234375 86.898438 C 69.242188 86.90625 69.25 86.910156 69.261719 86.910156 C 69.273438 86.910156 69.285156 86.90625 69.292969 86.898438 C 69.300781 86.890625 69.304688 86.878906 69.304688 86.863281 C 69.304688 86.847656 69.300781 86.835938 69.292969 86.828125 C 69.285156 86.820312 69.273438 86.816406 69.261719 86.816406 C 69.25 86.816406 69.238281 86.820312 69.230469 86.828125 C 69.222656 86.839844 69.222656 86.851562 69.222656 86.859375 Z M 69.214844 86.789062 C 69.199219 86.785156 69.1875 86.773438 69.183594 86.765625 C 69.175781 86.753906 69.171875 86.742188 69.171875 86.726562 C 69.171875 86.707031 69.179688 86.6875 69.195312 86.671875 C 69.210938 86.65625 69.234375 86.648438 69.261719 86.648438 C 69.289062 86.648438 69.3125 86.65625 69.328125 86.671875 C 69.34375 86.6875 69.351562 86.707031 69.351562 86.726562 C 69.351562 86.742188 69.347656 86.753906 69.339844 86.765625 C 69.332031 86.777344 69.324219 86.785156 69.308594 86.789062 C 69.328125 86.796875 69.339844 86.804688 69.347656 86.820312 C 69.355469 86.832031 69.359375 86.847656 69.359375 86.863281 C 69.359375 86.890625 69.351562 86.914062 69.335938 86.933594 C 69.316406 86.949219 69.292969 86.957031 69.265625 86.957031 C 69.238281 86.957031 69.214844 86.949219 69.195312 86.9375 C 69.175781 86.917969 69.164062 86.894531 69.164062 86.867188 C 69.164062 86.851562 69.167969 86.835938 69.175781 86.820312 C 69.183594 86.808594 69.199219 86.796875 69.214844 86.789062 " fill-opacity="1" fill-rule="nonzero"/></g><g clip-path="url(#c935b0ecef)"><path fill="#000000" d="M 70.859375 86.757812 C 70.859375 86.738281 70.851562 86.722656 70.84375 86.714844 C 70.835938 86.703125 70.828125 86.699219 70.816406 86.699219 C 70.804688 86.699219 70.796875 86.703125 70.789062 86.710938 C 70.78125 86.71875 70.777344 86.734375 70.777344 86.753906 C 70.777344 86.773438 70.78125 86.785156 70.789062 86.796875 C 70.796875 86.804688 70.808594 86.808594 70.820312 86.808594 C 70.828125 86.808594 70.839844 86.804688 70.847656 86.796875 C 70.855469 86.785156 70.859375 86.773438 70.859375 86.757812 Z M 70.730469 86.882812 L 70.785156 86.878906 C 70.785156 86.886719 70.789062 86.898438 70.792969 86.902344 C 70.800781 86.90625 70.808594 86.910156 70.816406 86.910156 C 70.828125 86.910156 70.839844 86.90625 70.847656 86.894531 C 70.855469 86.882812 70.859375 86.859375 70.863281 86.824219 C 70.847656 86.84375 70.832031 86.851562 70.808594 86.851562 C 70.785156 86.851562 70.765625 86.84375 70.75 86.824219 C 70.730469 86.804688 70.722656 86.78125 70.722656 86.753906 C 70.722656 86.722656 70.730469 86.695312 70.75 86.679688 C 70.769531 86.660156 70.789062 86.648438 70.816406 86.648438 C 70.847656 86.648438 70.875 86.660156 70.894531 86.683594 C 70.910156 86.710938 70.921875 86.75 70.921875 86.800781 C 70.921875 86.859375 70.910156 86.898438 70.890625 86.921875 C 70.871094 86.945312 70.84375 86.957031 70.8125 86.957031 C 70.789062 86.957031 70.769531 86.953125 70.757812 86.941406 C 70.742188 86.925781 70.734375 86.90625 70.730469 86.882812 " fill-opacity="1" fill-rule="nonzero"/></g><g clip-path="url(#8d475c53f6)"><path fill="#000000" d="M 72.308594 86.953125 L 72.25 86.953125 L 72.25 86.734375 C 72.230469 86.753906 72.207031 86.769531 72.175781 86.777344 L 72.175781 86.726562 C 72.191406 86.722656 72.207031 86.710938 72.226562 86.699219 C 72.242188 86.683594 72.253906 86.667969 72.261719 86.648438 L 72.308594 86.648438 L 72.308594 86.953125 " fill-opacity="1" fill-rule="nonzero"/></g><g clip-path="url(#641a549df4)"><path fill="#000000" d="M 72.488281 86.699219 C 72.484375 86.699219 72.476562 86.699219 72.472656 86.703125 C 72.464844 86.710938 72.460938 86.71875 72.457031 86.730469 C 72.453125 86.742188 72.453125 86.769531 72.453125 86.804688 C 72.453125 86.839844 72.453125 86.863281 72.457031 86.878906 C 72.460938 86.890625 72.464844 86.898438 72.472656 86.902344 C 72.476562 86.90625 72.484375 86.910156 72.488281 86.910156 C 72.496094 86.910156 72.503906 86.90625 72.507812 86.902344 C 72.515625 86.898438 72.519531 86.890625 72.519531 86.878906 C 72.523438 86.863281 72.527344 86.839844 72.527344 86.804688 C 72.527344 86.769531 72.523438 86.746094 72.519531 86.730469 C 72.519531 86.71875 72.511719 86.710938 72.507812 86.703125 C 72.503906 86.699219 72.496094 86.699219 72.488281 86.699219 Z M 72.488281 86.648438 C 72.519531 86.648438 72.542969 86.660156 72.558594 86.679688 C 72.578125 86.707031 72.585938 86.746094 72.585938 86.804688 C 72.585938 86.859375 72.578125 86.902344 72.558594 86.925781 C 72.542969 86.949219 72.519531 86.957031 72.488281 86.957031 C 72.460938 86.957031 72.4375 86.945312 72.417969 86.925781 C 72.402344 86.902344 72.394531 86.863281 72.394531 86.804688 C 72.394531 86.746094 72.402344 86.707031 72.421875 86.679688 C 72.4375 86.660156 72.460938 86.648438 72.488281 86.648438 " fill-opacity="1" fill-rule="nonzero"/></g><g clip-path="url(#907f80aff7)"><path fill="#000000" d="M 58.410156 86.957031 L 58.355469 86.957031 L 58.355469 86.738281 C 58.332031 86.757812 58.308594 86.773438 58.28125 86.78125 L 58.28125 86.730469 C 58.296875 86.722656 58.3125 86.714844 58.328125 86.699219 C 58.347656 86.6875 58.359375 86.671875 58.363281 86.652344 L 58.410156 86.652344 L 58.410156 86.957031 " fill-opacity="1" fill-rule="nonzero"/></g><g clip-path="url(#b6ddbf43b3)"><path fill="#000000" d="M 56.785156 86.699219 C 56.777344 86.699219 56.773438 86.699219 56.769531 86.703125 C 56.761719 86.710938 56.757812 86.71875 56.753906 86.730469 C 56.75 86.742188 56.75 86.769531 56.75 86.804688 C 56.75 86.839844 56.75 86.863281 56.753906 86.878906 C 56.757812 86.890625 56.761719 86.898438 56.769531 86.902344 C 56.773438 86.90625 56.777344 86.910156 56.785156 86.910156 C 56.792969 86.910156 56.800781 86.90625 56.804688 86.902344 C 56.808594 86.898438 56.8125 86.890625 56.816406 86.878906 C 56.820312 86.863281 56.824219 86.839844 56.824219 86.804688 C 56.824219 86.769531 56.820312 86.746094 56.816406 86.730469 C 56.8125 86.71875 56.808594 86.710938 56.804688 86.703125 C 56.800781 86.699219 56.792969 86.699219 56.785156 86.699219 Z M 56.785156 86.648438 C 56.816406 86.648438 56.835938 86.660156 56.855469 86.679688 C 56.875 86.707031 56.882812 86.746094 56.882812 86.804688 C 56.882812 86.859375 56.875 86.902344 56.855469 86.925781 C 56.835938 86.949219 56.816406 86.957031 56.785156 86.957031 C 56.757812 86.957031 56.734375 86.945312 56.714844 86.925781 C 56.699219 86.902344 56.691406 86.863281 56.691406 86.804688 C 56.691406 86.746094 56.699219 86.707031 56.71875 86.679688 C 56.734375 86.660156 56.757812 86.648438 56.785156 86.648438 " fill-opacity="1" fill-rule="nonzero"/></g><g fill="#000000" fill-opacity="1"><g transform="translate(73.580144, 107.661685)"><g><path d="M 0 -1.382812 L 0 -4.875 L -0.359375 -4.875 C -0.691406 -3.65625 -1.46875 -2.992188 -4.625 -2.992188 L -16.917969 -2.992188 L -5.261719 -10.078125 L -5.261719 -10.605469 L -17.140625 -17.636719 L -3.515625 -17.636719 C -1.246094 -17.636719 -0.609375 -17.359375 -0.359375 -16.53125 L 0 -16.53125 L 0 -21.015625 L -0.359375 -21.015625 C -0.609375 -20.15625 -1.246094 -19.90625 -3.515625 -19.90625 L -14.757812 -19.90625 C -17.914062 -19.90625 -18.691406 -20.488281 -19.023438 -21.597656 L -19.382812 -21.597656 L -19.382812 -18.46875 L -7.449219 -11.378906 L -19.382812 -4.152344 L -19.382812 -0.804688 L -19.023438 -0.804688 C -18.691406 -1.910156 -17.914062 -2.492188 -14.757812 -2.492188 L -3.515625 -2.492188 C -1.246094 -2.492188 -0.609375 -2.242188 -0.359375 -1.382812 Z M 0 -1.382812 "/></g></g></g><g fill="#ffffff" fill-opacity="1"><g transform="translate(18.968209, 95.027252)"><g><path d="M 3.292969 0 L 13.75 0 L 13.75 -0.839844 C 11.75 -1.421875 11.167969 -2.90625 11.167969 -8.199219 L 11.167969 -17.882812 L 15.753906 -17.882812 C 27.761719 -17.882812 34.023438 -23.886719 34.023438 -32.472656 C 34.023438 -38.734375 29.761719 -45.191406 16.398438 -45.191406 L 3.292969 -45.191406 L 3.292969 -44.351562 C 5.230469 -43.769531 5.875 -42.285156 5.875 -36.992188 L 5.875 -8.199219 C 5.875 -2.90625 5.230469 -1.421875 3.292969 -0.839844 Z M 11.167969 -18.851562 L 11.167969 -44.09375 C 11.945312 -44.160156 12.976562 -44.222656 13.878906 -44.222656 C 24.273438 -44.222656 28.339844 -37.894531 28.339844 -30.988281 C 28.339844 -23.371094 23.886719 -18.851562 15.625 -18.851562 Z M 11.167969 -18.851562 "/></g></g></g><g fill="#000000" fill-opacity="1"><g transform="translate(19.965754, 94.496848)"><g><path d="M 3.292969 0 L 13.75 0 L 13.75 -0.839844 C 11.75 -1.421875 11.167969 -2.90625 11.167969 -8.199219 L 11.167969 -17.882812 L 15.753906 -17.882812 C 27.761719 -17.882812 34.023438 -23.886719 34.023438 -32.472656 C 34.023438 -38.734375 29.761719 -45.191406 16.398438 -45.191406 L 3.292969 -45.191406 L 3.292969 -44.351562 C 5.230469 -43.769531 5.875 -42.285156 5.875 -36.992188 L 5.875 -8.199219 C 5.875 -2.90625 5.230469 -1.421875 3.292969 -0.839844 Z M 11.167969 -18.851562 L 11.167969 -44.09375 C 11.945312 -44.160156 12.976562 -44.222656 13.878906 -44.222656 C 24.273438 -44.222656 28.339844 -37.894531 28.339844 -30.988281 C 28.339844 -23.371094 23.886719 -18.851562 15.625 -18.851562 Z M 11.167969 -18.851562 "/></g></g></g><g fill="#000000" fill-opacity="1"><g transform="translate(98.487365, 82.104009)"><g><path d="M 15.484375 -14.84375 C 15.484375 -12.832031 14.796875 -11.289062 13.421875 -10.21875 C 12.054688 -9.144531 10.125 -8.609375 7.625 -8.609375 L 4.40625 -8.609375 L 4.40625 0 L 2.953125 0 L 2.953125 -20.828125 L 8.046875 -20.828125 C 13.003906 -20.828125 15.484375 -18.832031 15.484375 -14.84375 Z M 4.40625 -9.859375 L 7.265625 -9.859375 C 9.609375 -9.859375 11.300781 -10.242188 12.34375 -11.015625 C 13.394531 -11.785156 13.921875 -13.039062 13.921875 -14.78125 C 13.921875 -16.382812 13.425781 -17.570312 12.4375 -18.34375 C 11.445312 -19.125 9.914062 -19.515625 7.84375 -19.515625 L 4.40625 -19.515625 Z M 4.40625 -9.859375 "/></g></g><g transform="translate(115.551966, 82.104009)"><g><path d="M 4 0 L 2.59375 0 L 2.59375 -15.484375 L 4 -15.484375 Z M 2.390625 -19.78125 C 2.390625 -20.695312 2.691406 -21.15625 3.296875 -21.15625 C 3.585938 -21.15625 3.816406 -21.035156 3.984375 -20.796875 C 4.148438 -20.554688 4.234375 -20.21875 4.234375 -19.78125 C 4.234375 -19.351562 4.148438 -19.015625 3.984375 -18.765625 C 3.816406 -18.523438 3.585938 -18.40625 3.296875 -18.40625 C 2.691406 -18.40625 2.390625 -18.863281 2.390625 -19.78125 Z M 2.390625 -19.78125 "/></g></g><g transform="translate(122.14705, 82.104009)"><g><path d="M 8.84375 0.28125 C 6.59375 0.28125 4.835938 -0.410156 3.578125 -1.796875 C 2.316406 -3.179688 1.6875 -5.125 1.6875 -7.625 C 1.6875 -10.09375 2.296875 -12.066406 3.515625 -13.546875 C 4.734375 -15.035156 6.375 -15.78125 8.4375 -15.78125 C 10.257812 -15.78125 11.695312 -15.144531 12.75 -13.875 C 13.800781 -12.601562 14.328125 -10.875 14.328125 -8.6875 L 14.328125 -7.546875 L 3.171875 -7.546875 C 3.191406 -5.421875 3.6875 -3.796875 4.65625 -2.671875 C 5.632812 -1.554688 7.03125 -1 8.84375 -1 C 9.726562 -1 10.503906 -1.0625 11.171875 -1.1875 C 11.835938 -1.3125 12.6875 -1.578125 13.71875 -1.984375 L 13.71875 -0.703125 C 12.84375 -0.316406 12.035156 -0.0546875 11.296875 0.078125 C 10.554688 0.210938 9.738281 0.28125 8.84375 0.28125 Z M 8.4375 -14.53125 C 6.945312 -14.53125 5.75 -14.035156 4.84375 -13.046875 C 3.9375 -12.066406 3.410156 -10.648438 3.265625 -8.796875 L 12.828125 -8.796875 C 12.828125 -10.597656 12.4375 -12.003906 11.65625 -13.015625 C 10.882812 -14.023438 9.8125 -14.53125 8.4375 -14.53125 Z M 8.4375 -14.53125 "/></g></g><g transform="translate(138.157577, 82.104009)"><g><path d="M 6.6875 -0.96875 C 7.570312 -0.96875 8.347656 -1.046875 9.015625 -1.203125 L 9.015625 -0.0625 C 8.328125 0.164062 7.539062 0.28125 6.65625 0.28125 C 5.28125 0.28125 4.269531 -0.0820312 3.625 -0.8125 C 2.976562 -1.539062 2.65625 -2.691406 2.65625 -4.265625 L 2.65625 -14.265625 L 0.359375 -14.265625 L 0.359375 -15.078125 L 2.65625 -15.71875 L 3.359375 -19.234375 L 4.09375 -19.234375 L 4.09375 -15.484375 L 8.625 -15.484375 L 8.625 -14.265625 L 4.09375 -14.265625 L 4.09375 -4.453125 C 4.09375 -3.265625 4.300781 -2.382812 4.71875 -1.8125 C 5.132812 -1.25 5.789062 -0.96875 6.6875 -0.96875 Z M 6.6875 -0.96875 "/></g></g><g transform="translate(147.929126, 82.104009)"><g><path d="M 8.6875 -15.78125 C 9.34375 -15.78125 10.046875 -15.710938 10.796875 -15.578125 L 10.53125 -14.234375 C 9.882812 -14.390625 9.210938 -14.46875 8.515625 -14.46875 C 7.191406 -14.46875 6.109375 -13.90625 5.265625 -12.78125 C 4.421875 -11.664062 4 -10.253906 4 -8.546875 L 4 0 L 2.59375 0 L 2.59375 -15.484375 L 3.78125 -15.484375 L 3.9375 -12.6875 L 4.03125 -12.6875 C 4.664062 -13.832031 5.34375 -14.632812 6.0625 -15.09375 C 6.789062 -15.550781 7.664062 -15.78125 8.6875 -15.78125 Z M 8.6875 -15.78125 "/></g></g><g transform="translate(159.281786, 82.104009)"><g><path d="M 15.390625 -7.765625 C 15.390625 -5.234375 14.773438 -3.257812 13.546875 -1.84375 C 12.328125 -0.425781 10.640625 0.28125 8.484375 0.28125 C 7.128906 0.28125 5.929688 -0.046875 4.890625 -0.703125 C 3.859375 -1.359375 3.066406 -2.296875 2.515625 -3.515625 C 1.960938 -4.742188 1.6875 -6.160156 1.6875 -7.765625 C 1.6875 -10.285156 2.300781 -12.25 3.53125 -13.65625 C 4.757812 -15.070312 6.441406 -15.78125 8.578125 -15.78125 C 10.703125 -15.78125 12.367188 -15.066406 13.578125 -13.640625 C 14.785156 -12.210938 15.390625 -10.253906 15.390625 -7.765625 Z M 3.171875 -7.765625 C 3.171875 -5.640625 3.640625 -3.976562 4.578125 -2.78125 C 5.515625 -1.59375 6.835938 -1 8.546875 -1 C 10.253906 -1 11.578125 -1.59375 12.515625 -2.78125 C 13.453125 -3.976562 13.921875 -5.640625 13.921875 -7.765625 C 13.921875 -9.898438 13.445312 -11.554688 12.5 -12.734375 C 11.550781 -13.910156 10.222656 -14.5 8.515625 -14.5 C 6.804688 -14.5 5.488281 -13.910156 4.5625 -12.734375 C 3.632812 -11.566406 3.171875 -9.910156 3.171875 -7.765625 Z M 3.171875 -7.765625 "/></g></g><g transform="translate(176.374875, 82.104009)"><g/></g><g transform="translate(183.952812, 82.104009)"><g><path d="M 12.109375 0 L 4.34375 -19.234375 L 4.234375 -19.234375 C 4.304688 -18.054688 4.34375 -16.847656 4.34375 -15.609375 L 4.34375 0 L 2.953125 0 L 2.953125 -20.828125 L 5.203125 -20.828125 L 12.578125 -2.5 L 12.65625 -2.5 L 20.046875 -20.828125 L 22.234375 -20.828125 L 22.234375 0 L 20.765625 0 L 20.765625 -15.78125 C 20.765625 -16.882812 20.820312 -18.023438 20.9375 -19.203125 L 20.828125 -19.203125 L 13.03125 0 Z M 12.109375 0 "/></g></g><g transform="translate(209.122385, 82.104009)"><g><path d="M 12 0 L 11.640625 -2.453125 L 11.53125 -2.453125 C 10.75 -1.453125 9.945312 -0.742188 9.125 -0.328125 C 8.300781 0.078125 7.328125 0.28125 6.203125 0.28125 C 4.691406 0.28125 3.507812 -0.101562 2.65625 -0.875 C 1.8125 -1.65625 1.390625 -2.734375 1.390625 -4.109375 C 1.390625 -5.617188 2.019531 -6.789062 3.28125 -7.625 C 4.539062 -8.46875 6.363281 -8.910156 8.75 -8.953125 L 11.6875 -9.046875 L 11.6875 -10.078125 C 11.6875 -11.546875 11.390625 -12.65625 10.796875 -13.40625 C 10.203125 -14.15625 9.238281 -14.53125 7.90625 -14.53125 C 6.46875 -14.53125 4.984375 -14.128906 3.453125 -13.328125 L 2.921875 -14.5625 C 4.617188 -15.351562 6.300781 -15.75 7.96875 -15.75 C 9.664062 -15.75 10.929688 -15.304688 11.765625 -14.421875 C 12.609375 -13.546875 13.03125 -12.171875 13.03125 -10.296875 L 13.03125 0 Z M 6.296875 -1 C 7.953125 -1 9.253906 -1.46875 10.203125 -2.40625 C 11.160156 -3.351562 11.640625 -4.671875 11.640625 -6.359375 L 11.640625 -7.875 L 8.9375 -7.765625 C 6.757812 -7.660156 5.207031 -7.316406 4.28125 -6.734375 C 3.351562 -6.160156 2.890625 -5.269531 2.890625 -4.0625 C 2.890625 -3.09375 3.1875 -2.335938 3.78125 -1.796875 C 4.375 -1.265625 5.210938 -1 6.296875 -1 Z M 6.296875 -1 "/></g></g><g transform="translate(224.577387, 82.104009)"><g><path d="M 8.6875 -15.78125 C 9.34375 -15.78125 10.046875 -15.710938 10.796875 -15.578125 L 10.53125 -14.234375 C 9.882812 -14.390625 9.210938 -14.46875 8.515625 -14.46875 C 7.191406 -14.46875 6.109375 -13.90625 5.265625 -12.78125 C 4.421875 -11.664062 4 -10.253906 4 -8.546875 L 4 0 L 2.59375 0 L 2.59375 -15.484375 L 3.78125 -15.484375 L 3.9375 -12.6875 L 4.03125 -12.6875 C 4.664062 -13.832031 5.34375 -14.632812 6.0625 -15.09375 C 6.789062 -15.550781 7.664062 -15.78125 8.6875 -15.78125 Z M 8.6875 -15.78125 "/></g></g><g transform="translate(235.930047, 82.104009)"><g><path d="M 4 0 L 2.59375 0 L 2.59375 -15.484375 L 4 -15.484375 Z M 2.390625 -19.78125 C 2.390625 -20.695312 2.691406 -21.15625 3.296875 -21.15625 C 3.585938 -21.15625 3.816406 -21.035156 3.984375 -20.796875 C 4.148438 -20.554688 4.234375 -20.21875 4.234375 -19.78125 C 4.234375 -19.351562 4.148438 -19.015625 3.984375 -18.765625 C 3.816406 -18.523438 3.585938 -18.40625 3.296875 -18.40625 C 2.691406 -18.40625 2.390625 -18.863281 2.390625 -19.78125 Z M 2.390625 -19.78125 "/></g></g><g transform="translate(242.525131, 82.104009)"><g><path d="M 12 0 L 11.640625 -2.453125 L 11.53125 -2.453125 C 10.75 -1.453125 9.945312 -0.742188 9.125 -0.328125 C 8.300781 0.078125 7.328125 0.28125 6.203125 0.28125 C 4.691406 0.28125 3.507812 -0.101562 2.65625 -0.875 C 1.8125 -1.65625 1.390625 -2.734375 1.390625 -4.109375 C 1.390625 -5.617188 2.019531 -6.789062 3.28125 -7.625 C 4.539062 -8.46875 6.363281 -8.910156 8.75 -8.953125 L 11.6875 -9.046875 L 11.6875 -10.078125 C 11.6875 -11.546875 11.390625 -12.65625 10.796875 -13.40625 C 10.203125 -14.15625 9.238281 -14.53125 7.90625 -14.53125 C 6.46875 -14.53125 4.984375 -14.128906 3.453125 -13.328125 L 2.921875 -14.5625 C 4.617188 -15.351562 6.300781 -15.75 7.96875 -15.75 C 9.664062 -15.75 10.929688 -15.304688 11.765625 -14.421875 C 12.609375 -13.546875 13.03125 -12.171875 13.03125 -10.296875 L 13.03125 0 Z M 6.296875 -1 C 7.953125 -1 9.253906 -1.46875 10.203125 -2.40625 C 11.160156 -3.351562 11.640625 -4.671875 11.640625 -6.359375 L 11.640625 -7.875 L 8.9375 -7.765625 C 6.757812 -7.660156 5.207031 -7.316406 4.28125 -6.734375 C 3.351562 -6.160156 2.890625 -5.269531 2.890625 -4.0625 C 2.890625 -3.09375 3.1875 -2.335938 3.78125 -1.796875 C 4.375 -1.265625 5.210938 -1 6.296875 -1 Z M 6.296875 -1 "/></g></g><g transform="translate(257.980132, 82.104009)"><g/></g><g transform="translate(265.558068, 82.104009)"><g><path d="M 14.4375 -5.375 C 14.4375 -3.632812 13.796875 -2.253906 12.515625 -1.234375 C 11.242188 -0.222656 9.550781 0.28125 7.4375 0.28125 C 4.894531 0.28125 2.941406 0 1.578125 -0.5625 L 1.578125 -2.015625 C 3.078125 -1.367188 4.992188 -1.046875 7.328125 -1.046875 C 9.035156 -1.046875 10.390625 -1.4375 11.390625 -2.21875 C 12.390625 -3.007812 12.890625 -4.039062 12.890625 -5.3125 C 12.890625 -6.101562 12.722656 -6.753906 12.390625 -7.265625 C 12.054688 -7.785156 11.515625 -8.257812 10.765625 -8.6875 C 10.015625 -9.113281 8.914062 -9.578125 7.46875 -10.078125 C 5.332031 -10.804688 3.859375 -11.59375 3.046875 -12.4375 C 2.242188 -13.289062 1.84375 -14.425781 1.84375 -15.84375 C 1.84375 -17.394531 2.453125 -18.660156 3.671875 -19.640625 C 4.890625 -20.628906 6.457031 -21.125 8.375 -21.125 C 10.332031 -21.125 12.171875 -20.753906 13.890625 -20.015625 L 13.359375 -18.765625 C 11.628906 -19.484375 9.976562 -19.84375 8.40625 -19.84375 C 6.863281 -19.84375 5.632812 -19.484375 4.71875 -18.765625 C 3.8125 -18.054688 3.359375 -17.09375 3.359375 -15.875 C 3.359375 -15.101562 3.5 -14.46875 3.78125 -13.96875 C 4.0625 -13.476562 4.519531 -13.035156 5.15625 -12.640625 C 5.789062 -12.242188 6.882812 -11.769531 8.4375 -11.21875 C 10.0625 -10.664062 11.28125 -10.125 12.09375 -9.59375 C 12.90625 -9.0625 13.5 -8.460938 13.875 -7.796875 C 14.25 -7.128906 14.4375 -6.320312 14.4375 -5.375 Z M 14.4375 -5.375 "/></g></g><g transform="translate(281.454641, 82.104009)"><g><path d="M 12 0 L 11.640625 -2.453125 L 11.53125 -2.453125 C 10.75 -1.453125 9.945312 -0.742188 9.125 -0.328125 C 8.300781 0.078125 7.328125 0.28125 6.203125 0.28125 C 4.691406 0.28125 3.507812 -0.101562 2.65625 -0.875 C 1.8125 -1.65625 1.390625 -2.734375 1.390625 -4.109375 C 1.390625 -5.617188 2.019531 -6.789062 3.28125 -7.625 C 4.539062 -8.46875 6.363281 -8.910156 8.75 -8.953125 L 11.6875 -9.046875 L 11.6875 -10.078125 C 11.6875 -11.546875 11.390625 -12.65625 10.796875 -13.40625 C 10.203125 -14.15625 9.238281 -14.53125 7.90625 -14.53125 C 6.46875 -14.53125 4.984375 -14.128906 3.453125 -13.328125 L 2.921875 -14.5625 C 4.617188 -15.351562 6.300781 -15.75 7.96875 -15.75 C 9.664062 -15.75 10.929688 -15.304688 11.765625 -14.421875 C 12.609375 -13.546875 13.03125 -12.171875 13.03125 -10.296875 L 13.03125 0 Z M 6.296875 -1 C 7.953125 -1 9.253906 -1.46875 10.203125 -2.40625 C 11.160156 -3.351562 11.640625 -4.671875 11.640625 -6.359375 L 11.640625 -7.875 L 8.9375 -7.765625 C 6.757812 -7.660156 5.207031 -7.316406 4.28125 -6.734375 C 3.351562 -6.160156 2.890625 -5.269531 2.890625 -4.0625 C 2.890625 -3.09375 3.1875 -2.335938 3.78125 -1.796875 C 4.375 -1.265625 5.210938 -1 6.296875 -1 Z M 6.296875 -1 "/></g></g><g transform="translate(296.909643, 82.104009)"><g><path d="M 13.390625 0 L 13.390625 -10.046875 C 13.390625 -11.597656 13.0625 -12.726562 12.40625 -13.4375 C 11.75 -14.144531 10.734375 -14.5 9.359375 -14.5 C 7.503906 -14.5 6.144531 -14.03125 5.28125 -13.09375 C 4.425781 -12.15625 4 -10.640625 4 -8.546875 L 4 0 L 2.59375 0 L 2.59375 -15.484375 L 3.78125 -15.484375 L 4.0625 -13.359375 L 4.140625 -13.359375 C 5.148438 -14.972656 6.941406 -15.78125 9.515625 -15.78125 C 13.023438 -15.78125 14.78125 -13.894531 14.78125 -10.125 L 14.78125 0 Z M 13.390625 0 "/></g></g><g transform="translate(314.116686, 82.104009)"><g><path d="M 14.671875 -15.484375 L 14.671875 -14.5 L 11.46875 -14.296875 C 12.320312 -13.234375 12.75 -12.066406 12.75 -10.796875 C 12.75 -9.304688 12.25 -8.097656 11.25 -7.171875 C 10.257812 -6.242188 8.929688 -5.78125 7.265625 -5.78125 C 6.554688 -5.78125 6.0625 -5.8125 5.78125 -5.875 C 5.21875 -5.570312 4.789062 -5.222656 4.5 -4.828125 C 4.207031 -4.429688 4.0625 -4.007812 4.0625 -3.5625 C 4.0625 -3.070312 4.25 -2.710938 4.625 -2.484375 C 5 -2.253906 5.628906 -2.140625 6.515625 -2.140625 L 9.21875 -2.140625 C 10.894531 -2.140625 12.179688 -1.796875 13.078125 -1.109375 C 13.972656 -0.429688 14.421875 0.566406 14.421875 1.890625 C 14.421875 3.523438 13.753906 4.785156 12.421875 5.671875 C 11.097656 6.566406 9.210938 7.015625 6.765625 7.015625 C 4.816406 7.015625 3.304688 6.632812 2.234375 5.875 C 1.171875 5.125 0.640625 4.082031 0.640625 2.75 C 0.640625 1.6875 0.96875 0.800781 1.625 0.09375 C 2.289062 -0.601562 3.1875 -1.082031 4.3125 -1.34375 C 3.851562 -1.539062 3.484375 -1.820312 3.203125 -2.1875 C 2.921875 -2.550781 2.78125 -2.972656 2.78125 -3.453125 C 2.78125 -4.484375 3.4375 -5.394531 4.75 -6.1875 C 3.851562 -6.550781 3.148438 -7.128906 2.640625 -7.921875 C 2.140625 -8.710938 1.890625 -9.625 1.890625 -10.65625 C 1.890625 -12.195312 2.378906 -13.4375 3.359375 -14.375 C 4.347656 -15.3125 5.675781 -15.78125 7.34375 -15.78125 C 8.363281 -15.78125 9.15625 -15.679688 9.71875 -15.484375 Z M 2.140625 2.625 C 2.140625 4.75 3.71875 5.8125 6.875 5.8125 C 10.9375 5.8125 12.96875 4.515625 12.96875 1.921875 C 12.96875 0.992188 12.648438 0.320312 12.015625 -0.09375 C 11.378906 -0.507812 10.351562 -0.71875 8.9375 -0.71875 L 6.390625 -0.71875 C 3.554688 -0.71875 2.140625 0.394531 2.140625 2.625 Z M 3.3125 -10.65625 C 3.3125 -9.457031 3.675781 -8.523438 4.40625 -7.859375 C 5.132812 -7.203125 6.109375 -6.875 7.328125 -6.875 C 8.617188 -6.875 9.609375 -7.203125 10.296875 -7.859375 C 10.984375 -8.515625 11.328125 -9.46875 11.328125 -10.71875 C 11.328125 -12.03125 10.972656 -13.015625 10.265625 -13.671875 C 9.554688 -14.335938 8.566406 -14.671875 7.296875 -14.671875 C 6.054688 -14.671875 5.082031 -14.316406 4.375 -13.609375 C 3.664062 -12.898438 3.3125 -11.914062 3.3125 -10.65625 Z M 3.3125 -10.65625 "/></g></g><g transform="translate(329.372268, 82.104009)"><g><path d="M 3.8125 -15.484375 L 3.8125 -5.453125 C 3.8125 -3.898438 4.140625 -2.769531 4.796875 -2.0625 C 5.453125 -1.351562 6.46875 -1 7.84375 -1 C 9.6875 -1 11.039062 -1.460938 11.90625 -2.390625 C 12.78125 -3.316406 13.21875 -4.832031 13.21875 -6.9375 L 13.21875 -15.484375 L 14.609375 -15.484375 L 14.609375 0 L 13.421875 0 L 13.15625 -2.140625 L 13.078125 -2.140625 C 12.066406 -0.523438 10.273438 0.28125 7.703125 0.28125 C 4.179688 0.28125 2.421875 -1.601562 2.421875 -5.375 L 2.421875 -15.484375 Z M 3.8125 -15.484375 "/></g></g><g transform="translate(346.579311, 82.104009)"><g><path d="M 4 0 L 2.59375 0 L 2.59375 -15.484375 L 4 -15.484375 Z M 2.390625 -19.78125 C 2.390625 -20.695312 2.691406 -21.15625 3.296875 -21.15625 C 3.585938 -21.15625 3.816406 -21.035156 3.984375 -20.796875 C 4.148438 -20.554688 4.234375 -20.21875 4.234375 -19.78125 C 4.234375 -19.351562 4.148438 -19.015625 3.984375 -18.765625 C 3.816406 -18.523438 3.585938 -18.40625 3.296875 -18.40625 C 2.691406 -18.40625 2.390625 -18.863281 2.390625 -19.78125 Z M 2.390625 -19.78125 "/></g></g><g transform="translate(353.174395, 82.104009)"><g><path d="M 13.390625 0 L 13.390625 -10.046875 C 13.390625 -11.597656 13.0625 -12.726562 12.40625 -13.4375 C 11.75 -14.144531 10.734375 -14.5 9.359375 -14.5 C 7.503906 -14.5 6.144531 -14.03125 5.28125 -13.09375 C 4.425781 -12.15625 4 -10.640625 4 -8.546875 L 4 0 L 2.59375 0 L 2.59375 -15.484375 L 3.78125 -15.484375 L 4.0625 -13.359375 L 4.140625 -13.359375 C 5.148438 -14.972656 6.941406 -15.78125 9.515625 -15.78125 C 13.023438 -15.78125 14.78125 -13.894531 14.78125 -10.125 L 14.78125 0 Z M 13.390625 0 "/></g></g></g><g fill="#000000" fill-opacity="1"><g transform="translate(175.336593, 111.776809)"><g><path d="M 12.0625 -8.234375 C 12.0625 -6.648438 11.71875 -5.207031 11.03125 -3.90625 C 10.351562 -2.601562 9.414062 -1.625 8.21875 -0.96875 C 7.03125 -0.320312 5.640625 0 4.046875 0 L 0.953125 0 L 3.859375 -13.703125 L 6.71875 -13.703125 C 8.476562 -13.703125 9.804688 -13.238281 10.703125 -12.3125 C 11.609375 -11.394531 12.0625 -10.035156 12.0625 -8.234375 Z M 4.03125 -0.84375 C 5.4375 -0.84375 6.664062 -1.132812 7.71875 -1.71875 C 8.769531 -2.3125 9.582031 -3.171875 10.15625 -4.296875 C 10.738281 -5.429688 11.03125 -6.722656 11.03125 -8.171875 C 11.03125 -11.273438 9.546875 -12.828125 6.578125 -12.828125 L 4.640625 -12.828125 L 2.078125 -0.84375 Z M 4.03125 -0.84375 "/></g></g></g><g fill="#000000" fill-opacity="1"><g transform="translate(187.986917, 111.776809)"><g><path d="M 6.140625 -10.34375 C 7.585938 -10.34375 8.457031 -9.660156 8.75 -8.296875 L 8.8125 -8.296875 L 9.359375 -10.1875 L 10.109375 -10.1875 L 7.96875 0 L 7.203125 0 L 7.609375 -2.5625 L 7.5625 -2.5625 C 7.039062 -1.675781 6.457031 -0.992188 5.8125 -0.515625 C 5.164062 -0.046875 4.425781 0.1875 3.59375 0.1875 C 1.832031 0.1875 0.953125 -0.976562 0.953125 -3.3125 C 0.953125 -4.539062 1.1875 -5.710938 1.65625 -6.828125 C 2.125 -7.953125 2.75 -8.816406 3.53125 -9.421875 C 4.320312 -10.035156 5.191406 -10.34375 6.140625 -10.34375 Z M 3.796875 -0.65625 C 4.359375 -0.65625 4.914062 -0.847656 5.46875 -1.234375 C 6.019531 -1.617188 6.515625 -2.132812 6.953125 -2.78125 C 7.390625 -3.4375 7.722656 -4.15625 7.953125 -4.9375 C 8.191406 -5.726562 8.3125 -6.394531 8.3125 -6.9375 C 8.3125 -7.4375 8.226562 -7.878906 8.0625 -8.265625 C 7.90625 -8.660156 7.664062 -8.96875 7.34375 -9.1875 C 7.03125 -9.414062 6.632812 -9.53125 6.15625 -9.53125 C 5.382812 -9.53125 4.6875 -9.273438 4.0625 -8.765625 C 3.4375 -8.253906 2.921875 -7.488281 2.515625 -6.46875 C 2.117188 -5.445312 1.921875 -4.429688 1.921875 -3.421875 C 1.921875 -2.472656 2.078125 -1.773438 2.390625 -1.328125 C 2.703125 -0.878906 3.171875 -0.65625 3.796875 -0.65625 Z M 3.796875 -0.65625 "/></g></g></g><g fill="#000000" fill-opacity="1"><g transform="translate(198.603819, 111.776809)"><g><path d="M 6.5 -10.1875 L 6.328125 -9.421875 L 3.6875 -9.421875 L 2.421875 -3.46875 C 2.285156 -2.851562 2.21875 -2.34375 2.21875 -1.9375 C 2.21875 -1.070312 2.609375 -0.640625 3.390625 -0.640625 C 3.816406 -0.640625 4.289062 -0.71875 4.8125 -0.875 L 4.8125 -0.078125 C 4.1875 0.0976562 3.65625 0.1875 3.21875 0.1875 C 2.601562 0.1875 2.125 0.0195312 1.78125 -0.3125 C 1.445312 -0.65625 1.28125 -1.15625 1.28125 -1.8125 C 1.28125 -2.257812 1.375 -2.898438 1.5625 -3.734375 L 2.765625 -9.421875 L 1.0625 -9.421875 L 1.1875 -10.046875 L 2.90625 -10.21875 L 3.828125 -12.578125 L 4.34375 -12.578125 L 3.828125 -10.1875 Z M 6.5 -10.1875 "/></g></g></g><g fill="#000000" fill-opacity="1"><g transform="translate(204.376115, 111.776809)"><g><path d="M 6.140625 -10.34375 C 7.585938 -10.34375 8.457031 -9.660156 8.75 -8.296875 L 8.8125 -8.296875 L 9.359375 -10.1875 L 10.109375 -10.1875 L 7.96875 0 L 7.203125 0 L 7.609375 -2.5625 L 7.5625 -2.5625 C 7.039062 -1.675781 6.457031 -0.992188 5.8125 -0.515625 C 5.164062 -0.046875 4.425781 0.1875 3.59375 0.1875 C 1.832031 0.1875 0.953125 -0.976562 0.953125 -3.3125 C 0.953125 -4.539062 1.1875 -5.710938 1.65625 -6.828125 C 2.125 -7.953125 2.75 -8.816406 3.53125 -9.421875 C 4.320312 -10.035156 5.191406 -10.34375 6.140625 -10.34375 Z M 3.796875 -0.65625 C 4.359375 -0.65625 4.914062 -0.847656 5.46875 -1.234375 C 6.019531 -1.617188 6.515625 -2.132812 6.953125 -2.78125 C 7.390625 -3.4375 7.722656 -4.15625 7.953125 -4.9375 C 8.191406 -5.726562 8.3125 -6.394531 8.3125 -6.9375 C 8.3125 -7.4375 8.226562 -7.878906 8.0625 -8.265625 C 7.90625 -8.660156 7.664062 -8.96875 7.34375 -9.1875 C 7.03125 -9.414062 6.632812 -9.53125 6.15625 -9.53125 C 5.382812 -9.53125 4.6875 -9.273438 4.0625 -8.765625 C 3.4375 -8.253906 2.921875 -7.488281 2.515625 -6.46875 C 2.117188 -5.445312 1.921875 -4.429688 1.921875 -3.421875 C 1.921875 -2.472656 2.078125 -1.773438 2.390625 -1.328125 C 2.703125 -0.878906 3.171875 -0.65625 3.796875 -0.65625 Z M 3.796875 -0.65625 "/></g></g></g><g fill="#000000" fill-opacity="1"><g transform="translate(214.993017, 111.776809)"><g/></g></g><g fill="#000000" fill-opacity="1"><g transform="translate(219.978181, 111.776809)"><g><path d="M 6.6875 -2.765625 C 6.6875 -1.867188 6.363281 -1.148438 5.71875 -0.609375 C 5.070312 -0.078125 4.195312 0.1875 3.09375 0.1875 C 2.007812 0.1875 1.054688 -0.046875 0.234375 -0.515625 L 0.234375 -1.515625 C 0.691406 -1.234375 1.164062 -1.015625 1.65625 -0.859375 C 2.15625 -0.703125 2.617188 -0.625 3.046875 -0.625 C 3.910156 -0.625 4.570312 -0.800781 5.03125 -1.15625 C 5.488281 -1.519531 5.71875 -2.03125 5.71875 -2.6875 C 5.71875 -2.945312 5.664062 -3.175781 5.5625 -3.375 C 5.46875 -3.582031 5.3125 -3.773438 5.09375 -3.953125 C 4.882812 -4.140625 4.472656 -4.410156 3.859375 -4.765625 C 2.929688 -5.265625 2.304688 -5.71875 1.984375 -6.125 C 1.660156 -6.53125 1.5 -7.023438 1.5 -7.609375 C 1.5 -8.410156 1.804688 -9.066406 2.421875 -9.578125 C 3.035156 -10.085938 3.847656 -10.34375 4.859375 -10.34375 C 5.328125 -10.34375 5.820312 -10.285156 6.34375 -10.171875 C 6.863281 -10.066406 7.300781 -9.925781 7.65625 -9.75 L 7.328125 -8.921875 C 6.472656 -9.316406 5.648438 -9.515625 4.859375 -9.515625 C 4.128906 -9.515625 3.546875 -9.347656 3.109375 -9.015625 C 2.671875 -8.691406 2.453125 -8.265625 2.453125 -7.734375 C 2.453125 -7.390625 2.503906 -7.113281 2.609375 -6.90625 C 2.710938 -6.695312 2.898438 -6.484375 3.171875 -6.265625 C 3.453125 -6.046875 3.828125 -5.804688 4.296875 -5.546875 C 5.015625 -5.148438 5.519531 -4.828125 5.8125 -4.578125 C 6.113281 -4.328125 6.332031 -4.054688 6.46875 -3.765625 C 6.613281 -3.472656 6.6875 -3.140625 6.6875 -2.765625 Z M 6.6875 -2.765625 "/></g></g></g><g fill="#000000" fill-opacity="1"><g transform="translate(227.727676, 111.776809)"><g><path d="M 4.46875 0.1875 C 3.382812 0.1875 2.523438 -0.15625 1.890625 -0.84375 C 1.265625 -1.539062 0.953125 -2.5 0.953125 -3.71875 C 0.953125 -4.925781 1.179688 -6.054688 1.640625 -7.109375 C 2.097656 -8.160156 2.71875 -8.960938 3.5 -9.515625 C 4.28125 -10.066406 5.1875 -10.34375 6.21875 -10.34375 C 7.050781 -10.34375 7.804688 -10.207031 8.484375 -9.9375 L 8.21875 -9.09375 C 7.550781 -9.382812 6.867188 -9.53125 6.171875 -9.53125 C 5.367188 -9.53125 4.644531 -9.289062 4 -8.8125 C 3.351562 -8.332031 2.84375 -7.640625 2.46875 -6.734375 C 2.101562 -5.828125 1.921875 -4.828125 1.921875 -3.734375 C 1.921875 -2.753906 2.148438 -1.992188 2.609375 -1.453125 C 3.066406 -0.921875 3.71875 -0.65625 4.5625 -0.65625 C 5.007812 -0.65625 5.421875 -0.695312 5.796875 -0.78125 C 6.171875 -0.863281 6.582031 -1.003906 7.03125 -1.203125 L 7.03125 -0.34375 C 6.300781 0.0078125 5.445312 0.1875 4.46875 0.1875 Z M 4.46875 0.1875 "/></g></g></g><g fill="#000000" fill-opacity="1"><g transform="translate(236.039407, 111.776809)"><g><path d="M 1.625 0 L 0.71875 0 L 2.875 -10.1875 L 3.78125 -10.1875 Z M 3.28125 -12.796875 C 3.28125 -13.140625 3.347656 -13.414062 3.484375 -13.625 C 3.617188 -13.832031 3.804688 -13.9375 4.046875 -13.9375 C 4.398438 -13.9375 4.578125 -13.707031 4.578125 -13.25 C 4.578125 -12.894531 4.507812 -12.613281 4.375 -12.40625 C 4.238281 -12.207031 4.0625 -12.109375 3.84375 -12.109375 C 3.65625 -12.109375 3.515625 -12.164062 3.421875 -12.28125 C 3.328125 -12.40625 3.28125 -12.578125 3.28125 -12.796875 Z M 3.28125 -12.796875 "/></g></g></g><g fill="#000000" fill-opacity="1"><g transform="translate(240.490447, 111.776809)"><g><path d="M 4.390625 0.1875 C 3.304688 0.1875 2.460938 -0.148438 1.859375 -0.828125 C 1.253906 -1.515625 0.953125 -2.472656 0.953125 -3.703125 C 0.953125 -4.828125 1.171875 -5.90625 1.609375 -6.9375 C 2.054688 -7.976562 2.671875 -8.804688 3.453125 -9.421875 C 4.234375 -10.035156 5.09375 -10.34375 6.03125 -10.34375 C 6.738281 -10.34375 7.300781 -10.148438 7.71875 -9.765625 C 8.144531 -9.390625 8.359375 -8.875 8.359375 -8.21875 C 8.359375 -7.082031 7.847656 -6.21875 6.828125 -5.625 C 5.804688 -5.03125 4.289062 -4.734375 2.28125 -4.734375 L 1.984375 -4.734375 C 1.941406 -4.460938 1.921875 -4.160156 1.921875 -3.828125 C 1.921875 -2.796875 2.148438 -2.007812 2.609375 -1.46875 C 3.078125 -0.925781 3.742188 -0.65625 4.609375 -0.65625 C 5.429688 -0.65625 6.296875 -0.882812 7.203125 -1.34375 L 7.203125 -0.453125 C 6.328125 -0.0234375 5.390625 0.1875 4.390625 0.1875 Z M 5.90625 -9.53125 C 5.09375 -9.53125 4.332031 -9.171875 3.625 -8.453125 C 2.925781 -7.734375 2.421875 -6.769531 2.109375 -5.5625 L 2.5625 -5.5625 C 5.789062 -5.5625 7.40625 -6.40625 7.40625 -8.09375 C 7.40625 -8.507812 7.269531 -8.851562 7 -9.125 C 6.726562 -9.394531 6.363281 -9.53125 5.90625 -9.53125 Z M 5.90625 -9.53125 "/></g></g></g><g fill="#000000" fill-opacity="1"><g transform="translate(249.186374, 111.776809)"><g><path d="M 7.15625 0 L 8.546875 -6.484375 C 8.679688 -7.054688 8.75 -7.539062 8.75 -7.9375 C 8.75 -8.4375 8.613281 -8.828125 8.34375 -9.109375 C 8.070312 -9.390625 7.648438 -9.53125 7.078125 -9.53125 C 6.378906 -9.53125 5.722656 -9.320312 5.109375 -8.90625 C 4.492188 -8.488281 3.972656 -7.90625 3.546875 -7.15625 C 3.128906 -6.40625 2.804688 -5.507812 2.578125 -4.46875 L 1.625 0 L 0.71875 0 L 2.875 -10.1875 L 3.640625 -10.1875 L 3.296875 -8.109375 L 3.359375 -8.109375 C 4.378906 -9.597656 5.675781 -10.34375 7.25 -10.34375 C 8.0625 -10.34375 8.671875 -10.140625 9.078125 -9.734375 C 9.484375 -9.335938 9.6875 -8.765625 9.6875 -8.015625 C 9.6875 -7.578125 9.613281 -7.007812 9.46875 -6.3125 L 8.078125 0 Z M 7.15625 0 "/></g></g></g><g fill="#000000" fill-opacity="1"><g transform="translate(259.896982, 111.776809)"><g><path d="M 6.5 -10.1875 L 6.328125 -9.421875 L 3.6875 -9.421875 L 2.421875 -3.46875 C 2.285156 -2.851562 2.21875 -2.34375 2.21875 -1.9375 C 2.21875 -1.070312 2.609375 -0.640625 3.390625 -0.640625 C 3.816406 -0.640625 4.289062 -0.71875 4.8125 -0.875 L 4.8125 -0.078125 C 4.1875 0.0976562 3.65625 0.1875 3.21875 0.1875 C 2.601562 0.1875 2.125 0.0195312 1.78125 -0.3125 C 1.445312 -0.65625 1.28125 -1.15625 1.28125 -1.8125 C 1.28125 -2.257812 1.375 -2.898438 1.5625 -3.734375 L 2.765625 -9.421875 L 1.0625 -9.421875 L 1.1875 -10.046875 L 2.90625 -10.21875 L 3.828125 -12.578125 L 4.34375 -12.578125 L 3.828125 -10.1875 Z M 6.5 -10.1875 "/></g></g></g><g fill="#000000" fill-opacity="1"><g transform="translate(265.669278, 111.776809)"><g><path d="M 1.625 0 L 0.71875 0 L 2.875 -10.1875 L 3.78125 -10.1875 Z M 3.28125 -12.796875 C 3.28125 -13.140625 3.347656 -13.414062 3.484375 -13.625 C 3.617188 -13.832031 3.804688 -13.9375 4.046875 -13.9375 C 4.398438 -13.9375 4.578125 -13.707031 4.578125 -13.25 C 4.578125 -12.894531 4.507812 -12.613281 4.375 -12.40625 C 4.238281 -12.207031 4.0625 -12.109375 3.84375 -12.109375 C 3.65625 -12.109375 3.515625 -12.164062 3.421875 -12.28125 C 3.328125 -12.40625 3.28125 -12.578125 3.28125 -12.796875 Z M 3.28125 -12.796875 "/></g></g></g><g fill="#000000" fill-opacity="1"><g transform="translate(270.120318, 111.776809)"><g><path d="M 6.6875 -2.765625 C 6.6875 -1.867188 6.363281 -1.148438 5.71875 -0.609375 C 5.070312 -0.078125 4.195312 0.1875 3.09375 0.1875 C 2.007812 0.1875 1.054688 -0.046875 0.234375 -0.515625 L 0.234375 -1.515625 C 0.691406 -1.234375 1.164062 -1.015625 1.65625 -0.859375 C 2.15625 -0.703125 2.617188 -0.625 3.046875 -0.625 C 3.910156 -0.625 4.570312 -0.800781 5.03125 -1.15625 C 5.488281 -1.519531 5.71875 -2.03125 5.71875 -2.6875 C 5.71875 -2.945312 5.664062 -3.175781 5.5625 -3.375 C 5.46875 -3.582031 5.3125 -3.773438 5.09375 -3.953125 C 4.882812 -4.140625 4.472656 -4.410156 3.859375 -4.765625 C 2.929688 -5.265625 2.304688 -5.71875 1.984375 -6.125 C 1.660156 -6.53125 1.5 -7.023438 1.5 -7.609375 C 1.5 -8.410156 1.804688 -9.066406 2.421875 -9.578125 C 3.035156 -10.085938 3.847656 -10.34375 4.859375 -10.34375 C 5.328125 -10.34375 5.820312 -10.285156 6.34375 -10.171875 C 6.863281 -10.066406 7.300781 -9.925781 7.65625 -9.75 L 7.328125 -8.921875 C 6.472656 -9.316406 5.648438 -9.515625 4.859375 -9.515625 C 4.128906 -9.515625 3.546875 -9.347656 3.109375 -9.015625 C 2.671875 -8.691406 2.453125 -8.265625 2.453125 -7.734375 C 2.453125 -7.390625 2.503906 -7.113281 2.609375 -6.90625 C 2.710938 -6.695312 2.898438 -6.484375 3.171875 -6.265625 C 3.453125 -6.046875 3.828125 -5.804688 4.296875 -5.546875 C 5.015625 -5.148438 5.519531 -4.828125 5.8125 -4.578125 C 6.113281 -4.328125 6.332031 -4.054688 6.46875 -3.765625 C 6.613281 -3.472656 6.6875 -3.140625 6.6875 -2.765625 Z M 6.6875 -2.765625 "/></g></g></g><g fill="#000000" fill-opacity="1"><g transform="translate(277.869812, 111.776809)"><g><path d="M 6.5 -10.1875 L 6.328125 -9.421875 L 3.6875 -9.421875 L 2.421875 -3.46875 C 2.285156 -2.851562 2.21875 -2.34375 2.21875 -1.9375 C 2.21875 -1.070312 2.609375 -0.640625 3.390625 -0.640625 C 3.816406 -0.640625 4.289062 -0.71875 4.8125 -0.875 L 4.8125 -0.078125 C 4.1875 0.0976562 3.65625 0.1875 3.21875 0.1875 C 2.601562 0.1875 2.125 0.0195312 1.78125 -0.3125 C 1.445312 -0.65625 1.28125 -1.15625 1.28125 -1.8125 C 1.28125 -2.257812 1.375 -2.898438 1.5625 -3.734375 L 2.765625 -9.421875 L 1.0625 -9.421875 L 1.1875 -10.046875 L 2.90625 -10.21875 L 3.828125 -12.578125 L 4.34375 -12.578125 L 3.828125 -10.1875 Z M 6.5 -10.1875 "/></g></g></g></svg>